<svg width="300" height="189" viewBox="0 0 300 189" fill="none" xmlns="http://www.w3.org/2000/svg">
<g clip-path="url(#clip0)">
<path d="M293.509 129.327C299.009 138.108 301.715 149.06 296.137 157.39C291.337 164.564 281.81 167.438 277 174.608C274.57 178.229 273.291 182.966 269.5 185.115C267.17 186.435 264.355 186.47 261.678 186.47L19.5251 186.494C16.8191 186.494 14.0071 186.472 11.5671 185.3C8.64006 183.895 6.68806 181.04 5.24006 178.133C1.95254 171.268 0.679987 163.611 1.57017 156.051C2.46035 148.492 5.47674 141.34 10.2691 135.426C16.1891 128.346 24.5981 123.342 29.1691 115.326C33.1481 108.342 33.6831 100.009 34.9981 92.079C36.6641 82.031 40.7881 71.788 50.4661 67.463C62.0641 62.278 73.7001 57.9 82.7131 48.49C92.4431 38.325 97.9301 23.858 110.028 16.67C121.628 9.78 136.375 11.445 149.295 15.317C162.215 19.189 174.737 25.074 188.187 26.078C204.678 27.309 221.73 21.118 237.514 26.054C242.92 27.7929 247.852 30.7523 251.931 34.7032C256.009 38.6541 259.124 43.4905 261.033 48.838C266.313 64.016 261.257 81.528 267.464 96.351C272.11 107.451 282.245 115.093 289.919 124.357C291.224 125.933 292.423 127.593 293.509 129.327V129.327Z" fill="url(#paint0_linear)"/>
<g style="mix-blend-mode:multiply">
<g style="mix-blend-mode:multiply" opacity="0.024">
<path d="M158.752 78.7061H60.3671C59.2855 78.7061 58.2482 79.1357 57.4835 79.9005C56.7187 80.6652 56.2891 81.7025 56.2891 82.7841V127.407C56.2891 128.489 56.7187 129.526 57.4835 130.291C58.2482 131.055 59.2855 131.485 60.3671 131.485H158.752V78.7061V78.7061Z" fill="#FDFDFF"/>
</g>
<g style="mix-blend-mode:multiply" opacity="0.049">
<path d="M158.752 78.7061H60.646C59.5676 78.7061 58.5334 79.1344 57.7709 79.897C57.0083 80.6595 56.58 81.6937 56.58 82.7721V127.153C56.58 128.231 57.0083 129.266 57.7709 130.028C58.5334 130.791 59.5676 131.219 60.646 131.219H158.752V78.7061Z" fill="#FBFCFF"/>
</g>
<g style="mix-blend-mode:multiply" opacity="0.073">
<path d="M158.752 78.7061H60.925C59.8496 78.7061 58.8181 79.1333 58.0577 79.8937C57.2972 80.6542 56.87 81.6856 56.87 82.7611V126.899C56.87 127.432 56.9749 127.959 57.1787 128.451C57.3824 128.943 57.6811 129.39 58.0577 129.766C58.4342 130.143 58.8812 130.442 59.3732 130.645C59.8652 130.849 60.3925 130.954 60.925 130.954H158.752V78.7061Z" fill="#F9FAFF"/>
</g>
<g style="mix-blend-mode:multiply" opacity="0.098">
<path d="M158.752 78.7061H61.203C60.1308 78.7061 59.1024 79.132 58.3442 79.8902C57.586 80.6484 57.16 81.6768 57.16 82.7491V126.649C57.16 127.721 57.586 128.75 58.3442 129.508C59.1024 130.266 60.1308 130.692 61.203 130.692H158.752V78.7061Z" fill="#F7F8FF"/>
</g>
<g style="mix-blend-mode:multiply" opacity="0.122">
<path d="M158.752 78.7061H61.4819C60.4126 78.7061 59.387 79.1309 58.6309 79.887C57.8747 80.6431 57.45 81.6687 57.45 82.7381V126.39C57.4502 127.459 57.8751 128.485 58.6313 129.24C59.3874 129.996 60.4128 130.421 61.4819 130.421H158.752V78.7061V78.7061Z" fill="#F6F6FE"/>
</g>
<g style="mix-blend-mode:multiply" opacity="0.146">
<path d="M158.752 78.7061H61.761C61.2331 78.7061 60.7103 78.81 60.2226 79.0121C59.7349 79.2141 59.2917 79.5102 58.9184 79.8835C58.5451 80.2568 58.249 80.6999 58.047 81.1877C57.8449 81.6754 57.741 82.1981 57.741 82.7261V126.136C57.741 127.202 58.1645 128.225 58.9184 128.979C59.6723 129.733 60.6948 130.156 61.761 130.156H158.753V78.7061H158.752Z" fill="#F4F5FE"/>
</g>
<g style="mix-blend-mode:multiply" opacity="0.171">
<path d="M158.752 78.7061H62.039C61.5127 78.7061 60.9915 78.8097 60.5052 79.0111C60.0189 79.2126 59.5771 79.5078 59.2049 79.88C58.8327 80.2521 58.5375 80.694 58.3361 81.1803C58.1347 81.6665 58.031 82.1877 58.031 82.7141V125.882C58.031 126.945 58.4533 127.964 59.2049 128.716C59.9566 129.468 60.976 129.89 62.039 129.89H158.752V78.7061Z" fill="#F2F3FE"/>
</g>
<g style="mix-blend-mode:multiply" opacity="0.195">
<path d="M158.752 78.7061H62.3149C61.2541 78.7061 60.2367 79.1275 59.4865 79.8776C58.7364 80.6278 58.3149 81.6452 58.3149 82.7061V125.628C58.3149 126.689 58.7364 127.706 59.4865 128.456C60.2367 129.207 61.2541 129.628 62.3149 129.628H158.749V78.7061H158.752Z" fill="#F0F1FE"/>
</g>
<g style="mix-blend-mode:multiply" opacity="0.22">
<path d="M158.752 78.7061H62.596C61.5391 78.7061 60.5255 79.1259 59.7782 79.8732C59.0308 80.6206 58.611 81.6342 58.611 82.6911V125.374C58.611 126.431 59.0308 127.445 59.7782 128.192C60.5255 128.939 61.5391 129.359 62.596 129.359H158.752V78.7061Z" fill="#EEEFFE"/>
</g>
<g style="mix-blend-mode:multiply" opacity="0.244">
<path d="M158.752 78.7061H62.875C61.821 78.7061 60.8102 79.1247 60.065 79.87C59.3197 80.6153 58.901 81.6261 58.901 82.6801V125.117C58.901 126.171 59.3197 127.182 60.065 127.927C60.8102 128.672 61.821 129.091 62.875 129.091H158.752V78.7061V78.7061Z" fill="#ECEEFE"/>
</g>
<g style="mix-blend-mode:multiply" opacity="0.268">
<path d="M158.752 78.7061H63.1519C62.1011 78.7061 61.0934 79.1235 60.3504 79.8665C59.6074 80.6095 59.1899 81.6173 59.1899 82.6681V124.868C59.1899 125.919 59.6074 126.927 60.3504 127.67C61.0934 128.413 62.1011 128.83 63.1519 128.83H158.752V78.7061Z" fill="#EAECFE"/>
</g>
<g style="mix-blend-mode:multiply" opacity="0.293">
<path d="M158.752 78.7061H63.4319C62.3841 78.7061 61.3791 79.1223 60.6382 79.8633C59.8972 80.6042 59.481 81.6092 59.481 82.6571V124.612C59.481 125.66 59.8972 126.665 60.6382 127.406C61.3791 128.147 62.3841 128.563 63.4319 128.563H158.752V78.7061Z" fill="#E8EAFE"/>
</g>
<g style="mix-blend-mode:multiply" opacity="0.317">
<path d="M158.752 78.7061H63.715C62.6703 78.7061 61.6684 79.1211 60.9297 79.8598C60.191 80.5985 59.776 81.6004 59.776 82.6451V124.358C59.776 125.403 60.191 126.405 60.9297 127.143C61.6684 127.882 62.6703 128.297 63.715 128.297H158.756V78.7061H158.752Z" fill="#E7E8FD"/>
</g>
<g style="mix-blend-mode:multiply" opacity="0.341">
<path d="M158.752 78.7061H63.99C62.9482 78.7061 61.9491 79.1199 61.2125 79.8565C60.4759 80.5932 60.062 81.5923 60.062 82.6341V124.104C60.062 125.146 60.4759 126.145 61.2125 126.882C61.9491 127.618 62.9482 128.032 63.99 128.032H158.752V78.7061Z" fill="#E5E7FD"/>
</g>
<g style="mix-blend-mode:multiply" opacity="0.366">
<path d="M158.752 78.7061H64.2681C63.2295 78.7061 62.2334 79.1186 61.499 79.853C60.7646 80.5874 60.3521 81.5835 60.3521 82.6221V123.849C60.3521 124.888 60.7646 125.884 61.499 126.618C62.2334 127.352 63.2295 127.765 64.2681 127.765H158.752V78.7061V78.7061Z" fill="#E3E5FD"/>
</g>
<g style="mix-blend-mode:multiply" opacity="0.39">
<path d="M158.752 78.7061H64.547C63.5126 78.7061 62.5206 79.1169 61.7892 79.8483C61.0579 80.5797 60.647 81.5717 60.647 82.6061V123.595C60.647 124.107 60.7478 124.614 60.9438 125.088C61.1398 125.561 61.4271 125.991 61.7892 126.353C62.1514 126.715 62.5813 127.002 63.0545 127.198C63.5277 127.394 64.0348 127.495 64.547 127.495H158.752V78.7061V78.7061Z" fill="#E1E3FD"/>
</g>
<g style="mix-blend-mode:multiply" opacity="0.415">
<path d="M158.752 78.7061H64.826C63.7935 78.7061 62.8033 79.1162 62.0732 79.8463C61.3431 80.5764 60.933 81.5666 60.933 82.5991V123.341C60.933 124.374 61.3431 125.364 62.0732 126.094C62.8033 126.824 63.7935 127.234 64.826 127.234H158.753V78.7061H158.752Z" fill="#DFE2FD"/>
</g>
<g style="mix-blend-mode:multiply" opacity="0.439">
<path d="M158.752 78.7061H65.104C64.0747 78.7061 63.0876 79.1149 62.3597 79.8428C61.6319 80.5706 61.223 81.5577 61.223 82.5871V123.087C61.223 124.116 61.6319 125.104 62.3597 125.831C63.0876 126.559 64.0747 126.968 65.104 126.968H158.752V78.7061Z" fill="#DDE0FD"/>
</g>
<g style="mix-blend-mode:multiply" opacity="0.463">
<path d="M158.752 78.706H65.3829C64.8747 78.706 64.3715 78.8061 63.9019 79.0006C63.4324 79.1951 63.0058 79.4801 62.6464 79.8395C62.2871 80.1989 62.002 80.6255 61.8075 81.095C61.613 81.5645 61.5129 82.0678 61.5129 82.576V122.833C61.5129 123.341 61.613 123.844 61.8075 124.314C62.002 124.784 62.2871 125.21 62.6464 125.57C63.0058 125.929 63.4324 126.214 63.9019 126.408C64.3715 126.603 64.8747 126.703 65.3829 126.703H158.752V78.703V78.706Z" fill="#DBDEFD"/>
</g>
<g style="mix-blend-mode:multiply" opacity="0.488">
<path d="M158.752 78.7061H65.662C64.6388 78.7061 63.6574 79.1125 62.9339 79.836C62.2104 80.5596 61.804 81.5409 61.804 82.5641V122.579C61.804 123.602 62.2104 124.584 62.9339 125.307C63.6574 126.031 64.6388 126.437 65.662 126.437H158.753V78.7061H158.752Z" fill="#D9DCFD"/>
</g>
<g style="mix-blend-mode:multiply" opacity="0.512">
<path d="M158.752 78.7061H65.94C64.9197 78.7061 63.9412 79.1114 63.2198 79.8328C62.4983 80.5543 62.093 81.5328 62.093 82.5531V122.325C62.093 123.345 62.4983 124.324 63.2198 125.045C63.9412 125.767 64.9197 126.172 65.94 126.172H158.752V78.7061V78.7061Z" fill="#D8DBFC"/>
</g>
<g style="mix-blend-mode:multiply" opacity="0.537">
<path d="M158.752 78.7061H66.215C65.7114 78.7061 65.2127 78.8053 64.7474 78.998C64.2821 79.1907 63.8594 79.4732 63.5033 79.8293C63.1471 80.1854 62.8647 80.6082 62.6719 81.0735C62.4792 81.5387 62.38 82.0374 62.38 82.5411V122.071C62.38 122.575 62.4792 123.073 62.6719 123.539C62.8647 124.004 63.1471 124.427 63.5033 124.783C63.8594 125.139 64.2821 125.421 64.7474 125.614C65.2127 125.807 65.7114 125.906 66.215 125.906H158.748V78.7061H158.752Z" fill="#D6D9FC"/>
</g>
<g style="mix-blend-mode:multiply" opacity="0.561">
<path d="M158.752 78.7061H66.497C65.4828 78.7061 64.5101 79.1089 63.793 79.8261C63.0759 80.5432 62.673 81.5159 62.673 82.5301V121.817C62.673 122.831 63.0759 123.804 63.793 124.521C64.5101 125.238 65.4828 125.641 66.497 125.641H158.752V78.7061Z" fill="#D4D7FC"/>
</g>
<g style="mix-blend-mode:multiply" opacity="0.585">
<path d="M158.752 78.7061H66.776C65.765 78.7061 64.7954 79.1077 64.0805 79.8226C63.3656 80.5375 62.964 81.507 62.964 82.5181V121.563C62.964 122.574 63.3656 123.544 64.0805 124.259C64.7954 124.973 65.765 125.375 66.776 125.375H158.752V78.7061Z" fill="#D2D5FC"/>
</g>
<g style="mix-blend-mode:multiply" opacity="0.61">
<path d="M158.752 78.7061H67.052C66.0441 78.7061 65.0776 79.1064 64.3649 79.819C63.6523 80.5317 63.252 81.4982 63.252 82.5061V121.306C63.252 122.314 63.6523 123.28 64.3649 123.993C65.0776 124.706 66.0441 125.106 67.052 125.106H158.752V78.7061V78.7061Z" fill="#D0D4FC"/>
</g>
<g style="mix-blend-mode:multiply" opacity="0.634">
<path d="M158.752 78.7061H67.3329C66.328 78.7061 65.3643 79.1053 64.6537 79.8158C63.9431 80.5264 63.5439 81.4902 63.5439 82.4951V121.055C63.5439 122.06 63.9431 123.024 64.6537 123.734C65.3643 124.445 66.328 124.844 67.3329 124.844H158.752V78.7061V78.7061Z" fill="#CED2FC"/>
</g>
<g style="mix-blend-mode:multiply" opacity="0.659">
<path d="M158.752 78.7061H67.615C67.1189 78.7061 66.6277 78.8038 66.1694 78.9937C65.7111 79.1835 65.2946 79.4618 64.9439 79.8127C64.5932 80.1635 64.315 80.58 64.1252 81.0384C63.9355 81.4967 63.8379 81.988 63.838 82.4841V120.8C63.838 121.802 64.236 122.762 64.9443 123.471C65.6526 124.179 66.6133 124.577 67.615 124.577H158.755V78.7061H158.752Z" fill="#CCD0FC"/>
</g>
<g style="mix-blend-mode:multiply" opacity="0.683">
<path d="M158.752 78.7061H67.891C66.8922 78.7061 65.9343 79.1028 65.228 79.8091C64.5218 80.5154 64.125 81.4733 64.125 82.4721V120.546C64.125 121.545 64.5218 122.503 65.228 123.209C65.9343 123.915 66.8922 124.312 67.891 124.312H158.752V78.7061V78.7061Z" fill="#CACFFC"/>
</g>
<g style="mix-blend-mode:multiply" opacity="0.707">
<path d="M158.752 78.7061H68.169C67.1734 78.7061 66.2186 79.1016 65.5146 79.8056C64.8105 80.5096 64.415 81.4644 64.415 82.4601V120.292C64.415 121.288 64.8105 122.243 65.5146 122.947C66.2186 123.651 67.1734 124.046 68.169 124.046H158.752V78.7061Z" fill="#C9CDFB"/>
</g>
<g style="mix-blend-mode:multiply" opacity="0.732">
<path d="M158.752 78.7061H68.452C67.4593 78.7061 66.5072 79.1004 65.8053 79.8024C65.1033 80.5043 64.709 81.4563 64.709 82.4491V120.039C64.709 121.032 65.1033 121.984 65.8053 122.686C66.5072 123.388 67.4593 123.782 68.452 123.782H158.752V78.7061V78.7061Z" fill="#C7CBFB"/>
</g>
<g style="mix-blend-mode:multiply" opacity="0.756">
<path d="M158.752 78.7061H68.727C68.237 78.7061 67.7518 78.8026 67.2992 78.9901C66.8465 79.1776 66.4352 79.4524 66.0887 79.7988C65.7423 80.1453 65.4675 80.5566 65.28 81.0093C65.0925 81.4619 64.996 81.9471 64.996 82.4371V119.784C64.996 120.774 65.389 121.723 66.0887 122.422C66.7884 123.122 67.7374 123.515 68.727 123.515H158.753V78.7061H158.752Z" fill="#C5C9FB"/>
</g>
<g style="mix-blend-mode:multiply" opacity="0.78">
<path d="M158.752 78.7061H69.005C68.0184 78.7061 67.0722 79.098 66.3746 79.7956C65.677 80.4933 65.285 81.4395 65.285 82.4261V119.526C65.285 120.513 65.677 121.459 66.3746 122.156C67.0722 122.854 68.0184 123.246 69.005 123.246H158.752V78.7061V78.7061Z" fill="#C3C8FB"/>
</g>
<g style="mix-blend-mode:multiply" opacity="0.805">
<path d="M158.752 78.7061H69.2839C68.3005 78.7061 67.3574 79.0967 66.662 79.7921C65.9666 80.4875 65.5759 81.4306 65.5759 82.4141V119.276C65.5759 120.259 65.9666 121.203 66.662 121.898C67.3574 122.593 68.3005 122.984 69.2839 122.984H158.752V78.7061V78.7061Z" fill="#C1C6FB"/>
</g>
<g style="mix-blend-mode:multiply" opacity="0.829">
<path d="M158.752 78.7061H69.5621C68.5808 78.7061 67.6396 79.0959 66.9458 79.7898C66.2519 80.4836 65.8621 81.4248 65.8621 82.4061V119.017C65.8621 119.998 66.2519 120.939 66.9458 121.633C67.6396 122.327 68.5808 122.717 69.5621 122.717H158.752V78.7061Z" fill="#BFC4FB"/>
</g>
<g style="mix-blend-mode:multiply" opacity="0.854">
<path d="M158.752 78.7061H69.841C68.8637 78.7061 67.9264 79.0943 67.2353 79.7854C66.5442 80.4764 66.156 81.4137 66.156 82.3911V118.768C66.156 119.745 66.5442 120.683 67.2353 121.374C67.9264 122.065 68.8637 122.453 69.841 122.453H158.752V78.7061Z" fill="#BDC2FB"/>
</g>
<g style="mix-blend-mode:multiply" opacity="0.878">
<path d="M158.752 78.7061H70.115C69.1408 78.7063 68.2065 79.0935 67.5177 79.7825C66.829 80.4715 66.442 81.4058 66.442 82.3801V118.517C66.4431 119.491 66.8305 120.424 67.5192 121.112C68.2078 121.8 69.1415 122.187 70.115 122.187H158.747V78.7061H158.752Z" fill="#BBC1FB"/>
</g>
<g style="mix-blend-mode:multiply" opacity="0.902">
<path d="M158.752 78.7061H70.398C69.4267 78.7061 68.4953 79.0919 67.8085 79.7786C67.1218 80.4654 66.736 81.3968 66.736 82.3681V118.259C66.736 119.23 67.1218 120.162 67.8085 120.848C68.4953 121.535 69.4267 121.921 70.398 121.921H158.752V78.7061V78.7061Z" fill="#BABFFA"/>
</g>
<g style="mix-blend-mode:multiply" opacity="0.927">
<path d="M158.752 78.7061H70.677C69.7089 78.7061 68.7805 79.0906 68.096 79.7751C67.4115 80.4596 67.027 81.388 67.027 82.3561V118.005C67.027 118.973 67.4115 119.901 68.096 120.586C68.7805 121.271 69.7089 121.655 70.677 121.655H158.752V78.7061V78.7061Z" fill="#B8BDFA"/>
</g>
<g style="mix-blend-mode:multiply" opacity="0.951">
<path d="M158.752 78.7061H70.952C70.4741 78.7061 70.0009 78.8002 69.5594 78.9831C69.1179 79.1659 68.7167 79.434 68.3788 79.7719C68.0409 80.1098 67.7729 80.511 67.59 80.9525C67.4071 81.394 67.313 81.8672 67.313 82.3451V117.751C67.313 118.716 67.6964 119.642 68.3788 120.324C69.0613 121.007 69.9869 121.39 70.952 121.39H158.752V78.7061V78.7061Z" fill="#B6BBFA"/>
</g>
<g style="mix-blend-mode:multiply" opacity="0.976">
<path d="M158.752 78.7061H71.2339C70.272 78.7061 69.3495 79.0882 68.6693 79.7684C67.9891 80.4486 67.6069 81.3711 67.6069 82.3331V117.497C67.6069 118.459 67.9891 119.382 68.6693 120.062C69.3495 120.742 70.272 121.124 71.2339 121.124H158.752V78.7061Z" fill="#B4BAFA"/>
</g>
<g style="mix-blend-mode:multiply">
<path d="M158.752 78.7061H71.515C70.556 78.7061 69.6363 79.087 68.9581 79.7652C68.28 80.4433 67.899 81.363 67.899 82.3221V117.243C67.899 118.202 68.28 119.122 68.9581 119.8C69.6363 120.478 70.556 120.859 71.515 120.859H158.754V78.7061H158.752Z" fill="#B2B8FA"/>
</g>
</g>
<path d="M169.503 77H69.293C66.9155 77 64.988 78.9274 64.988 81.305V119.204C64.988 121.582 66.9155 123.509 69.293 123.509H169.503C171.881 123.509 173.808 121.582 173.808 119.204V81.305C173.808 78.9274 171.881 77 169.503 77Z" fill="white"/>
<path d="M73.2591 83.459H71.2771V117.049H73.2591V83.459Z" fill="#F0F1FE"/>
<path d="M78.3441 83.459H76.3621V117.049H78.3441V83.459Z" fill="#F0F1FE"/>
<path d="M83.43 83.459H81.448V117.049H83.43V83.459Z" fill="#F0F1FE"/>
<path d="M88.5162 83.459H86.5342V117.049H88.5162V83.459Z" fill="#F0F1FE"/>
<path d="M93.6011 83.459H91.6191V117.049H93.6011V83.459Z" fill="#F0F1FE"/>
<path d="M98.6871 83.459H96.7051V117.049H98.6871V83.459Z" fill="#F0F1FE"/>
<path d="M73.2591 102.263H71.2771V117.049H73.2591V102.263Z" fill="#FF5F00"/>
<path d="M78.3441 96.121H76.3621V117.049H78.3441V96.121Z" fill="#FF5F00"/>
<path d="M83.43 92.998H81.448V117.049H83.43V92.998Z" fill="#FF5F00"/>
<path d="M88.5162 96.121H86.5342V117.049H88.5162V96.121Z" fill="#FF5F00"/>
<path d="M93.6011 89.979H91.6191V117.049H93.6011V89.979Z" fill="#FF5F00"/>
<path d="M98.6871 86.6479H96.7051V117.05H98.6871V86.6479Z" fill="#FF5F00"/>
<path d="M115.803 94.6511C118.837 94.6511 121.297 92.1913 121.297 89.1571C121.297 86.1228 118.837 83.6631 115.803 83.6631C112.769 83.6631 110.309 86.1228 110.309 89.1571C110.309 92.1913 112.769 94.6511 115.803 94.6511Z" fill="#D1D4FC"/>
<path d="M168.684 84.533H124.255V86.013H168.684V84.533Z" fill="#F0F1FE"/>
<path d="M168.684 88.8411H124.255V90.3211H168.684V88.8411Z" fill="#F0F1FE"/>
<path d="M142.867 93.1489H124.255V94.6289H142.867V93.1489Z" fill="#FFDFD6"/>
<path d="M115.803 115.888C118.837 115.888 121.297 113.428 121.297 110.394C121.297 107.36 118.837 104.9 115.803 104.9C112.769 104.9 110.309 107.36 110.309 110.394C110.309 113.428 112.769 115.888 115.803 115.888Z" fill="#D1D4FC"/>
<path d="M168.684 105.769H124.255V107.249H168.684V105.769Z" fill="#F0F1FE"/>
<path d="M168.684 110.077H124.255V111.557H168.684V110.077Z" fill="#F0F1FE"/>
<path d="M142.867 114.385H124.255V115.865H142.867V114.385Z" fill="#FFDFD6"/>
<path d="M271.302 7H193.055C190.815 7 189 8.81549 189 11.055V31.103C189 33.3425 190.815 35.158 193.055 35.158H271.302C273.542 35.158 275.357 33.3425 275.357 31.103V11.055C275.357 8.81549 273.542 7 271.302 7Z" fill="white"/>
<path d="M271.302 7H193.055C192.522 7 191.995 7.10489 191.503 7.30867C191.011 7.51245 190.564 7.81114 190.188 8.18769C189.811 8.56423 189.512 9.01125 189.309 9.50322C189.105 9.9952 189 10.5225 189 11.055V13.655H275.362V11.055C275.362 10.5221 275.257 9.99437 275.053 9.50207C274.849 9.00976 274.55 8.56252 274.173 8.18592C273.795 7.80931 273.348 7.51072 272.855 7.30724C272.363 7.10375 271.835 6.99935 271.302 7V7Z" fill="#4D5068"/>
<path d="M201.771 31.3509C205.414 31.3509 208.367 28.3978 208.367 24.7549C208.367 21.1121 205.414 18.1589 201.771 18.1589C198.128 18.1589 195.175 21.1121 195.175 24.7549C195.175 28.3978 198.128 31.3509 201.771 31.3509Z" fill="#D1D4FC"/>
<path d="M268.094 18.7019H211.921V20.4789H268.094V18.7019Z" fill="#F0F1FE"/>
<path d="M268.094 23.875H211.921V25.652H268.094V23.875Z" fill="#F0F1FE"/>
<path d="M232.986 29.048H211.921V30.825H232.986V29.048Z" fill="#FFDFD6"/>
<path d="M196.018 11.173C196.484 11.173 196.862 10.7951 196.862 10.329C196.862 9.86286 196.484 9.48499 196.018 9.48499C195.552 9.48499 195.174 9.86286 195.174 10.329C195.174 10.7951 195.552 11.173 196.018 11.173Z" fill="white"/>
<path d="M199.683 11.173C200.149 11.173 200.527 10.7951 200.527 10.329C200.527 9.86286 200.149 9.48499 199.683 9.48499C199.217 9.48499 198.839 9.86286 198.839 10.329C198.839 10.7951 199.217 11.173 199.683 11.173Z" fill="white"/>
<path d="M203.347 11.173C203.813 11.173 204.191 10.7951 204.191 10.329C204.191 9.86286 203.813 9.48499 203.347 9.48499C202.881 9.48499 202.503 9.86286 202.503 10.329C202.503 10.7951 202.881 11.173 203.347 11.173Z" fill="white"/>
<g clip-path="url(#clip1)">
<path d="M175.04 161.759C172.122 161.759 169.322 162.922 167.258 164.991C165.194 167.06 164.035 169.866 164.035 172.792C164.035 175.719 165.194 178.525 167.258 180.594C169.322 182.663 172.122 183.826 175.04 183.826H220.968V161.759H175.04Z" fill="url(#paint1_linear)"/>
<path d="M218.686 183.829C215.872 176.742 215.872 168.845 218.686 161.758H304.453C301.639 168.845 301.639 176.742 304.453 183.829H218.686Z" fill="url(#paint2_linear)"/>
<path d="M307.85 160.586H207.244V162.935H307.85V160.586Z" fill="#56AAEF"/>
<path d="M307.85 182.651H207.244V185H307.85V182.651Z" fill="#56AAEF"/>
<path d="M226.259 185H175.04C173.432 185.014 171.837 184.709 170.347 184.102C168.857 183.495 167.502 182.598 166.36 181.463C165.217 180.329 164.31 178.978 163.692 177.49C163.073 176.002 162.754 174.405 162.754 172.793C162.754 171.181 163.073 169.584 163.692 168.096C164.31 166.608 165.217 165.257 166.36 164.122C167.502 162.987 168.857 162.09 170.347 161.483C171.837 160.876 173.432 160.571 175.04 160.586H226.259V162.935H175.04C172.432 162.935 169.931 163.973 168.087 165.822C166.242 167.671 165.206 170.179 165.206 172.793C165.206 175.408 166.242 177.916 168.087 179.764C169.931 181.613 172.432 182.652 175.04 182.652H226.259V185.001V185Z" fill="#007BF8"/>
<path d="M180.122 129.101C176.166 129.101 172.373 130.677 169.575 133.481C166.778 136.285 165.207 140.088 165.207 144.054C165.207 148.019 166.778 151.823 169.575 154.627C172.373 157.431 176.166 159.006 180.122 159.006H226.593V129.101H180.122V129.101Z" fill="url(#paint3_linear)"/>
<path d="M212.021 159.01C208.207 149.406 208.207 138.703 212.021 129.099H284.514C280.7 138.703 280.7 149.406 284.514 159.01H212.021Z" fill="url(#paint4_linear)"/>
<path d="M226.588 160.598H180.117C175.74 160.598 171.543 158.855 168.448 155.753C165.353 152.65 163.615 148.442 163.615 144.055C163.615 139.667 165.353 135.459 168.448 132.356C171.543 129.254 175.74 127.511 180.117 127.511H226.588V130.694H180.117C178.354 130.672 176.603 131.002 174.968 131.664C173.332 132.325 171.844 133.306 170.589 134.549C169.335 135.791 168.338 137.271 167.659 138.903C166.979 140.534 166.629 142.285 166.629 144.053C166.629 145.821 166.979 147.572 167.659 149.203C168.338 150.835 169.335 152.315 170.589 153.557C171.844 154.8 173.332 155.781 174.968 156.443C176.603 157.104 178.354 157.434 180.117 157.413H226.588V160.596V160.598Z" fill="#4D5068"/>
<path d="M289.116 127.511H223.766V130.694H289.116V127.511Z" fill="#717386"/>
<path d="M289.116 157.415H223.766V160.597H289.116V157.415Z" fill="#717386"/>
<path d="M204.265 154.937L198.871 152.539L193.477 154.937V144.545H204.265V154.937Z" fill="#00BED7"/>
<path d="M176.017 103.999C173.098 103.999 170.299 105.161 168.235 107.23C166.171 109.3 165.011 112.106 165.011 115.032C165.011 117.958 166.171 120.765 168.235 122.834C170.299 124.903 173.098 126.065 176.017 126.065H221.945V103.999H176.017Z" fill="url(#paint5_linear)"/>
<path d="M219.662 126.067C216.848 118.981 216.848 111.083 219.662 103.997H271.037C268.223 111.083 268.223 118.981 271.037 126.067H219.662Z" fill="url(#paint6_linear)"/>
<path d="M274.431 102.824H208.22V105.173H274.431V102.824Z" fill="#FF794E"/>
<path d="M274.431 124.891H208.22V127.24H274.431V124.891Z" fill="#82423B"/>
<path d="M227.235 127.24H176.017C174.409 127.254 172.813 126.949 171.323 126.342C169.833 125.735 168.478 124.838 167.336 123.703C166.194 122.568 165.287 121.218 164.668 119.729C164.049 118.241 163.731 116.645 163.731 115.032C163.731 113.42 164.049 111.824 164.668 110.336C165.287 108.847 166.194 107.497 167.336 106.362C168.478 105.227 169.833 104.33 171.323 103.723C172.813 103.116 174.409 102.811 176.017 102.825H227.235V105.174H176.017C173.409 105.174 170.907 106.213 169.063 108.062C167.219 109.911 166.183 112.418 166.183 115.033C166.183 117.648 167.219 120.155 169.063 122.004C170.907 123.853 173.409 124.892 176.017 124.892H227.235V127.241V127.24Z" fill="#82423B"/>
<path d="M247.858 82.0001L250.714 81.2729L257.618 82.4543L261.433 86.0256L260.515 89.138C259.985 88.9808 259.539 88.6192 259.275 88.1327C259.011 87.6461 258.951 87.0745 259.108 86.5434L259.179 86.3016L257.951 85.225L258.295 86.7186L257.417 89.5275C257.151 89.4486 256.903 89.317 256.688 89.1404C256.473 88.9639 256.296 88.746 256.167 88.4997C256.038 88.2533 255.959 87.9835 255.936 87.7062C255.912 87.4288 255.944 87.1496 256.03 86.885L256.248 86.2135L255.785 85.4727L254.943 85.2231L248.463 86.8703L247.212 86.4993L246.755 85.7398L247.858 82.0001Z" fill="#FFCEBD"/>
<path d="M281.626 142.334L289.245 139.356L286.502 132.305L278.884 135.283L281.626 142.334Z" fill="#FFCEBD"/>
<path d="M290.82 131.83L301.231 134.306L305.867 133.954C306.36 133.916 306.852 134.039 307.271 134.303C307.689 134.567 308.012 134.96 308.191 135.422L308.687 136.694L283.194 146.659L281.298 145.257L278.369 137.721L279.617 137.458L282.463 139.279L285.978 137.909L290.82 131.83Z" fill="#4D5068"/>
<path d="M307.461 134.467C307.786 134.713 308.039 135.042 308.194 135.42L308.69 136.692L283.196 146.658L281.301 145.255L280.387 142.906L282.283 144.309L307.461 134.467Z" fill="white"/>
<path d="M292.884 134.83L292.656 134.242L295.796 133.015L296.873 133.271L292.884 134.83Z" fill="white"/>
<path d="M290.682 133.576L293.507 132.471L294.585 132.727L290.911 134.163L290.682 133.576Z" fill="white"/>
<path d="M294.89 135.421L294.662 134.834L297.984 133.535L299.062 133.79L294.89 135.421Z" fill="white"/>
<path d="M269.207 98.5758L288.357 133.083L277.978 136.905L260.401 112.45L269.207 98.5758Z" fill="#4D5068"/>
<path d="M239.63 137.167L247.325 139.941L249.879 132.819L242.184 130.046L239.63 137.167Z" fill="#FFCEBD"/>
<path d="M253.443 135.309L259.673 144.033L263.398 146.82C263.795 147.117 264.085 147.533 264.228 148.008C264.37 148.482 264.357 148.99 264.189 149.457L263.727 150.744L237.978 141.461L237.469 139.156L240.202 131.54L241.315 132.165L242.267 135.412L245.819 136.692L253.443 135.309Z" fill="#4D5068"/>
<path d="M264.261 148.256C264.345 148.655 264.32 149.07 264.189 149.457L263.727 150.744L237.978 141.462L237.469 139.156L238.32 136.782L238.829 139.088L264.261 148.256Z" fill="white"/>
<path d="M253.034 138.928L253.247 138.334L256.42 139.478L257.064 140.38L253.034 138.928Z" fill="white"/>
<path d="M252.197 136.532L255.05 137.56L255.695 138.463L251.984 137.125L252.197 136.532Z" fill="white"/>
<path d="M254.16 140.694L254.373 140.101L257.728 141.311L258.373 142.213L254.16 140.694Z" fill="white"/>
<path opacity="0.2" d="M271.109 102.002L263.018 116.09L260.401 112.45L269.207 98.5758L271.109 102.002Z" fill="#231F20"/>
<path d="M214.796 87.2744V93.734C214.796 96.8398 216.027 99.8184 218.218 102.015C220.408 104.211 223.38 105.444 226.478 105.444H250.592C250.934 105.444 251.27 105.533 251.569 105.701C251.867 105.869 252.118 106.111 252.296 106.404C252.474 106.697 252.574 107.031 252.587 107.374C252.599 107.717 252.523 108.057 252.366 108.362L240.916 130.664L250.897 133.908L269.23 101.99C269.807 100.984 270.109 99.8442 270.106 98.6844C270.103 97.5246 269.795 96.3861 269.212 95.384C268.63 94.3819 267.794 93.5516 266.789 92.9772C265.784 92.4027 264.645 92.1043 263.488 92.1122L237.468 88.5223L236.026 86.1733V83.5787L214.796 87.2744Z" fill="#4D5068"/>
<path d="M230.256 31.6506C230.251 30.7779 230.396 29.911 230.684 29.0874C230.834 28.7292 231.037 28.3944 231.173 28.0303C231.599 26.897 231.349 25.5718 231.884 24.4864C232.568 23.1015 233.804 21.146 235.522 21.0256C235.754 21.0349 235.985 21.0017 236.205 20.9277C236.34 20.8542 236.463 20.7608 236.57 20.6508C237.376 19.9187 239.499 18.4565 240.622 19.2091C240.788 19.3197 240.926 19.4704 241.098 19.5703C241.684 19.9109 242.417 19.5624 243.097 19.5154C243.506 19.4982 243.913 19.5914 244.275 19.7854C244.636 19.9794 244.939 20.2671 245.152 20.6185C245.415 21.055 245.357 21.2341 245.926 21.2918C246.372 21.3369 246.822 21.2605 247.269 21.2713C247.989 21.3055 248.672 21.6004 249.192 22.1012C249.584 22.4792 249.896 22.9322 250.11 23.4333C250.164 23.6309 250.261 23.8144 250.392 23.9712C250.524 24.128 250.688 24.2544 250.873 24.3415C251.137 24.4208 251.421 24.4267 251.681 24.5187C252.02 24.6527 252.307 24.8904 252.503 25.1979C253.498 26.6552 255.199 27.7817 255.373 29.7C255.432 30.0204 255.393 30.3511 255.261 30.6488C255.129 30.9465 254.911 31.1975 254.634 31.3688C254.16 31.5131 253.649 31.4829 253.194 31.2836C253.346 31.38 253.477 31.5069 253.578 31.6563C253.679 31.8057 253.747 31.9744 253.78 32.1518C253.701 32.4169 253.554 32.6568 253.353 32.8476C253.153 33.0385 252.907 33.1737 252.639 33.2401C251.984 33.4735 251.268 33.4634 250.62 33.2117C249.789 32.8186 248.898 32.5666 247.984 32.4659C247.718 32.4767 247.454 32.512 247.194 32.5716C245.397 33.0877 243.649 33.7641 241.971 34.5927C240.144 35.3228 238.271 35.9335 236.401 36.5452C235.678 36.8158 234.924 36.9933 234.156 37.0738C233.699 37.1021 233.238 37.061 232.783 37.1139C232.134 37.3416 231.467 37.516 230.79 37.6355C230.522 37.5105 230.286 37.3245 230.102 37.0922C229.918 36.86 229.791 36.5879 229.731 36.2976C229.536 35.586 229.478 34.8435 229.561 34.1102C229.562 33.6481 229.634 33.1888 229.774 32.7488C229.999 32.4143 230.162 32.0424 230.256 31.6506Z" fill="#393939"/>
<path d="M226.546 40.2507L234.942 50.2581C234.942 50.2581 234.947 42.6339 238.486 42.4098L231.782 35.1858L226.546 40.2507Z" fill="#FFCEBD"/>
<path d="M251.515 31.1769C251.059 32.6897 250.519 34.1755 249.896 35.6272C249.466 36.5824 249.435 40.2497 247.898 41.4457C247.809 41.5152 246.063 40.1616 245.996 40.2546C245.859 40.4503 244.727 41.5416 243.636 42.5742C243.049 43.1315 242.292 43.4744 241.487 43.5478C240.682 43.6211 239.876 43.4205 239.199 42.9784C235.867 40.8046 230.182 37.1325 230.065 37.3135L238.314 24.4639L251.515 31.1769Z" fill="#FFCEBD"/>
<path d="M230.005 37.1619C229.898 36.8281 229.905 36.468 230.026 36.1391C230.228 35.0625 230.57 33.9908 230.875 32.9465C231.205 31.7605 231.619 30.5997 232.115 29.473C232.804 27.8564 233.858 26.4225 235.195 25.2841C236.054 24.6351 236.973 24.0695 237.939 23.5948C238.552 23.2047 239.252 22.974 239.976 22.9238C240.7 22.8735 241.425 23.0053 242.085 23.307C242.832 23.4659 243.551 23.7326 244.222 24.0988C245.187 24.6861 245.89 25.6932 246.942 26.1111C248.314 26.5363 249.707 26.8891 251.115 27.1681C252.384 27.5244 252.488 29.0531 252.403 30.1865C252.38 30.762 252.22 31.3235 251.935 31.8239C251.692 32.293 251.341 32.6975 250.911 33.0042L250.828 32.783L250.513 32.6431C249.166 32.4229 248.114 31.3287 246.803 30.9656C246.055 30.798 245.277 30.828 244.544 31.0525C243.812 31.2771 243.15 31.6886 242.623 32.2467C242.035 32.855 241.574 33.5742 241.265 34.3627C241.104 34.7657 240.974 35.1802 240.875 35.6028C240.862 35.82 240.819 36.0343 240.745 36.2389C240.536 36.2845 240.319 36.2727 240.116 36.2047C239.906 36.1875 239.711 36.0884 239.572 35.9287C239.449 35.6973 239.421 35.4272 239.492 35.175C239.827 33.8662 239.875 32.5001 239.631 31.1711C239.425 30.7001 239.049 30.3242 238.579 30.1182C238.108 29.9122 237.578 29.8911 237.093 30.0593C236.876 30.1128 236.674 30.2127 236.499 30.3521C236.324 30.4914 236.182 30.667 236.081 30.8667C235.993 31.1084 235.953 31.3653 235.964 31.6225C235.976 31.8797 236.038 32.1321 236.147 32.3651C236.502 33.2744 236.871 34.1699 237.2 35.0938C237.246 35.1606 237.277 35.2373 237.288 35.3178C237.299 35.3983 237.292 35.4803 237.266 35.5574C237.24 35.6344 237.196 35.7042 237.138 35.7612C237.08 35.8182 237.01 35.8608 236.933 35.8856C236.63 36.0783 236.301 36.2257 235.956 36.3231C235.332 36.4664 234.687 36.4972 234.052 36.4141L233.282 36.2888C233.146 36.2701 233.011 36.24 232.879 36.1988C232.592 36.1009 232.529 35.958 232.258 36.1988C232.166 36.2813 232.093 36.3824 232.042 36.4954C231.992 36.6084 231.965 36.7307 231.965 36.8545C232.005 37.0791 232.025 37.3067 232.026 37.5348C232.023 37.5692 232.009 37.6018 231.985 37.6268C231.953 37.6485 231.915 37.6586 231.876 37.6551C231.554 37.662 231.246 37.7599 230.924 37.753C230.743 37.743 230.568 37.689 230.413 37.5955C230.259 37.502 230.129 37.3719 230.036 37.2167C230.024 37.1961 230.014 37.1795 230.005 37.1619Z" fill="#393939"/>
<path d="M226.546 40.2506L218.584 44.557C217.681 45.0452 216.953 45.8046 216.502 46.7288L213.573 52.7411C212.308 55.3339 211.744 58.2138 211.936 61.0935C212.294 66.4765 212.487 71.8663 212.762 77.2493C212.965 81.2197 213.168 85.1903 213.371 89.1614C213.447 90.6438 213.522 92.1262 213.599 93.6087C213.626 94.1333 213.426 95.664 213.726 96.1103C213.749 96.2102 213.753 96.3133 213.739 96.4147C221.872 102.916 230.52 86.8976 238.439 88.4762C238.551 88.4988 238.447 84.713 238.439 84.1767C238.428 83.4799 238.439 82.7899 238.39 82.0871C238.315 81.0321 238.176 79.9751 238.135 78.918C238.049 76.712 237.947 74.505 237.867 72.2989C237.891 71.6855 237.956 71.0743 238.062 70.4697C238.049 70.0062 238.085 69.5426 238.17 69.0867C238.402 68.0461 238.435 66.9707 238.267 65.9176C238.155 65.2927 238.101 64.6587 238.106 64.0238C238.183 63.4983 238.225 62.9683 238.232 62.4373C238.197 61.209 238.006 59.9905 237.865 58.7739C237.758 57.8481 237.773 56.929 237.706 56.0041C237.587 55.0984 237.375 54.2075 237.072 53.3459C236.579 51.4945 235.648 49.7896 234.357 48.376L226.546 40.2506Z" fill="white"/>
<path opacity="0.2" d="M218.942 81.8738C217.894 81.7477 216.936 81.2202 216.268 80.4017C215.601 79.5832 215.275 78.5373 215.359 77.4832L217.531 50.3021H228.901L226.546 75.2899L238.17 79.4172C238.228 80.3059 238.326 81.1955 238.389 82.0823C238.439 82.785 238.426 83.475 238.438 84.1719C238.438 84.4107 238.464 85.2964 238.479 86.2017L218.942 81.8738Z" fill="#231F20"/>
<path d="M228.901 49.0425L226.546 74.0283L247.894 81.6085L247.292 86.8937L218.942 80.6122C217.894 80.4859 216.937 79.9583 216.269 79.1398C215.601 78.3214 215.275 77.2757 215.359 76.2216L217.53 49.0425H228.901Z" fill="white"/>
<path d="M267.061 90.7088C267.249 90.8456 267.483 90.9023 267.713 90.8665C267.942 90.8307 268.148 90.7054 268.286 90.5179L281.11 73.1064C281.247 72.9181 281.303 72.6834 281.267 72.4534C281.232 72.2234 281.107 72.017 280.92 71.8791C280.732 71.7423 280.498 71.6856 280.268 71.7214C280.039 71.7572 279.833 71.8825 279.695 72.07L266.872 89.4815C266.736 89.6696 266.679 89.9043 266.714 90.1343C266.75 90.3642 266.875 90.5708 267.061 90.7088V90.7088Z" fill="#545671"/>
<path d="M239.666 89.2133L268.712 92.7299C268.876 92.7497 269.042 92.737 269.201 92.6926C269.359 92.6481 269.508 92.5727 269.637 92.4708C269.767 92.3688 269.875 92.2422 269.956 92.0982C270.037 91.9543 270.089 91.7958 270.109 91.6318V91.6318C270.148 91.301 270.054 90.9683 269.849 90.7063C269.644 90.4443 269.344 90.2746 269.014 90.2341L239.967 86.7156C239.803 86.6958 239.637 86.7085 239.479 86.7529C239.32 86.7974 239.172 86.8728 239.042 86.9748C238.912 87.0767 238.804 87.2033 238.723 87.3473C238.642 87.4912 238.591 87.6497 238.571 87.8138V87.8138C238.551 87.9778 238.564 88.1441 238.608 88.3032C238.652 88.4623 238.728 88.6111 238.829 88.741C238.931 88.871 239.057 88.9796 239.201 89.0607C239.344 89.1417 239.503 89.1936 239.666 89.2133V89.2133Z" fill="#545671"/>
<path d="M238.703 87.4135C238.801 87.6139 238.949 87.7854 239.133 87.9114C239.317 88.0375 239.53 88.1137 239.752 88.1328L268.798 91.6494C269.038 91.6898 269.284 91.659 269.506 91.5607C269.729 91.4624 269.917 91.301 270.049 91.0964C270.108 91.2687 270.128 91.4518 270.108 91.6327C270.088 91.7967 270.036 91.9553 269.955 92.0992C269.874 92.2432 269.766 92.3698 269.636 92.4717C269.507 92.5737 269.358 92.6491 269.2 92.6935C269.041 92.738 268.875 92.7507 268.711 92.7309L239.666 89.2133C239.503 89.1936 239.344 89.1417 239.201 89.0606C239.057 88.9796 238.931 88.871 238.829 88.741C238.728 88.6111 238.652 88.4623 238.608 88.3032C238.564 88.1441 238.551 87.9778 238.571 87.8138C238.592 87.6738 238.636 87.5384 238.703 87.4135Z" fill="#3F4155"/>
<path d="M246.806 88.2205L246.7 89.1018L248.992 89.3793L249.099 88.498L246.806 88.2205Z" fill="#F5F7F9"/>
<path d="M244.089 87.8914L243.983 88.7727L246.275 89.0503L246.381 88.169L244.089 87.8914Z" fill="#F5F7F9"/>
<path d="M263.376 90.2264L263.27 91.1077L265.562 91.3852L265.668 90.5039L263.376 90.2264Z" fill="#F5F7F9"/>
<path d="M234.362 48.3711L232.723 52.2263L226.55 40.2506L234.362 48.3711Z" fill="#4D5068"/>
<path d="M234.362 48.3712L235.318 51.4375L235.444 46.2385L234.362 48.3712Z" fill="#4D5068"/>
<path d="M184.547 102.866C184.325 103.292 184.004 103.659 183.611 103.935C183.218 104.212 182.766 104.39 182.29 104.456L167.481 106.498L165.696 105.829C165.045 105.583 164.483 105.144 164.087 104.57C163.69 103.996 163.478 103.314 163.478 102.616V102.616C163.479 101.868 163.723 101.14 164.174 100.544L165.54 98.7352L184.547 102.866Z" fill="#4D5068"/>
<path d="M184.566 102.378C184.353 102.785 184.047 103.135 183.672 103.398C183.297 103.662 182.865 103.833 182.411 103.895L168.273 105.845L166.57 105.209C165.947 104.975 165.41 104.556 165.03 104.008C164.651 103.46 164.448 102.808 164.448 102.141C164.448 101.427 164.68 100.732 165.111 100.163L166.416 98.4368L184.566 102.378Z" fill="white"/>
<path d="M163.919 89.0322L165.529 87.6894C166.153 87.1683 166.951 86.9029 167.762 86.9466L191.791 88.2336V84.8335L210.819 93.1605V93.8338C210.819 96.3956 209.804 98.8524 207.997 100.664C206.19 102.475 203.74 103.493 201.184 103.493L194.324 104.019L184.802 103.523L163.887 98.5063C163.346 98.2305 162.88 97.8278 162.529 97.3326C162.177 96.8374 161.95 96.2643 161.867 95.6621L161.732 94.6609C161.591 93.6138 161.718 92.548 162.1 91.5635C162.483 90.579 163.109 89.708 163.919 89.0322Z" fill="#4D5068"/>
<path opacity="0.2" d="M180.004 101.116L189.525 101.613L196.386 101.086C198.941 101.086 201.392 100.068 203.199 98.257C205.006 96.4456 206.021 93.9888 206.021 91.4271V91.0591L210.819 93.1594V93.8328C210.819 96.3945 209.804 98.8513 207.997 100.663C206.19 102.474 203.74 103.492 201.184 103.492L194.324 104.018L184.802 103.522L163.886 98.5062C163.174 98.1581 162.6 97.5782 162.258 96.861L180.004 101.116Z" fill="#231F20"/>
<path d="M197.955 48.1431L203.597 42.858L197.438 36.2477C197.438 36.2477 189.978 40.878 191.795 41.5328C195.298 42.7914 197.955 48.1431 197.955 48.1431Z" fill="#FFCEBD"/>
<path d="M182.293 29.5268C182.963 32.0788 183.189 34.7275 182.961 37.3565C182.915 37.7285 184.631 36.9298 184.816 37.2587C185.433 38.4426 186.245 39.5132 187.219 40.4249C188.585 41.6179 190.598 42.443 192.215 41.3253L194.851 39.5048C196.354 38.4656 197.453 36.9394 197.965 35.1828L199.373 30.3538L190.626 25.0687L183.878 23.766C183.122 24.2756 182.558 25.0238 182.275 25.8918C181.868 27.0702 181.874 28.3526 182.293 29.5268V29.5268Z" fill="#FFCEBD"/>
<path d="M196.873 46.8933L191.438 60.5337C191.203 61.1721 191.132 61.8593 191.231 62.5324C191.329 63.2055 191.595 63.8431 192.002 64.387L192.749 65.3833L193.823 73.4265L189.815 88.6241C194.689 87.7217 203.321 99.0299 212.172 96.0232L211.268 75.2302L212.918 54.7064L206.475 41.7784H202.594L196.873 46.8933Z" fill="#5F4DEE"/>
<path d="M198.147 49.7491L197.696 64.707H207.069L208.344 51.4776L206.395 48.697L198.147 49.7491Z" fill="#5F4DEE"/>
<path d="M164.23 87.7647C164.181 87.7926 164.127 87.8106 164.071 87.8175C164.015 87.8244 163.958 87.8202 163.904 87.8052C163.849 87.7901 163.798 87.7644 163.754 87.7296C163.709 87.6947 163.672 87.6515 163.644 87.6022L153.057 68.8293C153.029 68.7801 153.011 68.7259 153.004 68.6697C152.997 68.6136 153.001 68.5566 153.016 68.502C153.031 68.4475 153.057 68.3965 153.092 68.3519C153.126 68.3073 153.17 68.27 153.219 68.2421V68.2421C153.268 68.2142 153.322 68.1962 153.378 68.1893C153.434 68.1823 153.491 68.1865 153.545 68.2016C153.6 68.2167 153.65 68.2424 153.695 68.2772C153.739 68.312 153.777 68.3553 153.804 68.4046L164.392 87.1775C164.42 87.2267 164.438 87.2809 164.445 87.3371C164.452 87.3932 164.448 87.4502 164.433 87.5048C164.418 87.5593 164.392 87.6103 164.357 87.6549C164.322 87.6995 164.279 87.7368 164.23 87.7647V87.7647Z" fill="#545671"/>
<path d="M186.019 88.0809L163.001 88.1954C162.871 88.1961 162.743 88.1711 162.623 88.122C162.503 88.0728 162.394 88.0005 162.302 87.9091C162.209 87.8176 162.136 87.7089 162.086 87.5891C162.036 87.4693 162.01 87.3408 162.009 87.2108V87.2108C162.008 86.9485 162.11 86.6963 162.294 86.5097C162.478 86.3231 162.729 86.2173 162.99 86.2155L186.008 86.1019C186.27 86.1009 186.521 86.204 186.707 86.3886C186.893 86.5732 186.998 86.8242 187 87.0865V87.0865C187.001 87.3487 186.898 87.6006 186.714 87.787C186.53 87.9734 186.28 88.0791 186.019 88.0809V88.0809Z" fill="#545671"/>
<path d="M186.934 86.7616C186.839 86.9094 186.708 87.03 186.553 87.1118C186.398 87.1936 186.224 87.2338 186.049 87.2284L163.031 87.343C162.84 87.3532 162.65 87.3069 162.485 87.2098C162.32 87.1127 162.187 86.9691 162.103 86.7968C162.04 86.926 162.007 87.0673 162.005 87.2108C162.006 87.3408 162.032 87.4693 162.082 87.5891C162.132 87.7089 162.206 87.8176 162.298 87.9091C162.39 88.0005 162.499 88.0728 162.619 88.122C162.739 88.1711 162.867 88.1961 162.997 88.1954L186.019 88.0809C186.28 88.0794 186.531 87.9738 186.715 87.7874C186.899 87.6009 187.002 87.3489 187.001 87.0865C186.997 86.9752 186.975 86.8653 186.934 86.7616Z" fill="#3F4155"/>
<path d="M180.529 86.6583L178.713 86.6671L178.716 87.3649L180.533 87.3561L180.529 86.6583Z" fill="#F5F7F9"/>
<path d="M182.681 86.6473L180.864 86.6565L180.867 87.3543L182.684 87.3451L182.681 86.6473Z" fill="#F5F7F9"/>
<path d="M167.397 86.7228L165.58 86.7318L165.584 87.4296L167.4 87.4206L167.397 86.7228Z" fill="#F5F7F9"/>
<path d="M181.256 24.4834C181.644 23.0986 182.277 21.7946 183.124 20.6331C183.67 19.7906 184.454 19.1302 185.376 18.7363C187.777 17.8085 190.247 18.1168 192.744 18.5122C194.3 18.6998 195.785 19.2715 197.066 20.176L201.25 23.2218C202.397 24.0567 203.726 24.6429 204.611 25.792C205.158 26.5794 205.588 27.4426 205.887 28.3543C206.375 29.6354 206.766 31.0291 207.376 32.2564C207.938 33.0807 208.556 33.8655 209.225 34.6054C210.815 36.695 211.79 39.1894 212.039 41.8058C212.081 42.7728 211.971 43.7408 212.015 44.7078C212.098 46.5556 212.878 48.0423 213.418 49.756C213.918 51.3415 214.004 53.0396 214.671 54.5743C215.185 55.7546 216.02 56.7735 216.526 57.9577C217.162 59.4617 217.194 61.1541 216.614 62.681C216.443 63.4463 216.438 64.2396 216.6 65.0068C216.763 65.774 217.089 66.497 217.555 67.1264C216.864 67.374 216.13 67.4824 215.397 67.4455C214.663 67.4085 213.944 67.2269 213.28 66.9111C211.957 66.2717 210.76 65.3966 209.748 64.3282C208.804 63.4911 208.057 62.455 207.559 61.2942C207.343 60.366 207.053 59.4566 206.693 58.5743C205.889 57.1385 204.038 56.4015 203.569 54.8238C203.012 52.9515 204.693 50.768 203.697 49.0885C203.232 48.5043 202.689 47.9875 202.082 47.5529C201.192 46.5059 200.448 45.3427 199.869 44.0951C199.127 42.8325 199.372 41.1168 199.309 39.7084C199.331 39.1476 199.18 38.5935 198.876 38.1219C198.383 37.634 197.737 37.3307 197.048 37.2626C195.632 36.9543 194.091 36.5021 193.315 35.2748C192.688 34.2795 192.718 32.9954 192.199 31.9393C191.145 29.7998 188.716 29.1255 186.569 28.9552C185.474 28.9267 184.405 28.6134 183.467 28.046C182.652 27.6752 181.935 27.1189 181.373 26.4213C181.105 25.8098 181.064 25.1228 181.256 24.4834V24.4834Z" fill="#E55151"/>
<path d="M198.297 64.707V76.207L182.021 82.6666L175.654 80.4155L170.631 81.4677L169.206 83.5719V85.9678H170.105L171.23 84.0975L173.41 83.797L176.178 85.9678L185.648 86.1137L189.871 85.6243L203.018 83.4604C204.021 83.2167 205.905 81.957 206.093 80.3803V64.707H198.297Z" fill="#FFCEBD"/>
<path opacity="0.15" d="M174.98 84.767L184.45 84.9128H188.55L201.173 81.8464C202.234 81.5887 203.178 80.981 203.853 80.1208C204.528 79.2606 204.895 78.198 204.895 77.1035L204.189 64.7873L206.092 64.7119V80.3803C205.904 81.957 204.02 83.2186 203.017 83.4604L189.87 85.6273L185.647 86.1166L176.177 85.9708L173.409 83.8L174.98 84.767Z" fill="#525D7A"/>
</g>
<path d="M69.0432 105H7.49683V143.426H69.0432V105Z" fill="#D1D4FC"/>
<path d="M70.54 141.249H6V144.487H70.54V141.249Z" fill="#C1C6FB"/>
<path d="M17.8747 134.424L17.5938 133.994L25.6103 126.954L31.748 131.196L43.3294 117.639L48.4751 124.929L59.1079 115.943L59.3795 116.381L48.3916 125.663L43.297 118.444L31.8226 131.875L25.6414 127.604L17.8747 134.424Z" fill="#B2B8FA"/>
<path d="M17.7295 109.891H17.264V137.565H17.7295V109.891Z" fill="#B2B8FA"/>
<path d="M65.7739 134.193H13.3177V134.732H65.7739V134.193Z" fill="#B2B8FA"/>
<path d="M59.5381 117.134C60.1288 117.134 60.6077 116.579 60.6077 115.895C60.6077 115.211 60.1288 114.656 59.5381 114.656C58.9474 114.656 58.4685 115.211 58.4685 115.895C58.4685 116.579 58.9474 117.134 59.5381 117.134Z" fill="#B2B8FA"/>
<path d="M43.2788 119.356C43.8695 119.356 44.3484 118.801 44.3484 118.117C44.3484 117.432 43.8695 116.877 43.2788 116.877C42.6881 116.877 42.2092 117.432 42.2092 118.117C42.2092 118.801 42.6881 119.356 43.2788 119.356Z" fill="#B2B8FA"/>
<path d="M25.5997 128.66C26.1904 128.66 26.6693 128.106 26.6693 127.421C26.6693 126.737 26.1904 126.182 25.5997 126.182C25.009 126.182 24.5302 126.737 24.5302 127.421C24.5302 128.106 25.009 128.66 25.5997 128.66Z" fill="#B2B8FA"/>
<path d="M31.7703 132.536C32.361 132.536 32.8398 131.981 32.8398 131.297C32.8398 130.613 32.361 130.058 31.7703 130.058C31.1796 130.058 30.7007 130.613 30.7007 131.297C30.7007 131.981 31.1796 132.536 31.7703 132.536Z" fill="#B2B8FA"/>
<path d="M48.3394 126.324C48.9301 126.324 49.4089 125.769 49.4089 125.085C49.4089 124.401 48.9301 123.846 48.3394 123.846C47.7486 123.846 47.2698 124.401 47.2698 125.085C47.2698 125.769 47.7486 126.324 48.3394 126.324Z" fill="#B2B8FA"/>
<g style="mix-blend-mode:multiply">
<g style="mix-blend-mode:multiply" opacity="0.024">
<path d="M92.7521 28.7061H-5.63295C-6.7145 28.7061 -7.75175 29.1357 -8.51653 29.9005C-9.2813 30.6652 -9.71094 31.7025 -9.71094 32.7841V77.4071C-9.71094 78.4886 -9.2813 79.5259 -8.51653 80.2906C-7.75175 81.0554 -6.7145 81.4851 -5.63295 81.4851H92.7521V28.7061V28.7061Z" fill="#FDFDFF"/>
</g>
<g style="mix-blend-mode:multiply" opacity="0.049">
<path d="M92.752 28.7061H-5.35405C-6.43242 28.7061 -7.46662 29.1344 -8.22914 29.897C-8.99166 30.6595 -9.42004 31.6937 -9.42004 32.7721V77.1531C-9.42004 78.2314 -8.99166 79.2656 -8.22914 80.0281C-7.46662 80.7907 -6.43242 81.2191 -5.35405 81.2191H92.752V28.7061Z" fill="#FBFCFF"/>
</g>
<g style="mix-blend-mode:multiply" opacity="0.073">
<path d="M92.752 28.7061H-5.075C-6.15045 28.7061 -7.18186 29.1333 -7.94232 29.8937C-8.70278 30.6542 -9.13 31.6856 -9.13 32.7611V76.8991C-9.13 77.4316 -9.02512 77.9589 -8.82133 78.4508C-8.61755 78.9428 -8.31886 79.3898 -7.94232 79.7664C-7.56578 80.1429 -7.11876 80.4416 -6.62679 80.6454C-6.13481 80.8492 -5.60751 80.9541 -5.075 80.9541H92.752V28.7061Z" fill="#F9FAFF"/>
</g>
<g style="mix-blend-mode:multiply" opacity="0.098">
<path d="M92.752 28.7061H-4.79697C-5.86924 28.7061 -6.8976 29.132 -7.65581 29.8902C-8.41402 30.6484 -8.83997 31.6768 -8.83997 32.7491V76.6491C-8.83997 77.7213 -8.41402 78.7497 -7.65581 79.5079C-6.8976 80.2661 -5.86924 80.6921 -4.79697 80.6921H92.752V28.7061Z" fill="#F7F8FF"/>
</g>
<g style="mix-blend-mode:multiply" opacity="0.122">
<path d="M92.752 28.7061H-4.51805C-5.5874 28.7061 -6.61296 29.1309 -7.36911 29.887C-8.12526 30.6431 -8.55005 31.6687 -8.55005 32.7381V76.3901C-8.54978 77.4592 -8.12486 78.4845 -7.36874 79.2405C-6.61263 79.9964 -5.58723 80.4211 -4.51805 80.4211H92.752V28.7061V28.7061Z" fill="#F6F6FE"/>
</g>
<g style="mix-blend-mode:multiply" opacity="0.146">
<path d="M92.752 28.7061H-4.23903C-4.76694 28.7061 -5.28969 28.81 -5.77742 29.0121C-6.26515 29.2141 -6.70831 29.5102 -7.0816 29.8835C-7.4549 30.2568 -7.75101 30.6999 -7.95303 31.1877C-8.15506 31.6754 -8.25903 32.1981 -8.25903 32.7261V76.1361C-8.25903 77.2022 -7.8355 78.2247 -7.0816 78.9786C-6.32771 79.7325 -5.3052 80.1561 -4.23903 80.1561H92.753V28.7061H92.752Z" fill="#F4F5FE"/>
</g>
<g style="mix-blend-mode:multiply" opacity="0.171">
<path d="M92.752 28.7061H-3.96098C-4.48732 28.7061 -5.00851 28.8097 -5.49478 29.0111C-5.98105 29.2126 -6.4229 29.5078 -6.79507 29.88C-7.16725 30.2521 -7.46247 30.694 -7.66389 31.1803C-7.86532 31.6665 -7.96899 32.1877 -7.96899 32.7141V75.8821C-7.96899 76.945 -7.54672 77.9645 -6.79507 78.7161C-6.04343 79.4678 -5.02397 79.8901 -3.96098 79.8901H92.752V28.7061Z" fill="#F2F3FE"/>
</g>
<g style="mix-blend-mode:multiply" opacity="0.195">
<path d="M92.7519 28.7061H-3.68506C-4.74592 28.7061 -5.76334 29.1275 -6.51349 29.8776C-7.26363 30.6278 -7.68506 31.6452 -7.68506 32.7061V75.6281C-7.68506 76.6889 -7.26363 77.7063 -6.51349 78.4565C-5.76334 79.2066 -4.74592 79.6281 -3.68506 79.6281H92.7489V28.7061H92.7519Z" fill="#F0F1FE"/>
</g>
<g style="mix-blend-mode:multiply" opacity="0.22">
<path d="M92.752 28.7061H-3.40404C-4.46093 28.7061 -5.47452 29.1259 -6.22185 29.8732C-6.96918 30.6206 -7.38904 31.6342 -7.38904 32.6911V75.3741C-7.38904 76.4309 -6.96918 77.4445 -6.22185 78.1919C-5.47452 78.9392 -4.46093 79.3591 -3.40404 79.3591H92.752V28.7061Z" fill="#EEEFFE"/>
</g>
<g style="mix-blend-mode:multiply" opacity="0.244">
<path d="M92.752 28.7061H-3.125C-4.17897 28.7061 -5.18977 29.1247 -5.93504 29.87C-6.68031 30.6153 -7.099 31.6261 -7.099 32.6801V75.1171C-7.099 76.171 -6.68031 77.1818 -5.93504 77.9271C-5.18977 78.6724 -4.17897 79.0911 -3.125 79.0911H92.752V28.7061V28.7061Z" fill="#ECEEFE"/>
</g>
<g style="mix-blend-mode:multiply" opacity="0.268">
<path d="M92.7519 28.7061H-2.84807C-3.89886 28.7061 -4.90661 29.1235 -5.64963 29.8665C-6.39265 30.6095 -6.81006 31.6173 -6.81006 32.6681V74.8681C-6.81006 75.9188 -6.39265 76.9266 -5.64963 77.6696C-4.90661 78.4126 -3.89886 78.8301 -2.84807 78.8301H92.7519V28.7061Z" fill="#EAECFE"/>
</g>
<g style="mix-blend-mode:multiply" opacity="0.293">
<path d="M92.752 28.7061H-2.56805C-3.61592 28.7061 -4.62088 29.1223 -5.36183 29.8633C-6.10279 30.6042 -6.51904 31.6092 -6.51904 32.6571V74.6121C-6.51904 75.6599 -6.10279 76.6649 -5.36183 77.4058C-4.62088 78.1468 -3.61592 78.5631 -2.56805 78.5631H92.752V28.7061Z" fill="#E8EAFE"/>
</g>
<g style="mix-blend-mode:multiply" opacity="0.317">
<path d="M92.752 28.7061H-2.285C-3.32969 28.7061 -4.33159 29.1211 -5.0703 29.8598C-5.809 30.5985 -6.224 31.6004 -6.224 32.6451V74.3581C-6.224 75.4027 -5.809 76.4046 -5.0703 77.1434C-4.33159 77.8821 -3.32969 78.2971 -2.285 78.2971H92.756V28.7061H92.752Z" fill="#E7E8FD"/>
</g>
<g style="mix-blend-mode:multiply" opacity="0.341">
<path d="M92.752 28.7061H-2.00999C-3.05176 28.7061 -4.05086 29.1199 -4.78751 29.8565C-5.52415 30.5932 -5.93799 31.5923 -5.93799 32.6341V74.1041C-5.93799 75.1458 -5.52415 76.1449 -4.78751 76.8816C-4.05086 77.6182 -3.05176 78.0321 -2.00999 78.0321H92.752V28.7061Z" fill="#E5E7FD"/>
</g>
<g style="mix-blend-mode:multiply" opacity="0.366">
<path d="M92.7521 28.7061H-1.73195C-2.77054 28.7061 -3.76658 29.1186 -4.50098 29.853C-5.23537 30.5874 -5.64795 31.5835 -5.64795 32.6221V73.8491C-5.64795 74.8876 -5.23537 75.8837 -4.50098 76.6181C-3.76658 77.3525 -2.77054 77.7651 -1.73195 77.7651H92.7521V28.7061V28.7061Z" fill="#E3E5FD"/>
</g>
<g style="mix-blend-mode:multiply" opacity="0.39">
<path d="M92.752 28.7061H-1.45303C-2.48738 28.7061 -3.47936 29.1169 -4.21075 29.8483C-4.94215 30.5797 -5.35303 31.5717 -5.35303 32.6061V73.5951C-5.35303 74.1072 -5.25216 74.6144 -5.05617 75.0875C-4.86017 75.5607 -4.5729 75.9906 -4.21075 76.3528C-3.84861 76.7149 -3.41867 77.0022 -2.9455 77.1982C-2.47233 77.3942 -1.96519 77.4951 -1.45303 77.4951H92.752V28.7061V28.7061Z" fill="#E1E3FD"/>
</g>
<g style="mix-blend-mode:multiply" opacity="0.415">
<path d="M92.752 28.7061H-1.17403C-2.20651 28.7061 -3.19671 29.1162 -3.92679 29.8463C-4.65687 30.5764 -5.06702 31.5666 -5.06702 32.5991V73.3411C-5.06702 74.3735 -4.65687 75.3637 -3.92679 76.0938C-3.19671 76.8239 -2.20651 77.2341 -1.17403 77.2341H92.753V28.7061H92.752Z" fill="#DFE2FD"/>
</g>
<g style="mix-blend-mode:multiply" opacity="0.439">
<path d="M92.752 28.7061H-0.895966C-1.92527 28.7061 -2.91243 29.1149 -3.64026 29.8428C-4.36809 30.5706 -4.77698 31.5577 -4.77698 32.5871V73.0871C-4.77698 74.1164 -4.36809 75.1035 -3.64026 75.8313C-2.91243 76.5592 -1.92527 76.9681 -0.895966 76.9681H92.752V28.7061Z" fill="#DDE0FD"/>
</g>
<g style="mix-blend-mode:multiply" opacity="0.463">
<path d="M92.7519 28.706H-0.617065C-1.12528 28.706 -1.62852 28.8061 -2.09805 29.0006C-2.56758 29.1951 -2.9942 29.4801 -3.35356 29.8395C-3.71292 30.1989 -3.99799 30.6255 -4.19247 31.095C-4.38696 31.5645 -4.48706 32.0678 -4.48706 32.576V72.833C-4.48706 73.3412 -4.38696 73.8445 -4.19247 74.314C-3.99799 74.7835 -3.71292 75.2101 -3.35356 75.5695C-2.9942 75.9289 -2.56758 76.2139 -2.09805 76.4084C-1.62852 76.6029 -1.12528 76.703 -0.617065 76.703H92.7519V28.703V28.706Z" fill="#DBDEFD"/>
</g>
<g style="mix-blend-mode:multiply" opacity="0.488">
<path d="M92.752 28.7061H-0.338043C-1.36125 28.7061 -2.34256 29.1125 -3.06607 29.836C-3.78959 30.5596 -4.19604 31.5409 -4.19604 32.5641V72.5791C-4.19604 73.6023 -3.78959 74.5836 -3.06607 75.3071C-2.34256 76.0306 -1.36125 76.4371 -0.338043 76.4371H92.7529V28.7061H92.752Z" fill="#D9DCFD"/>
</g>
<g style="mix-blend-mode:multiply" opacity="0.512">
<path d="M92.752 28.7061H-0.0599823C-1.08027 28.7061 -2.05878 29.1114 -2.78023 29.8328C-3.50168 30.5543 -3.90698 31.5328 -3.90698 32.5531V72.3251C-3.90698 73.3453 -3.50168 74.3238 -2.78023 75.0453C-2.05878 75.7667 -1.08027 76.1721 -0.0599823 76.1721H92.752V28.7061V28.7061Z" fill="#D8DBFC"/>
</g>
<g style="mix-blend-mode:multiply" opacity="0.537">
<path d="M92.752 28.7061H0.215012C-0.288608 28.7061 -0.787295 28.8053 -1.25258 28.998C-1.71786 29.1907 -2.14064 29.4732 -2.49675 29.8293C-2.85286 30.1854 -3.13534 30.6082 -3.32806 31.0735C-3.52079 31.5387 -3.62 32.0374 -3.62 32.5411V72.0711C-3.62 72.5747 -3.52079 73.0734 -3.32806 73.5386C-3.13534 74.0039 -2.85286 74.4267 -2.49675 74.7828C-2.14064 75.1389 -1.71786 75.4214 -1.25258 75.6141C-0.787295 75.8069 -0.288608 75.9061 0.215012 75.9061H92.748V28.7061H92.752Z" fill="#D6D9FC"/>
</g>
<g style="mix-blend-mode:multiply" opacity="0.561">
<path d="M92.752 28.7061H0.496979C-0.517209 28.7061 -1.48986 29.1089 -2.207 29.8261C-2.92414 30.5432 -3.32703 31.5159 -3.32703 32.5301V71.8171C-3.32703 72.8312 -2.92414 73.8039 -2.207 74.521C-1.48986 75.2382 -0.517209 75.6411 0.496979 75.6411H92.752V28.7061Z" fill="#D4D7FC"/>
</g>
<g style="mix-blend-mode:multiply" opacity="0.585">
<path d="M92.752 28.7061H0.776001C-0.235004 28.7061 -1.20461 29.1077 -1.91949 29.8226C-2.63438 30.5375 -3.03601 31.507 -3.03601 32.5181V71.5631C-3.03601 72.5741 -2.63438 73.5437 -1.91949 74.2585C-1.20461 74.9734 -0.235004 75.3751 0.776001 75.3751H92.752V28.7061Z" fill="#D2D5FC"/>
</g>
<g style="mix-blend-mode:multiply" opacity="0.61">
<path d="M92.752 28.7061H1.05196C0.0441335 28.7061 -0.922417 29.1064 -1.63506 29.819C-2.34769 30.5317 -2.74805 31.4982 -2.74805 32.5061V71.3061C-2.74805 72.3139 -2.34769 73.2804 -1.63506 73.9931C-0.922417 74.7057 0.0441335 75.1061 1.05196 75.1061H92.752V28.7061V28.7061Z" fill="#D0D4FC"/>
</g>
<g style="mix-blend-mode:multiply" opacity="0.634">
<path d="M92.752 28.7061H1.33295C0.328042 28.7061 -0.635708 29.1053 -1.34628 29.8158C-2.05686 30.5264 -2.45605 31.4902 -2.45605 32.4951V71.0551C-2.45605 72.06 -2.05686 73.0237 -1.34628 73.7343C-0.635708 74.4449 0.328042 74.8441 1.33295 74.8441H92.752V28.7061V28.7061Z" fill="#CED2FC"/>
</g>
<g style="mix-blend-mode:multiply" opacity="0.659">
<path d="M92.752 28.7061H1.61501C1.11892 28.7061 0.6277 28.8038 0.169388 28.9937C-0.288924 29.1835 -0.705351 29.4618 -1.05609 29.8127C-1.40683 30.1635 -1.68502 30.58 -1.87477 31.0384C-2.06452 31.4967 -2.16212 31.988 -2.16199 32.4841V70.8001C-2.16199 71.8018 -1.76405 72.7625 -1.05572 73.4708C-0.3474 74.1791 0.613283 74.5771 1.61501 74.5771H92.755V28.7061H92.752Z" fill="#CCD0FC"/>
</g>
<g style="mix-blend-mode:multiply" opacity="0.683">
<path d="M92.752 28.7061H1.89099C0.892186 28.7061 -0.0657107 29.1028 -0.771973 29.8091C-1.47823 30.5154 -1.875 31.4733 -1.875 32.4721V70.5461C-1.875 71.5449 -1.47823 72.5028 -0.771973 73.209C-0.0657107 73.9153 0.892186 74.3121 1.89099 74.3121H92.752V28.7061V28.7061Z" fill="#CACFFC"/>
</g>
<g style="mix-blend-mode:multiply" opacity="0.707">
<path d="M92.752 28.7061H2.16904C1.17341 28.7061 0.218568 29.1016 -0.485443 29.8056C-1.18945 30.5096 -1.58496 31.4644 -1.58496 32.4601V70.2921C-1.58496 71.2877 -1.18945 72.2425 -0.485443 72.9465C0.218568 73.6505 1.17341 74.0461 2.16904 74.0461H92.752V28.7061Z" fill="#C9CDFB"/>
</g>
<g style="mix-blend-mode:multiply" opacity="0.732">
<path d="M92.752 28.7061H2.45198C1.45928 28.7061 0.507231 29.1004 -0.194717 29.8024C-0.896666 30.5043 -1.29102 31.4563 -1.29102 32.4491V70.0391C-1.29102 71.0318 -0.896666 71.9838 -0.194717 72.6858C0.507231 73.3877 1.45928 73.7821 2.45198 73.7821H92.752V28.7061V28.7061Z" fill="#C7CBFB"/>
</g>
<g style="mix-blend-mode:multiply" opacity="0.756">
<path d="M92.752 28.7061H2.72696C2.237 28.7061 1.75184 28.8026 1.29918 28.9901C0.846513 29.1776 0.435201 29.4524 0.0887451 29.7988C-0.25771 30.1453 -0.532531 30.5566 -0.720032 31.0093C-0.907532 31.4619 -1.00403 31.9471 -1.00403 32.4371V69.7841C-1.00403 70.7736 -0.610953 71.7226 0.0887451 72.4223C0.788443 73.122 1.73744 73.5151 2.72696 73.5151H92.753V28.7061H92.752Z" fill="#C5C9FB"/>
</g>
<g style="mix-blend-mode:multiply" opacity="0.78">
<path d="M92.752 28.7061H3.00502C2.01841 28.7061 1.07222 29.098 0.374588 29.7956C-0.323047 30.4933 -0.714966 31.4395 -0.714966 32.4261V69.5261C-0.714966 70.5127 -0.323047 71.4589 0.374588 72.1565C1.07222 72.8541 2.01841 73.2461 3.00502 73.2461H92.752V28.7061V28.7061Z" fill="#C3C8FB"/>
</g>
<g style="mix-blend-mode:multiply" opacity="0.805">
<path d="M92.7519 28.7061H3.28394C2.30051 28.7061 1.35737 29.0967 0.661987 29.7921C-0.0333976 30.4875 -0.424072 31.4306 -0.424072 32.4141V69.2761C-0.424072 70.2595 -0.0333976 71.2026 0.661987 71.898C1.35737 72.5934 2.30051 72.9841 3.28394 72.9841H92.7519V28.7061V28.7061Z" fill="#C1C6FB"/>
</g>
<g style="mix-blend-mode:multiply" opacity="0.829">
<path d="M92.7521 28.7061H3.56206C2.58076 28.7061 1.63964 29.0959 0.945755 29.7898C0.25187 30.4836 -0.137939 31.4248 -0.137939 32.4061V69.0171C-0.137939 69.9984 0.25187 70.9395 0.945755 71.6334C1.63964 72.3272 2.58076 72.7171 3.56206 72.7171H92.7521V28.7061Z" fill="#BFC4FB"/>
</g>
<g style="mix-blend-mode:multiply" opacity="0.854">
<path d="M92.752 28.7061H3.84102C2.8637 28.7061 1.92639 29.0943 1.23532 29.7854C0.544249 30.4764 0.156006 31.4137 0.156006 32.3911V68.7681C0.156006 69.7454 0.544249 70.6827 1.23532 71.3737C1.92639 72.0648 2.8637 72.4531 3.84102 72.4531H92.752V28.7061Z" fill="#BDC2FB"/>
</g>
<g style="mix-blend-mode:multiply" opacity="0.878">
<path d="M92.752 28.7061H4.11501C3.14077 28.7063 2.20654 29.0935 1.51775 29.7825C0.828954 30.4715 0.442017 31.4058 0.442017 32.3801V68.5171C0.443076 69.4906 0.830487 70.4239 1.51917 71.112C2.20784 71.8001 3.14147 72.1868 4.11501 72.1871H92.747V28.7061H92.752Z" fill="#BBC1FB"/>
</g>
<g style="mix-blend-mode:multiply" opacity="0.902">
<path d="M92.752 28.7061H4.39796C3.42674 28.7061 2.49531 29.0919 1.80855 29.7786C1.12179 30.4654 0.735962 31.3968 0.735962 32.3681V68.2591C0.735962 69.2303 1.12179 70.1617 1.80855 70.8485C2.49531 71.5352 3.42674 71.9211 4.39796 71.9211H92.752V28.7061V28.7061Z" fill="#BABFFA"/>
</g>
<g style="mix-blend-mode:multiply" opacity="0.927">
<path d="M92.752 28.7061H4.67699C3.70895 28.7061 2.78055 29.0906 2.09604 29.7751C1.41153 30.4596 1.02698 31.388 1.02698 32.3561V68.0051C1.02698 68.9731 1.41153 69.9015 2.09604 70.586C2.78055 71.2705 3.70895 71.6551 4.67699 71.6551H92.752V28.7061V28.7061Z" fill="#B8BDFA"/>
</g>
<g style="mix-blend-mode:multiply" opacity="0.951">
<path d="M92.752 28.7061H4.95198C4.4741 28.7061 4.00091 28.8002 3.5594 28.9831C3.1179 29.1659 2.71673 29.434 2.37881 29.7719C2.0409 30.1098 1.77286 30.511 1.58998 30.9525C1.4071 31.394 1.31299 31.8672 1.31299 32.3451V67.7511C1.31299 68.7162 1.69637 69.6418 2.37881 70.3242C3.06126 71.0067 3.98686 71.3901 4.95198 71.3901H92.752V28.7061V28.7061Z" fill="#B6BBFA"/>
</g>
<g style="mix-blend-mode:multiply" opacity="0.976">
<path d="M92.7519 28.7061H5.23393C4.27199 28.7061 3.34946 29.0882 2.66927 29.7684C1.98907 30.4486 1.60693 31.3711 1.60693 32.3331V67.4971C1.60693 68.459 1.98907 69.3815 2.66927 70.0617C3.34946 70.7419 4.27199 71.1241 5.23393 71.1241H92.7519V28.7061Z" fill="#B4BAFA"/>
</g>
<g style="mix-blend-mode:multiply">
<path d="M92.752 28.7061H5.51505C4.55602 28.7061 3.63628 29.087 2.95815 29.7652C2.28001 30.4433 1.89905 31.363 1.89905 32.3221V67.2431C1.89905 68.2021 2.28001 69.1218 2.95815 69.8C3.63628 70.4781 4.55602 70.8591 5.51505 70.8591H92.754V28.7061H92.752Z" fill="#B2B8FA"/>
</g>
</g>
<path d="M103.503 27H3.29305C0.915459 27 -1.01196 28.9274 -1.01196 31.305V69.204C-1.01196 71.5816 0.915459 73.509 3.29305 73.509H103.503C105.881 73.509 107.808 71.5816 107.808 69.204V31.305C107.808 28.9274 105.881 27 103.503 27Z" fill="white"/>
<path d="M7.25911 33.459H5.2771V67.049H7.25911V33.459Z" fill="#F0F1FE"/>
<path d="M12.3441 33.459H10.3621V67.049H12.3441V33.459Z" fill="#F0F1FE"/>
<path d="M17.43 33.459H15.448V67.049H17.43V33.459Z" fill="#F0F1FE"/>
<path d="M22.5162 33.459H20.5342V67.049H22.5162V33.459Z" fill="#F0F1FE"/>
<path d="M27.6011 33.459H25.6191V67.049H27.6011V33.459Z" fill="#F0F1FE"/>
<path d="M32.6871 33.459H30.7051V67.049H32.6871V33.459Z" fill="#F0F1FE"/>
<path d="M7.25911 52.2629H5.2771V67.0489H7.25911V52.2629Z" fill="#FF5F00"/>
<path d="M12.3441 46.121H10.3621V67.049H12.3441V46.121Z" fill="#FF5F00"/>
<path d="M17.43 42.998H15.448V67.049H17.43V42.998Z" fill="#FF5F00"/>
<path d="M22.5162 46.121H20.5342V67.049H22.5162V46.121Z" fill="#FF5F00"/>
<path d="M27.6011 39.979H25.6191V67.049H27.6011V39.979Z" fill="#FF5F00"/>
<path d="M32.6871 36.6479H30.7051V67.0499H32.6871V36.6479Z" fill="#FF5F00"/>
<path d="M49.8031 44.6511C52.8373 44.6511 55.2971 42.1913 55.2971 39.1571C55.2971 36.1228 52.8373 33.6631 49.8031 33.6631C46.7688 33.6631 44.3091 36.1228 44.3091 39.1571C44.3091 42.1913 46.7688 44.6511 49.8031 44.6511Z" fill="#D1D4FC"/>
<path d="M102.684 34.533H58.2551V36.013H102.684V34.533Z" fill="#F0F1FE"/>
<path d="M102.684 38.8411H58.2551V40.3211H102.684V38.8411Z" fill="#F0F1FE"/>
<path d="M76.8671 43.1489H58.2551V44.6289H76.8671V43.1489Z" fill="#FFDFD6"/>
<path d="M49.8031 65.888C52.8373 65.888 55.2971 63.4283 55.2971 60.394C55.2971 57.3598 52.8373 54.9 49.8031 54.9C46.7688 54.9 44.3091 57.3598 44.3091 60.394C44.3091 63.4283 46.7688 65.888 49.8031 65.888Z" fill="#D1D4FC"/>
<path d="M102.684 55.769H58.2551V57.249H102.684V55.769Z" fill="#F0F1FE"/>
<path d="M102.684 60.0769H58.2551V61.5569H102.684V60.0769Z" fill="#F0F1FE"/>
<path d="M76.8671 64.385H58.2551V65.865H76.8671V64.385Z" fill="#FFDFD6"/>
<path d="M83.7715 47.0632C102.243 58.5025 96.4958 85.2587 96.2468 103.751C95.9723 124.139 95.6979 144.526 95.4234 164.914C95.4308 165.162 95.5345 165.397 95.7125 165.57C95.8905 165.743 96.1288 165.839 96.3768 165.839C96.6249 165.839 96.8632 165.743 97.0412 165.57C97.2191 165.397 97.3228 165.162 97.3302 164.914C97.6583 140.548 97.9864 116.183 98.3146 91.8172C98.5467 74.6159 101.489 55.7961 84.7338 45.4176C84.5163 45.3037 84.2632 45.2779 84.0272 45.3457C83.7912 45.4135 83.5904 45.5697 83.4665 45.7818C83.3427 45.9938 83.3052 46.2455 83.362 46.4844C83.4188 46.7234 83.5655 46.9313 83.7715 47.0649V47.0632Z" fill="#D1D4FC"/>
<path d="M94.029 56.3714C93.2535 54.5647 92.2525 52.8636 91.0498 51.3084C89.1277 49.0079 86.4508 47.4953 83.8358 46.0277L83.4512 46.2336C81.8136 50.1401 81.2914 54.4245 81.9426 58.6101C82.7295 62.7461 85.253 66.6719 89.0464 68.4971C91.8291 69.8359 95.1176 70.0105 97.7139 71.6815C98.4475 66.405 96.3111 61.1852 94.029 56.3714Z" fill="#D1D4FC"/>
<path d="M113.378 23.9201C95.0328 31.1989 98.9769 59.0363 98.2408 74.7243C96.9871 101.331 96.3094 127.93 96.483 154.565C96.4904 154.813 96.5941 155.048 96.7721 155.221C96.9501 155.394 97.1884 155.491 97.4364 155.491C97.6845 155.491 97.9228 155.394 98.1008 155.221C98.2788 155.048 98.3825 154.813 98.3899 154.565C98.2447 132.421 98.6268 110.282 99.536 88.1481C99.9595 78.1493 100.458 68.1505 100.93 58.1576C101.478 46.5488 100.945 30.8947 113.884 25.7606C115.012 25.3132 114.52 23.4676 113.376 23.9209L113.378 23.9201Z" fill="#D1D4FC"/>
<path d="M100.819 55.9376C100.786 55.8461 100.763 55.7503 100.731 55.658C100.441 56.1019 100.192 56.5716 99.9884 57.0612L100.819 55.9376Z" fill="#D1D4FC"/>
<path d="M114.424 25.5403C114.395 25.3924 114.332 25.2535 114.239 25.1353C114.145 25.017 114.025 24.9229 113.888 24.8608C113.751 24.7987 113.6 24.7705 113.45 24.7784C113.3 24.7864 113.153 24.8303 113.024 24.9065C107.056 26.6783 102.35 31.7396 100.303 37.6219C98.2916 43.4119 98.7042 49.8696 100.731 55.6571C103.012 52.055 107.644 50.2552 110.886 47.2682C116.642 41.9672 117.526 32.7259 114.424 25.5403Z" fill="#D1D4FC"/>
<path d="M86.898 186.492H108.652C109.96 186.492 111.214 185.972 112.139 185.047C113.064 184.122 113.583 182.867 113.583 181.558V154.588H81.9662V181.558C81.9662 182.867 82.4858 184.122 83.4107 185.047C84.3356 185.972 85.59 186.492 86.898 186.492V186.492Z" fill="#D1D4FC"/>
<path d="M98.6051 116.708C98.3188 109.336 97.9833 100.609 103.457 94.8279C107.73 90.3174 118.688 87.2093 124.831 87.05C125.079 87.0426 125.314 86.9389 125.487 86.7608C125.659 86.5828 125.756 86.3444 125.756 86.0963C125.756 85.8481 125.659 85.6098 125.487 85.4317C125.314 85.2537 125.079 85.15 124.831 85.1426C120.147 85.2638 115.258 87.122 110.847 88.6167C107.601 89.7183 104.53 90.9385 102.108 93.4763C96.2281 99.6383 96.3899 108.792 96.6974 116.706C96.7448 117.929 98.6525 117.936 98.6051 116.706V116.708Z" fill="#D1D4FC"/>
<path d="M126.887 84.3749C126.823 84.3212 126.749 84.2817 126.668 84.2589C126.588 84.2361 126.503 84.2306 126.421 84.2427L119.503 84.302C117.506 84.2375 115.508 84.4188 113.555 84.8418C109.658 85.8586 106.499 88.7396 104.033 91.9232L103.314 92.0333C106.912 93.1815 110.445 94.6881 114.201 95.0787C117.957 95.4694 122.121 94.5169 124.474 91.563C125.973 89.6811 126.557 87.2415 126.953 84.8689C126.978 84.7868 126.986 84.7 126.974 84.6147C126.963 84.5294 126.933 84.4476 126.887 84.3749Z" fill="#D1D4FC"/>
<path d="M38.514 132.305C38.5137 130.483 38.8783 128.679 39.5865 127C42.4286 130.499 44.4137 134.614 45.3833 139.017C46.353 143.42 46.2804 147.988 45.1714 152.358L43.4831 153.927C40.6979 151.3 39.1909 147.547 38.6021 143.764C38.1525 139.959 38.123 136.117 38.514 132.305V132.305Z" fill="#E55151"/>
<path d="M23.1222 142.144C23.2586 142.017 23.4314 141.937 23.616 141.913C25.4991 141.492 27.4528 141.5 29.3325 141.936C31.2123 142.372 32.97 143.225 34.4756 144.432C35.9812 145.64 37.1962 147.17 38.0307 148.91C38.8652 150.651 39.2979 152.556 39.2968 154.487L38.1591 155.861C35.7592 156.516 33.251 155.292 31.2594 153.801C27.6022 151.051 24.7856 147.334 23.1273 143.069C23.0448 142.929 23.0009 142.77 23 142.607C22.9991 142.445 23.0413 142.285 23.1222 142.144V142.144Z" fill="#E55151"/>
<path d="M60.3787 141.937C62.9302 139.863 65.8993 137.836 69.181 138.039C69.3545 138.027 69.5285 138.057 69.6871 138.129C69.8457 138.201 69.9839 138.311 70.0891 138.45C70.4474 139.127 69.2996 139.642 69.0725 140.378C69.0214 140.824 69.0796 141.276 69.242 141.694C69.3423 142.513 69.2043 143.344 68.8447 144.086C67.2507 147.828 64.4865 150.951 60.967 152.987C57.4476 155.024 53.3627 155.863 49.3257 155.38L48.327 153.811C51.9566 149.478 55.9922 145.502 60.3787 141.937V141.937Z" fill="#E55151"/>
<path d="M50.9725 154.291C45.2478 159.728 44.5125 167.797 45.5002 175.241C45.7154 176.862 43.1656 176.846 42.9529 175.241C41.878 167.133 42.9843 158.366 49.1715 152.489C50.3575 151.361 52.1644 153.159 50.9725 154.291Z" fill="#E55151"/>
<path d="M45.3817 151.707C44.1712 158.865 45.7146 166.095 44.9497 173.287C44.7803 174.897 42.2288 174.918 42.4025 173.287C43.192 165.86 41.6731 158.432 42.9251 151.03C43.1979 149.42 45.6536 150.098 45.3817 151.708V151.707Z" fill="#E55151"/>
<path d="M37.916 151.201C40.0168 154.354 42.1397 157.796 43.1223 161.494C44.188 165.507 43.8847 170.02 44.0677 174.142C44.1405 175.782 41.5933 175.778 41.5204 174.142C41.351 170.258 41.628 165.946 40.6657 162.172C39.7873 158.725 37.6754 155.427 35.7169 152.487C34.8055 151.118 37.0105 149.841 37.9194 151.201H37.916Z" fill="#E55151"/>
<path d="M35.0462 190.189H49.2648C49.5489 190.189 49.8249 190.095 50.05 189.922C50.2751 189.748 50.4365 189.505 50.5092 189.231L55.3504 170.952C55.4009 170.762 55.4069 170.562 55.368 170.369C55.3291 170.175 55.2464 169.994 55.1262 169.837C55.0059 169.681 54.8514 169.554 54.6746 169.467C54.4977 169.38 54.3032 169.335 54.106 169.335H30.205C30.0079 169.335 29.8134 169.38 29.6365 169.467C29.4596 169.554 29.3051 169.681 29.1849 169.837C29.0647 169.994 28.9819 170.175 28.943 170.369C28.9041 170.562 28.9102 170.762 28.9606 170.952L33.8018 189.231C33.8745 189.505 34.036 189.748 34.261 189.922C34.4861 190.095 34.7622 190.189 35.0462 190.189V190.189Z" fill="#4C5159"/>
<path d="M40.2339 129.753C42.128 136.893 42.1433 144.337 43.868 151.51C43.877 151.555 43.8684 151.603 43.8439 151.643C43.8195 151.682 43.7809 151.711 43.7361 151.724C43.6912 151.736 43.6433 151.731 43.6019 151.71C43.5605 151.688 43.5288 151.652 43.513 151.608C41.7892 144.435 41.7731 136.989 39.8789 129.851C39.8699 129.806 39.8785 129.758 39.903 129.719C39.9274 129.679 39.966 129.65 40.0108 129.638C40.0557 129.625 40.1036 129.63 40.145 129.652C40.1864 129.673 40.2181 129.709 40.2339 129.753V129.753Z" fill="#E55151"/>
<path d="M37.8923 153.654C34.9389 148.99 30.4882 145.467 25.2704 143.665C25.0485 143.587 25.1442 143.231 25.3679 143.31C30.676 145.141 35.2038 148.724 38.2082 153.469C38.2293 153.511 38.2335 153.559 38.2201 153.604C38.2067 153.649 38.1766 153.688 38.1361 153.711C38.0955 153.735 38.0474 153.742 38.0017 153.732C37.9559 153.721 37.9159 153.693 37.8897 153.654V153.654H37.8923Z" fill="#E55151"/>
<path d="M68.3322 140.316C67.1543 143.058 65.1731 145.379 62.6499 146.972C59.0183 149.514 54.3482 150.771 51.0191 153.626C50.809 153.805 50.5024 153.502 50.7142 153.321C53.0301 151.334 55.9789 150.515 58.6016 149.019C62.3661 146.87 66.2509 144.389 67.9197 140.202C68.0213 139.948 68.439 140.058 68.3356 140.317L68.3322 140.316Z" fill="#E55151"/>
<path d="M111.081 179.59L106.218 181.752L98.445 183.743C97.9582 183.853 97.5233 184.125 97.2115 184.515C96.8997 184.905 96.7295 185.389 96.7287 185.888L119.416 185.791L118.859 181.808L115.618 179.586H111.081V179.59Z" fill="#FFCEBD"/>
<path d="M108.841 183.504L106.215 181.751L98.6008 183.039C97.597 183.265 96.7254 184.859 96.7254 185.887L119.412 185.79L118.856 181.807L117.004 183.428L113.772 183.403C112.28 183.687 110.179 184.233 108.841 183.504Z" fill="#253138"/>
<path d="M117.922 181.812L111.081 180.081V170.645H117.922V181.812Z" fill="#FFCEBD"/>
<path d="M166.207 153.568C166.207 153.568 122.869 137.892 117.82 139.836C117.82 139.836 111.357 139.829 109.983 150.124L110.233 172.344H118.728L120.968 155.38C121.05 155.126 121.187 154.893 121.37 154.699C121.553 154.504 121.776 154.353 122.025 154.255C122.273 154.157 122.54 154.116 122.806 154.134C123.072 154.152 123.331 154.228 123.564 154.358L149.757 168.956L166.207 153.568Z" fill="#253138"/>
<path d="M143.028 157.543L116.826 173.692C116.061 174.164 115.429 174.824 114.991 175.609C114.553 176.393 114.323 177.278 114.323 178.177V179.727C114.323 181.361 114.972 182.927 116.127 184.082C117.282 185.237 118.848 185.886 120.481 185.887L156.085 184.127V173.752C156.085 173.752 166.998 169.506 166.456 160.414L143.028 157.543Z" fill="#253138"/>
<path d="M157.998 172.83L175.902 185.887L156.085 184.127V173.752L157.998 172.83Z" fill="#FFCEBD"/>
<path d="M157.998 172.83L156.085 173.752V178.199C156.674 177.914 157.324 177.779 157.977 177.805C158.63 177.831 159.268 178.018 159.832 178.348L168.642 185.066C169.34 185.599 170.194 185.887 171.072 185.887H175.901L157.998 172.83Z" fill="#253138"/>
<path d="M140.345 97.6132C140.345 97.6132 144.581 105.718 141.318 110.535L152.847 109.466L148.239 94.7999L140.345 97.6132Z" fill="#FFCEBD"/>
<path d="M149.442 93.6128C149.244 92.6868 148.912 91.7946 148.457 90.964C147.2 88.3787 145.852 85.6849 143.515 84.0157C142.425 83.3783 141.373 82.6775 140.365 81.9167L139.687 82.3311L138.436 82.548C137.816 82.6574 137.234 82.9199 136.741 83.3118C136.249 83.7036 135.862 84.2124 135.616 84.7918C135.386 85.3781 135.331 86.0186 135.458 86.6355C135.585 87.2523 135.889 87.8188 136.333 88.266C136.929 88.7392 137.581 89.136 138.276 89.4472C139.706 90.2462 140.873 91.4431 141.636 92.8926C141.876 93.4237 142.152 93.9376 142.463 94.4305C143.511 95.8922 145.442 96.3532 147.207 96.7099C147.534 96.8052 147.881 96.8152 148.213 96.7387C148.456 96.6488 148.67 96.4941 148.832 96.2913C149.119 95.9148 149.323 95.4807 149.428 95.0186C149.534 94.5564 149.539 94.077 149.442 93.6128V93.6128Z" fill="#253138"/>
<path d="M149.057 90.4479C148.127 88.7344 147.095 87.0788 145.965 85.49C145.676 84.99 145.261 84.5747 144.761 84.2861C144.261 83.9976 143.694 83.8458 143.117 83.8462C141.73 83.6888 140.333 83.6429 138.939 83.7089L138.724 84.008C138.341 85.0042 138.045 86.0316 137.84 87.0788C137.614 88.188 135.967 90.8191 135.852 91.952C135.835 92.1214 137.319 92.2909 137.304 92.4553C137.248 93.0544 137.2 93.6535 137.151 94.2517C137.007 94.8618 137.025 95.499 137.204 96.0998C137.298 96.6537 137.509 97.181 137.824 97.6462C138.139 98.1113 138.55 98.5035 139.029 98.7961C140.207 99.2876 141.527 99.3107 142.721 98.8605C144.434 98.3761 146.058 97.6209 147.531 96.6235C148.769 95.7854 149.988 94.5898 150.001 93.0951C149.923 92.1452 149.598 91.2324 149.057 90.4479V90.4479Z" fill="#FFCEBD"/>
<path d="M157.824 113.157C155.42 120.58 168.864 160.507 168.864 160.507C163.123 168.103 149.271 157.451 140.344 159.396C140.344 159.396 140.438 142.63 137.057 135.127L132.507 127.712C132.003 126.892 131.755 125.94 131.793 124.978C131.831 124.016 132.154 123.087 132.721 122.309L141.314 110.53L153.619 105.859C154.122 105.668 154.673 105.639 155.194 105.776C155.714 105.912 156.18 106.208 156.525 106.621V106.621C157.277 107.512 157.79 108.579 158.017 109.722C158.245 110.865 158.178 112.047 157.824 113.157V113.157Z" fill="white"/>
<path d="M160.076 112.128C160.291 106.612 158.312 101.224 158.168 95.7049C158.057 91.4207 158.931 86.6662 156.389 83.2157C154.293 80.3678 150.46 79.3882 146.927 79.3221C145.197 79.2319 143.465 79.4898 141.836 80.0805C140.839 80.4997 139.932 81.1087 139.166 81.8735C138.753 82.2828 138.298 82.659 138.498 83.2081C138.855 83.7323 139.378 84.1205 139.984 84.3097C140.621 84.5546 141.318 84.6037 141.974 84.7927C143.535 85.2418 143.641 86.3908 143.85 87.8101C144.094 89.4732 144.239 91.1495 144.283 92.8299C144.278 93.4893 144.326 94.148 144.425 94.8C144.483 95.1252 144.579 95.4424 144.712 95.7448C145.326 96.804 146.174 97.7086 147.191 98.3894C148.084 98.9915 148.765 99.8591 149.139 100.87C149.4 102.047 148.944 103.321 149.263 104.551C149.778 106.532 151.55 107.876 152.846 109.465C154.701 111.911 155.788 114.852 155.969 117.917C156.244 120.953 158.741 124.716 159.235 127.039C161.372 122.273 159.872 117.35 160.076 112.128Z" fill="#253138"/>
<path d="M101.664 120.874L121.825 136.484C122.243 136.808 122.739 137.017 123.262 137.091C123.786 137.165 124.32 137.102 124.812 136.908L149.774 127.073C150.371 126.838 150.911 126.476 151.355 126.012C151.8 125.549 152.139 124.994 152.35 124.387C152.561 123.78 152.638 123.135 152.576 122.496C152.514 121.856 152.314 121.238 151.991 120.682C151.443 119.74 150.567 119.031 149.531 118.69C148.495 118.35 147.37 118.401 146.369 118.834L123.054 128.932L104.303 117.678L102.618 115.31L98.7898 112.728L98.2307 112.585V114.36L98.5323 114.45L98.9219 115.53L94.7491 114.798L89.1133 113.765C89.016 113.944 88.9651 114.143 88.9651 114.346C88.9651 114.549 89.016 114.749 89.1133 114.927L93.802 116.391L93.7588 116.907L88.2527 115.486C88.1498 115.671 88.0959 115.878 88.0959 116.089C88.0959 116.3 88.1498 116.507 88.2527 116.691L93.78 118.37L93.647 119.004L88.6373 117.804C88.5683 117.929 88.5321 118.07 88.5321 118.213C88.5321 118.356 88.5683 118.496 88.6373 118.622L93.4335 120.147C93.4636 120.212 93.4773 120.283 93.4736 120.354C93.47 120.425 93.4489 120.495 93.4124 120.556L89.0921 119.801C89.0012 119.862 88.927 119.945 88.8764 120.043C88.8258 120.14 88.8004 120.248 88.8026 120.358C88.8048 120.468 88.8345 120.575 88.8889 120.67C88.9434 120.765 89.0208 120.845 89.1142 120.903L97.1794 122.045C98.0655 122.17 98.969 122.048 99.7894 121.69L101.664 120.874Z" fill="#FFCEBD"/>
<path d="M153.289 119.783C152.7 118.772 151.761 118.011 150.649 117.645C149.537 117.28 148.329 117.335 147.255 117.8L134.449 122.214C133.247 124.84 139.247 128.776 138.755 132.951L150.909 126.642C151.55 126.389 152.129 126.001 152.606 125.503C153.084 125.006 153.448 124.411 153.674 123.76C153.9 123.108 153.983 122.416 153.916 121.729C153.85 121.043 153.636 120.379 153.289 119.783V119.783Z" fill="white"/>
<path d="M95.6402 146.053L99.7774 152.029L99.7986 156.658H89.1479L95.6402 146.053Z" fill="#C6C6C6"/>
<path d="M90.5923 154.351L87.4453 149.661L83.1132 156.658H89.159L90.5923 154.351Z" fill="#C6C6C6"/>
<path d="M169.771 44.5033H116.084V73.4456H169.771V44.5033Z" fill="white"/>
<path d="M171.076 71.806H114.778V74.2447H171.076V71.806Z" fill="#C6C6C6"/>
<path d="M125.136 66.6651L124.892 66.3414L131.884 61.0395L137.238 64.2341L147.341 54.0226L151.829 59.5143L161.104 52.7456L161.341 53.0752L151.756 60.0668L147.312 54.6293L137.303 64.7459L131.912 61.5285L125.136 66.6651Z" fill="#FF5F00"/>
<path d="M125.009 48.1868H124.604V69.0309H125.009V48.1868Z" fill="#E0E0E0"/>
<path d="M166.919 66.4915H121.162V66.8974H166.919V66.4915Z" fill="#E0E0E0"/>
<path d="M161.479 53.643C161.994 53.643 162.411 53.2253 162.411 52.71C162.411 52.1948 161.994 51.7771 161.479 51.7771C160.964 51.7771 160.546 52.1948 160.546 52.71C160.546 53.2253 160.964 53.643 161.479 53.643Z" fill="#FF5F00"/>
<path d="M147.297 55.3156C147.812 55.3156 148.229 54.8979 148.229 54.3826C148.229 53.8674 147.812 53.4497 147.297 53.4497C146.782 53.4497 146.364 53.8674 146.364 54.3826C146.364 54.8979 146.782 55.3156 147.297 55.3156Z" fill="#FF5F00"/>
<path d="M131.875 62.3233C132.39 62.3233 132.808 61.9056 132.808 61.3903C132.808 60.8751 132.39 60.4574 131.875 60.4574C131.36 60.4574 130.943 60.8751 130.943 61.3903C130.943 61.9056 131.36 62.3233 131.875 62.3233Z" fill="#FF5F00"/>
<path d="M137.258 65.2424C137.773 65.2424 138.19 64.8247 138.19 64.3094C138.19 63.7942 137.773 63.3765 137.258 63.3765C136.743 63.3765 136.325 63.7942 136.325 64.3094C136.325 64.8247 136.743 65.2424 137.258 65.2424Z" fill="#FF5F00"/>
<path d="M151.71 60.5641C152.225 60.5641 152.643 60.1464 152.643 59.6312C152.643 59.1159 152.225 58.6982 151.71 58.6982C151.195 58.6982 150.777 59.1159 150.777 59.6312C150.777 60.1464 151.195 60.5641 151.71 60.5641Z" fill="#FF5F00"/>
<path d="M77.9916 42.9891C69.6584 42.9891 62.903 36.2317 62.903 27.896C62.903 19.5603 69.6584 12.8029 77.9916 12.8029C86.3248 12.8029 93.0802 19.5603 93.0802 27.896C93.0802 36.2317 86.3248 42.9891 77.9916 42.9891Z" fill="#D1D4FC"/>
<path d="M77.9916 41.2282C70.6306 41.2282 64.6633 35.2592 64.6633 27.8959C64.6633 20.5327 70.6306 14.5636 77.9916 14.5636C85.3527 14.5636 91.3199 20.5327 91.3199 27.8959C91.3199 35.2592 85.3527 41.2282 77.9916 41.2282Z" fill="white"/>
<path d="M77.7555 15.3577H78.0554C78.2982 15.3577 78.495 15.5546 78.495 15.7974V27.9672C78.495 28.2101 78.2982 28.407 78.0554 28.407H77.7555C77.5127 28.407 77.3158 28.2101 77.3158 27.9672V15.7974C77.3158 15.5546 77.5127 15.3577 77.7555 15.3577Z" fill="#D1D4FC"/>
<path d="M71.641 23.6808L71.8112 23.4338C71.949 23.2338 72.2227 23.1834 72.4227 23.3212L78.364 27.417C78.564 27.5548 78.6144 27.8287 78.4766 28.0287L78.3064 28.2757C78.1686 28.4756 77.8949 28.526 77.6949 28.3882L71.7536 24.2924C71.5536 24.1546 71.5032 23.8808 71.641 23.6808Z" fill="#D1D4FC"/>
<path d="M42 79.6837V93.5219C42.0012 93.9677 42.179 94.3949 42.4945 94.7097C42.8101 95.0246 43.2375 95.2014 43.6832 95.2014H46.7184V98.212C46.7186 98.2869 46.7418 98.3598 46.7848 98.4211C46.8279 98.4823 46.8887 98.5288 46.959 98.5543C47.0294 98.5798 47.1058 98.5831 47.1781 98.5637C47.2503 98.5443 47.3149 98.5032 47.363 98.4459L51.7358 95.2014H64.2102C64.6566 95.2014 65.0848 95.024 65.4004 94.7082C65.7161 94.3925 65.8934 93.9642 65.8934 93.5177V79.6837C65.8934 79.2372 65.7161 78.8089 65.4004 78.4932C65.0848 78.1774 64.6566 78 64.2102 78H43.6841C43.463 77.9999 43.244 78.0434 43.0397 78.1279C42.8354 78.2125 42.6497 78.3365 42.4933 78.4929C42.3369 78.6492 42.2129 78.8349 42.1282 79.0392C42.0436 79.2435 42 79.4625 42 79.6837V79.6837Z" fill="white"/>
<path d="M46.409 81.3302H61.2647C61.5323 81.3302 61.7493 81.5472 61.7493 81.8149V91.0646C61.7493 91.3323 61.5323 91.5493 61.2647 91.5493H46.409C46.1414 91.5493 45.9245 91.3323 45.9245 91.0646V81.8149C45.9245 81.5472 46.1414 81.3302 46.409 81.3302Z" fill="#C6C6C6"/>
<path d="M52.3932 86.0415L55.1039 84.4738C55.1449 84.4502 55.1915 84.4378 55.2388 84.4379C55.2862 84.4379 55.3327 84.4504 55.3737 84.4741C55.4147 84.4978 55.4488 84.5318 55.4725 84.5728C55.4962 84.6138 55.5087 84.6603 55.5088 84.7077V87.8429C55.5087 87.8903 55.4962 87.9368 55.4725 87.9778C55.4488 88.0188 55.4147 88.0529 55.3737 88.0766C55.3327 88.1002 55.2862 88.1127 55.2388 88.1128C55.1915 88.1128 55.1449 88.1004 55.1039 88.0768L52.3932 86.5092C52.3522 86.4854 52.3182 86.4513 52.2945 86.4103C52.2709 86.3692 52.2584 86.3227 52.2584 86.2753C52.2584 86.228 52.2709 86.1814 52.2945 86.1404C52.3182 86.0993 52.3522 86.0652 52.3932 86.0415V86.0415Z" fill="white"/>
</g>
<defs>
<linearGradient id="paint0_linear" x1="17.3491" y1="212.572" x2="264.348" y2="52.573" gradientUnits="userSpaceOnUse">
<stop stop-color="#DFE1FD"/>
<stop offset="0.454" stop-color="#EBECFE"/>
<stop offset="1" stop-color="#F4F5FE"/>
</linearGradient>
<linearGradient id="paint1_linear" x1="164.035" y1="172.792" x2="220.968" y2="172.792" gradientUnits="userSpaceOnUse">
<stop stop-color="#E2E2E6"/>
<stop offset="0.176" stop-color="#EFEFF2"/>
<stop offset="0.331" stop-color="white"/>
</linearGradient>
<linearGradient id="paint2_linear" x1="260.469" y1="162.344" x2="260.669" y2="183.862" gradientUnits="userSpaceOnUse">
<stop offset="0.262" stop-color="#E6E6EA"/>
<stop offset="1" stop-color="white"/>
</linearGradient>
<linearGradient id="paint3_linear" x1="165.206" y1="144.054" x2="226.588" y2="144.054" gradientUnits="userSpaceOnUse">
<stop stop-color="#F2F2F4"/>
<stop offset="0.331" stop-color="white"/>
</linearGradient>
<linearGradient id="paint4_linear" x1="246.776" y1="130.079" x2="247.044" y2="158.859" gradientUnits="userSpaceOnUse">
<stop offset="0.262" stop-color="#F1F1F3"/>
<stop offset="1" stop-color="white"/>
</linearGradient>
<linearGradient id="paint5_linear" x1="165.011" y1="115.032" x2="221.945" y2="115.032" gradientUnits="userSpaceOnUse">
<stop stop-color="#F4F5F6"/>
<stop offset="0.331" stop-color="white"/>
</linearGradient>
<linearGradient id="paint6_linear" x1="244.25" y1="104.729" x2="244.446" y2="125.947" gradientUnits="userSpaceOnUse">
<stop offset="0.257" stop-color="#DADADF"/>
<stop offset="1" stop-color="white"/>
</linearGradient>
<clipPath id="clip0">
<rect width="299.209" height="188.417" fill="white"/>
</clipPath>
<clipPath id="clip1">
<rect width="211" height="176" fill="white" transform="translate(153 9)"/>
</clipPath>
</defs>
</svg>
