<svg width="300" height="189" viewBox="0 0 300 189" fill="none" xmlns="http://www.w3.org/2000/svg">
<g clip-path="url(#clip0)">
<path d="M293.509 129.327C299.009 138.108 301.715 149.06 296.137 157.39C291.337 164.564 281.81 167.438 277 174.608C274.57 178.229 273.291 182.966 269.5 185.115C267.17 186.435 264.355 186.47 261.678 186.47L19.5251 186.494C16.8191 186.494 14.0071 186.472 11.5671 185.3C8.64006 183.895 6.68806 181.04 5.24006 178.133C1.95254 171.268 0.679987 163.611 1.57017 156.051C2.46035 148.492 5.47674 141.34 10.2691 135.426C16.1891 128.346 24.5981 123.342 29.1691 115.326C33.1481 108.342 33.6831 100.009 34.9981 92.079C36.6641 82.031 40.7881 71.788 50.4661 67.463C62.0641 62.278 73.7001 57.9 82.7131 48.49C92.4431 38.325 97.9301 23.858 110.028 16.67C121.628 9.78 136.375 11.445 149.295 15.317C162.215 19.189 174.737 25.074 188.187 26.078C204.678 27.309 221.73 21.118 237.514 26.054C242.92 27.7929 247.852 30.7523 251.931 34.7032C256.009 38.6541 259.124 43.4905 261.033 48.838C266.313 64.016 261.257 81.528 267.464 96.351C272.11 107.451 282.245 115.093 289.919 124.357C291.224 125.933 292.423 127.593 293.509 129.327V129.327Z" fill="url(#paint0_linear)"/>
<path d="M41.823 66.271L40.108 64H43.538L41.823 66.271Z" fill="#E55151"/>
<path d="M38.411 66.271L36.697 64H40.126L38.411 66.271Z" fill="#E55151"/>
<path d="M40.117 72.067L35 66.2469H45.235L40.117 72.067Z" fill="#E55151"/>
<path d="M40.117 72.067L38.411 66.2469H41.841L40.117 72.067Z" fill="#EF6767"/>
<path d="M36.697 64L35 66.247H38.394L36.697 64Z" fill="#EF6767"/>
<path d="M40.108 64L38.411 66.247H41.805L40.108 64Z" fill="#EF6767"/>
<path d="M43.5381 64L41.8411 66.247H45.2351L43.5381 64Z" fill="#EF6767"/>
<g clip-path="url(#clip1)">
<path d="M90.5564 188C111.59 188 128.64 186.691 128.64 185.076C128.64 183.461 111.59 182.152 90.5564 182.152C69.5232 182.152 52.4724 183.461 52.4724 185.076C52.4724 186.691 69.5232 188 90.5564 188Z" fill="#ECEEF4"/>
<path d="M90.4186 30.1649H77.0251V43.3701H90.4186V30.1649Z" fill="white" stroke="#E3E5E8" stroke-miterlimit="10"/>
<path d="M79.381 30.1649H77.0251V32.4877H79.381V30.1649Z" fill="#FFDFD6"/>
<path d="M108.363 30.1649H94.9695V43.3701H108.363V30.1649Z" fill="white" stroke="#E3E5E8" stroke-miterlimit="10"/>
<path d="M97.325 30.1649H94.9695V32.4877H97.325V30.1649Z" fill="#FFDFD6"/>
<path d="M126.307 30.1649H112.914V43.3701H126.307V30.1649Z" fill="#FF5F00"/>
<path d="M144.251 30.1649H130.857V43.3701H144.251V30.1649Z" fill="white" stroke="#E3E5E8" stroke-miterlimit="10"/>
<path d="M90.4081 46.6848H77.0146V59.89H90.4081V46.6848Z" fill="white" stroke="#E3E5E8" stroke-miterlimit="10"/>
<path d="M108.352 46.6848H94.959V59.89H108.352V46.6848Z" fill="white" stroke="#E3E5E8" stroke-miterlimit="10"/>
<path d="M126.296 46.6848H112.903V59.89H126.296V46.6848Z" fill="white" stroke="#E3E5E8" stroke-miterlimit="10"/>
<path d="M144.241 46.6848H130.847V59.89H144.241V46.6848Z" fill="white" stroke="#E3E5E8" stroke-miterlimit="10"/>
<path d="M90.3978 63.2041H77.0044V76.4092H90.3978V63.2041Z" fill="white" stroke="#E3E5E8" stroke-miterlimit="10"/>
<path d="M72.3783 30.1649H58.9849V43.3701H72.3783V30.1649Z" fill="white" stroke="#E3E5E8" stroke-miterlimit="10"/>
<path d="M72.368 46.6848H58.9746V59.89H72.368V46.6848Z" fill="white" stroke="#E3E5E8" stroke-miterlimit="10"/>
<path d="M72.3573 63.2041H58.9639V76.4092H72.3573V63.2041Z" fill="white" stroke="#E3E5E8" stroke-miterlimit="10"/>
<path d="M108.342 63.2041H94.9482V76.4092H108.342V63.2041Z" fill="white" stroke="#E3E5E8" stroke-miterlimit="10"/>
<path d="M126.286 63.2041H112.893V76.4092H126.286V63.2041Z" fill="white" stroke="#E3E5E8" stroke-miterlimit="10"/>
<path d="M144.23 63.2041H130.836V76.4092H144.23V63.2041Z" fill="white" stroke="#E3E5E8" stroke-miterlimit="10"/>
<path d="M61.3404 30.1649H58.9849V32.4877H61.3404V30.1649Z" fill="#FFDFD6"/>
<path d="M133.213 30.1649H130.857V32.4877H133.213V30.1649Z" fill="#FFDFD6"/>
<path d="M79.381 46.6848H77.0251V49.0072H79.381V46.6848Z" fill="#FFDFD6"/>
<path d="M97.325 46.6848H94.9695V49.0072H97.325V46.6848Z" fill="#FFDFD6"/>
<path d="M61.3404 46.6848H58.9849V49.0072H61.3404V46.6848Z" fill="#FFDFD6"/>
<path d="M133.213 46.6848H130.857V49.0072H133.213V46.6848Z" fill="#FFDFD6"/>
<path d="M115.269 46.6848H112.914V49.0072H115.269V46.6848Z" fill="#FFDFD6"/>
<path d="M79.381 63.2041H77.0251V65.5265H79.381V63.2041Z" fill="#FFDFD6"/>
<path d="M97.325 63.2041H94.9695V65.5265H97.325V63.2041Z" fill="#FFDFD6"/>
<path d="M61.3404 63.2041H58.9849V65.5265H61.3404V63.2041Z" fill="#FFDFD6"/>
<path d="M133.213 63.2041H130.857V65.5265H133.213V63.2041Z" fill="#FFDFD6"/>
<path d="M115.269 63.2041H112.914V65.5265H115.269V63.2041Z" fill="#FFDFD6"/>
<path d="M234.894 30.1649H152.835C151.946 30.1649 151.225 30.8753 151.225 31.7517V160.574C151.225 161.451 151.946 162.161 152.835 162.161H234.894C235.782 162.161 236.503 161.451 236.503 160.574V31.7517C236.503 30.8753 235.782 30.1649 234.894 30.1649Z" fill="white" stroke="#E3E5E8" stroke-miterlimit="10"/>
<path d="M166.61 36.7677H155.519V39.2861H166.61V36.7677Z" fill="#DFE2EC"/>
<path d="M181.815 41.1067H170.009V90.9507H181.815V41.1067Z" fill="#ECEEF4"/>
<path d="M197.378 41.1067H185.572V131.903H197.378V41.1067Z" fill="#ECEEF4"/>
<path d="M197.378 41.1067H185.572V110.385H197.378V41.1067Z" fill="#FF5F00"/>
<path d="M212.941 41.1067H201.135V99.6737H212.941V41.1067Z" fill="#ECEEF4"/>
<path d="M212.941 41.1067H201.135V56.6141H212.941V41.1067Z" fill="#FF5F00"/>
<path d="M228.504 41.1067H216.698V79.9218H228.504V41.1067Z" fill="#ECEEF4"/>
<path d="M228.504 41.1067H216.698V68.1857H228.504V41.1067Z" fill="#FF5F00"/>
<path d="M181.815 41.1067H170.009V68.7211H181.815V41.1067Z" fill="#FF5F00"/>
<path d="M166.61 43.3829H155.519V45.9013H166.61V43.3829Z" fill="#DFE2EC"/>
<path d="M166.61 49.9987H155.519V52.517H166.61V49.9987Z" fill="#DFE2EC"/>
<path d="M166.61 56.6141H155.519V59.1325H166.61V56.6141Z" fill="#DFE2EC"/>
<path d="M166.61 63.2295H155.519V65.7479H166.61V63.2295Z" fill="#DFE2EC"/>
<path d="M166.61 69.8451H155.519V72.3635H166.61V69.8451Z" fill="#DFE2EC"/>
<path d="M166.61 76.4607H155.519V78.9791H166.61V76.4607Z" fill="#DFE2EC"/>
<path d="M166.61 83.0763H155.519V85.5947H166.61V83.0763Z" fill="#DFE2EC"/>
<path d="M166.61 89.6915H155.519V92.2099H166.61V89.6915Z" fill="#DFE2EC"/>
<path d="M166.61 96.3071H155.519V98.8255H166.61V96.3071Z" fill="#DFE2EC"/>
<path d="M166.61 102.923H155.519V105.441H166.61V102.923Z" fill="#DFE2EC"/>
<path d="M166.61 109.538H155.519V112.057H166.61V109.538Z" fill="#DFE2EC"/>
<path d="M166.61 116.154H155.519V118.672H166.61V116.154Z" fill="#DFE2EC"/>
<path d="M166.61 122.769H155.519V125.288H166.61V122.769Z" fill="#DFE2EC"/>
<path d="M166.61 129.385H155.519V131.903H166.61V129.385Z" fill="#DFE2EC"/>
<path d="M166.61 136H155.519V138.519H166.61V136Z" fill="#DFE2EC"/>
<path d="M166.61 142.616H155.519V145.134H166.61V142.616Z" fill="#DFE2EC"/>
<path d="M166.61 149.231H155.519V151.75H166.61V149.231Z" fill="#DFE2EC"/>
<path d="M166.61 155.847H155.519V158.365H166.61V155.847Z" fill="#DFE2EC"/>
<path d="M143.249 114.178H59.475C58.9216 114.178 58.4729 114.621 58.4729 115.166V159.434C58.4729 159.98 58.9216 160.423 59.475 160.423H143.249C143.802 160.423 144.251 159.98 144.251 159.434V115.166C144.251 114.621 143.802 114.178 143.249 114.178Z" fill="white" stroke="#E3E5E8" stroke-miterlimit="10"/>
<path d="M139.024 120.781H93.3557V123.299H139.024V120.781Z" fill="#F3F4F9"/>
<path d="M139.024 128.215H93.3557V130.733H139.024V128.215Z" fill="#F3F4F9"/>
<path d="M139.024 135.648H93.3557V138.167H139.024V135.648Z" fill="#F3F4F9"/>
<path d="M139.024 143.083H66.9219V145.601H139.024V143.083Z" fill="#F3F4F9"/>
<path d="M139.024 150.516H66.9219V153.035H139.024V150.516Z" fill="#F3F4F9"/>
<path d="M78.9965 140.175C84.8326 140.175 89.5637 135.51 89.5637 129.756C89.5637 124.002 84.8326 119.337 78.9965 119.337C73.1605 119.337 68.4294 124.002 68.4294 129.756C68.4294 135.51 73.1605 140.175 78.9965 140.175Z" fill="#B2B8FA"/>
<path d="M206.045 180.247L202.373 181.857L196.502 183.339C196.134 183.42 195.805 183.623 195.569 183.913C195.334 184.203 195.206 184.564 195.206 184.936V184.936L212.34 184.864L211.92 181.902L209.472 180.247H206.045V180.247Z" fill="#FFCEBD"/>
<path d="M204.354 183.162L202.373 181.857L196.622 182.815C195.864 182.983 195.205 184.17 195.205 184.936L212.34 184.863L211.92 181.902L210.521 183.108L208.079 183.088C206.951 183.298 205.363 183.705 204.354 183.162Z" fill="#4D5068"/>
<path d="M211.212 181.902L206.045 180.613V173.589H211.212V181.902Z" fill="#FFCEBD"/>
<path d="M247.679 160.877C247.679 160.877 214.947 149.21 211.135 150.655C211.135 150.655 206.254 150.65 205.216 158.313L205.405 174.854H211.821L213.513 162.226C213.575 162.037 213.678 161.864 213.816 161.719C213.954 161.575 214.123 161.462 214.311 161.389C214.498 161.316 214.7 161.285 214.901 161.299C215.102 161.312 215.297 161.369 215.473 161.466L235.255 172.332L247.679 160.877Z" fill="#536DFE"/>
<path d="M230.173 163.836L210.382 175.857C209.804 176.209 209.327 176.7 208.996 177.284C208.665 177.868 208.491 178.526 208.491 179.196V180.35C208.491 181.566 208.981 182.733 209.853 183.593C210.726 184.453 211.909 184.936 213.142 184.936L240.032 183.625V175.903C240.032 175.903 248.274 172.739 247.865 165.973L230.173 163.836Z" fill="#536DFE"/>
<path d="M241.479 175.216L255 184.936L240.034 183.625V175.903L241.479 175.216Z" fill="#FFCEBD"/>
<path d="M241.479 175.216L240.034 175.903V179.212C240.479 179.001 240.97 178.9 241.464 178.92C241.957 178.939 242.438 179.078 242.865 179.323L249.52 184.324C250.047 184.721 250.692 184.935 251.355 184.935H255.002L241.479 175.216Z" fill="#4D5068"/>
<path d="M230.276 119.202C230.276 119.202 231.34 125.258 228.879 128.844L237.587 128.049L234.107 117.131L230.276 119.202Z" fill="#FFCEBD"/>
<path d="M235.018 118.892C234.867 118.203 234.616 117.539 234.272 116.92C233.323 114.996 232.305 112.99 230.539 111.745C229.763 111.197 228.866 110.816 228.16 110.183L227.647 110.491L226.702 110.652C226.234 110.734 225.794 110.929 225.422 111.221C225.05 111.513 224.758 111.892 224.572 112.323C224.398 112.759 224.357 113.236 224.453 113.695C224.549 114.154 224.779 114.576 225.113 114.909C225.564 115.261 226.057 115.556 226.581 115.787C227.661 116.382 228.543 117.273 229.119 118.353C229.301 118.749 229.511 119.133 229.746 119.5C230.538 120.589 231.997 120.932 233.327 121.197C233.574 121.268 233.836 121.275 234.087 121.218C234.271 121.152 234.433 121.037 234.555 120.886C234.773 120.605 234.927 120.282 235.007 119.938C235.086 119.594 235.09 119.238 235.018 118.892V118.892Z" fill="#393939"/>
<path d="M234.763 115.373C233.787 114.287 232.745 113.26 231.644 112.297C231.346 111.983 230.97 111.752 230.553 111.626C230.136 111.501 229.693 111.486 229.268 111.583C228.987 111.616 228.702 111.616 228.421 111.583C227.987 111.541 227.55 111.597 227.142 111.745C226.734 111.894 226.365 112.132 226.063 112.441V112.441C225.771 112.748 225.587 113.141 225.54 113.559C225.492 113.978 225.584 114.401 225.8 114.764C226.391 115.84 225.138 117.368 225.313 118.566C225.347 118.801 226.359 118.812 226.395 119.046C226.478 119.877 226.683 120.692 227.004 121.466C227.167 121.852 227.412 122.199 227.723 122.483C228.034 122.768 228.403 122.983 228.806 123.115C229.726 123.361 230.698 122.995 231.533 122.542C232.711 121.903 233.777 121.083 234.691 120.112C235.459 119.296 236.151 118.225 235.907 117.139C235.753 116.447 235.249 115.893 234.763 115.373Z" fill="#FFCEBD"/>
<path d="M241.348 130.795C239.532 136.321 249.685 166.043 249.685 166.043C245.349 171.697 234.888 163.766 228.145 165.215C228.145 165.215 228.216 152.735 225.663 147.15L222.227 141.63C221.847 141.019 221.659 140.31 221.688 139.594C221.717 138.878 221.962 138.187 222.39 137.608L228.879 128.843L238.173 125.365C238.553 125.223 238.969 125.201 239.362 125.302C239.755 125.404 240.107 125.623 240.368 125.931V125.931C240.935 126.594 241.322 127.388 241.494 128.239C241.665 129.089 241.615 129.969 241.348 130.795V130.795Z" fill="#4D5068"/>
<path d="M243.048 132.675C243.211 128.568 241.717 124.557 241.608 120.449C241.523 117.259 242.184 113.719 240.265 111.152C238.681 109.032 235.788 108.302 233.118 108.253C231.811 108.186 230.504 108.378 229.274 108.818C228.52 109.13 227.835 109.583 227.257 110.153C226.945 110.457 226.601 110.738 226.752 111.146C226.888 111.512 227.534 111.839 227.874 111.969C228.356 112.151 228.882 112.188 229.378 112.328C230.557 112.663 230.637 113.518 230.794 114.575C230.979 115.813 231.088 117.061 231.121 118.312C231.118 118.802 231.154 119.293 231.228 119.778C231.272 120.02 231.345 120.256 231.445 120.482C231.822 121.31 232.606 121.873 233.317 122.45C233.891 122.916 234.617 123.543 234.787 124.298C234.984 125.174 234.64 126.123 234.881 127.038C235.269 128.513 236.609 129.514 237.587 130.695C239.042 132.453 239.739 134.726 239.946 136.986C240.153 139.246 242.039 142.048 242.412 143.777C244.027 140.227 242.894 136.561 243.048 132.675Z" fill="#393939"/>
<path d="M195.369 124.661L199.202 129.506C199.302 129.632 199.379 129.773 199.432 129.923L200.926 134.161L215.088 142.54L232.697 135.023C233.452 134.7 234.302 134.662 235.085 134.916C235.867 135.169 236.528 135.697 236.943 136.399V136.399C237.187 136.812 237.337 137.272 237.384 137.748C237.431 138.224 237.372 138.705 237.213 139.157C237.054 139.608 236.798 140.021 236.462 140.366C236.126 140.711 235.719 140.98 235.268 141.156L216.413 148.479C216.041 148.624 215.638 148.67 215.242 148.615C214.847 148.559 214.473 148.403 214.157 148.162L198.933 136.541H198.817C198.409 136.541 198.013 136.408 197.689 136.163C197.366 135.918 197.134 135.574 197.029 135.185L196.52 133.3C196.14 132.651 195.989 131.896 196.09 131.153C196.257 130.328 196.783 128.686 196.786 128.552L194.212 124.956L194.429 124.567C194.496 124.51 194.574 124.468 194.659 124.442C194.743 124.416 194.832 124.407 194.92 124.416C195.007 124.424 195.093 124.451 195.17 124.493C195.247 124.535 195.315 124.592 195.369 124.661V124.661Z" fill="#FFCEBD"/>
<path d="M237.923 135.727C237.478 134.974 236.768 134.408 235.928 134.136C235.088 133.864 234.177 133.905 233.365 134.251L223.695 137.536C222.788 139.494 227.318 142.421 226.947 145.529L236.126 140.833C236.61 140.645 237.048 140.356 237.408 139.985C237.768 139.615 238.043 139.172 238.213 138.687C238.384 138.202 238.446 137.687 238.396 137.176C238.346 136.665 238.184 136.171 237.923 135.727V135.727Z" fill="#4D5068"/>
<path d="M143.165 79.9222H60.0285C59.4405 79.9222 58.9639 80.3922 58.9639 80.9719V108.448C58.9639 109.028 59.4405 109.498 60.0285 109.498H143.165C143.753 109.498 144.23 109.028 144.23 108.448V80.9719C144.23 80.3922 143.753 79.9222 143.165 79.9222Z" fill="white" stroke="#E3E5E8" stroke-miterlimit="10"/>
<path d="M86.3408 83.1317H62.2966V106.288H86.3408V83.1317Z" fill="#F3F4F9"/>
<path d="M140.588 86.2943H89.6255V90.1821H140.588V86.2943Z" fill="#F3F4F9"/>
<path d="M140.684 92.8459H89.7214V96.7337H140.684V92.8459Z" fill="#F3F4F9"/>
<path d="M117.254 99.3976H89.8174V103.285H117.254V99.3976Z" fill="#F3F4F9"/>
<path d="M144.144 185.221C142.456 185.221 140.806 184.727 139.402 183.803C137.999 182.878 136.905 181.564 136.259 180.026C135.613 178.489 135.444 176.797 135.773 175.165C136.102 173.532 136.915 172.033 138.109 170.856C139.302 169.679 140.823 168.878 142.479 168.553C144.134 168.229 145.85 168.395 147.41 169.032C148.969 169.669 150.302 170.748 151.24 172.131C152.178 173.515 152.678 175.142 152.678 176.806C152.675 179.037 151.775 181.176 150.176 182.753C148.576 184.331 146.406 185.218 144.144 185.221V185.221ZM144.144 169.869C142.752 169.869 141.391 170.275 140.234 171.038C139.077 171.8 138.175 172.884 137.643 174.151C137.11 175.419 136.971 176.814 137.242 178.16C137.514 179.505 138.184 180.741 139.168 181.712C140.152 182.682 141.406 183.343 142.771 183.61C144.136 183.878 145.551 183.741 146.836 183.216C148.122 182.691 149.221 181.801 149.994 180.66C150.767 179.52 151.18 178.178 151.18 176.806C151.178 174.967 150.436 173.204 149.117 171.903C147.798 170.602 146.009 169.871 144.144 169.869V169.869Z" fill="#E6E7E8"/>
<path d="M162.728 185.221C161.04 185.221 159.39 184.727 157.987 183.803C156.583 182.878 155.489 181.564 154.843 180.026C154.197 178.489 154.028 176.797 154.357 175.165C154.687 173.532 155.499 172.033 156.693 170.856C157.886 169.679 159.407 168.878 161.063 168.553C162.718 168.229 164.434 168.395 165.994 169.032C167.553 169.669 168.886 170.747 169.824 172.131C170.762 173.515 171.262 175.142 171.262 176.806C171.26 179.037 170.36 181.176 168.76 182.753C167.16 184.331 164.991 185.218 162.728 185.221V185.221ZM162.728 169.869C161.336 169.869 159.976 170.275 158.819 171.038C157.662 171.8 156.76 172.884 156.227 174.151C155.695 175.419 155.555 176.814 155.827 178.16C156.098 179.505 156.769 180.741 157.753 181.712C158.737 182.682 159.99 183.343 161.355 183.61C162.72 183.878 164.135 183.741 165.421 183.216C166.707 182.691 167.806 181.801 168.579 180.66C169.352 179.52 169.765 178.178 169.765 176.806C169.762 174.967 169.02 173.204 167.701 171.903C166.382 170.602 164.594 169.871 162.728 169.869V169.869Z" fill="#E6E7E8"/>
<path d="M181.312 185.221C179.624 185.221 177.974 184.727 176.571 183.803C175.167 182.878 174.073 181.564 173.427 180.026C172.781 178.489 172.612 176.797 172.942 175.165C173.271 173.532 174.084 172.033 175.277 170.856C176.471 169.679 177.992 168.878 179.647 168.553C181.303 168.229 183.019 168.395 184.578 169.032C186.137 169.669 187.47 170.748 188.408 172.131C189.346 173.515 189.846 175.142 189.846 176.806C189.844 179.037 188.944 181.176 187.344 182.753C185.744 184.331 183.575 185.218 181.312 185.221V185.221ZM181.312 169.869C179.92 169.869 178.56 170.275 177.403 171.038C176.246 171.8 175.344 172.884 174.811 174.151C174.279 175.419 174.139 176.814 174.411 178.16C174.682 179.505 175.352 180.741 176.336 181.712C177.321 182.682 178.574 183.343 179.939 183.61C181.304 183.878 182.719 183.741 184.005 183.216C185.291 182.691 186.389 181.801 187.163 180.66C187.936 179.52 188.349 178.178 188.349 176.806C188.346 174.967 187.604 173.204 186.285 171.903C184.966 170.602 183.178 169.871 181.312 169.869V169.869Z" fill="#E6E7E8"/>
<path d="M144.144 185.221C142.175 185.22 140.267 184.548 138.743 183.318C137.219 182.089 136.173 180.378 135.782 178.476C135.391 176.573 135.68 174.596 136.598 172.879C137.517 171.162 139.009 169.81 140.822 169.054C141.874 168.619 143.004 168.395 144.144 168.395C145.285 168.395 146.414 168.619 147.466 169.054C148.48 169.476 149.401 170.089 150.178 170.857L149.119 171.901C147.967 170.764 146.45 170.056 144.827 169.898C143.205 169.739 141.577 170.141 140.221 171.034C138.865 171.926 137.865 173.255 137.392 174.793C136.918 176.332 137.001 177.984 137.625 179.469C138.249 180.954 139.376 182.18 140.814 182.938C142.252 183.695 143.912 183.938 145.511 183.624C147.11 183.309 148.549 182.458 149.583 181.215C150.616 179.972 151.181 178.414 151.18 176.806H152.678C152.679 177.912 152.459 179.006 152.03 180.027C151.601 181.049 150.973 181.976 150.18 182.758C149.387 183.539 148.446 184.159 147.41 184.582C146.375 185.004 145.264 185.221 144.144 185.221V185.221Z" fill="#393939"/>
<path d="M162.728 185.221C161.603 185.228 160.487 185.015 159.446 184.595C158.404 184.176 157.457 183.557 156.659 182.775C155.861 181.993 155.227 181.063 154.795 180.039C154.363 179.014 154.14 177.916 154.14 176.806C154.14 175.697 154.363 174.598 154.795 173.574C155.227 172.55 155.861 171.62 156.659 170.838C157.457 170.056 158.404 169.437 159.446 169.017C160.487 168.598 161.603 168.385 162.728 168.392V169.869C161.105 169.87 159.532 170.425 158.276 171.438C157.02 172.452 156.157 173.862 155.835 175.431C155.513 176.999 155.75 178.629 156.507 180.045C157.264 181.461 158.494 182.575 159.989 183.199C160.856 183.557 161.787 183.742 162.728 183.742C163.668 183.742 164.599 183.557 165.466 183.199C166.741 182.669 167.829 181.779 168.594 180.642C169.358 179.505 169.766 178.171 169.764 176.807H171.262C171.263 177.912 171.043 179.006 170.614 180.027C170.185 181.048 169.557 181.976 168.764 182.758C167.971 183.539 167.03 184.159 165.995 184.581C164.959 185.004 163.849 185.221 162.728 185.221V185.221Z" fill="#3D3D72"/>
<path d="M184.635 184.559L184.051 183.199C185.113 182.756 186.047 182.063 186.774 181.18C187.5 180.298 187.995 179.253 188.215 178.137C188.436 177.022 188.375 175.87 188.038 174.783C187.702 173.696 187.099 172.708 186.284 171.904C185.469 171.101 184.467 170.507 183.364 170.175C182.262 169.843 181.094 169.783 179.962 170C178.831 170.218 177.771 170.706 176.876 171.422C175.981 172.138 175.278 173.059 174.829 174.106L173.449 173.531C174.317 171.514 175.945 169.909 177.991 169.054C179.043 168.62 180.172 168.396 181.313 168.396C182.454 168.396 183.583 168.62 184.635 169.054C186.18 169.699 187.497 170.778 188.424 172.157C189.35 173.536 189.844 175.153 189.844 176.807C189.844 178.461 189.35 180.078 188.424 181.456C187.497 182.835 186.179 183.914 184.635 184.559V184.559Z" fill="#0C5A71"/>
<path d="M53.3132 94.8798H46.6321C45.8231 94.8798 45.1672 95.5264 45.1672 96.324V124.544C45.1672 125.341 45.8231 125.988 46.6321 125.988H53.3132C54.1222 125.988 54.7781 125.341 54.7781 124.544V96.324C54.7781 95.5264 54.1222 94.8798 53.3132 94.8798Z" fill="white" stroke="#E3E5E8" stroke-miterlimit="10"/>
<path d="M92.7009 52.1884C92.8016 51.7559 92.9984 51.3509 93.277 51.0023C93.5555 50.6538 93.909 50.3705 94.312 50.1728L93.2125 49.2821C93.6946 49.2883 94.174 49.3554 94.6389 49.4817C95.093 49.642 95.5333 49.838 95.9555 50.0679C96.6053 50.3843 96.9519 50.4351 97.2771 51.1117L98.3053 53.25C98.4644 53.5602 98.5994 53.8817 98.7092 54.212C98.8577 54.6999 99.4339 55.2129 99.4704 55.7212C99.5005 56.1441 98.9919 56.5667 99.022 56.9896C99.0602 57.3665 99.0646 57.7459 99.0354 58.1235C98.9665 58.5972 98.8444 59.0619 98.6714 59.509C98.393 60.3163 98.1176 61.4758 97.3899 61.9984C96.618 62.5526 95.7798 63.0368 94.7948 63.0411C94.5793 63.0559 94.3643 63.0064 94.1778 62.899C94.0113 62.7663 93.8835 62.5925 93.8074 62.3952C92.6965 60.0622 92.5965 57.403 92.5162 54.8269C92.444 53.9432 92.5062 53.0539 92.7009 52.1884V52.1884Z" fill="#FFCEBD"/>
<path d="M113.98 68.7211L118.229 62.9747C118.575 62.507 118.806 61.9662 118.902 61.3952L121.598 45.4615H117.858L113.756 58.5941C113.465 59.5235 112.913 60.3525 112.164 60.9848L108.814 63.8117L113.98 68.7211Z" fill="#FFCEBD"/>
<path d="M69.0635 81.6113L64.7643 87.5635C64.2726 88.2444 63.9911 89.0509 63.9537 89.886C63.9164 90.721 64.1248 91.5489 64.5539 92.2697L76.9261 113.055L79.3181 110.196L71.3214 93.1631C70.9729 92.4209 70.846 91.5963 70.9555 90.7856C71.0651 89.9749 71.4066 89.2118 71.94 88.5855L75.647 84.2339L69.0635 81.6113Z" fill="#FFCEBD"/>
<path d="M78.8694 109.24L80.8378 113.056V117.388L76.1956 120.11C75.8702 119.648 75.7282 119.085 75.7966 118.526C75.865 117.968 76.1391 117.454 76.5667 117.082L76.913 116.78L76.9264 113.055L78.8694 109.24Z" fill="#FFCEBD"/>
<path d="M81.1702 178.182H76.1904V182.291H81.1702V178.182Z" fill="#FFCEBD"/>
<path d="M77.2031 181.011H81.2544L82.0139 183.258V184.34C82.0139 184.627 81.8983 184.902 81.6926 185.105C81.4868 185.308 81.2078 185.422 80.9168 185.422H76.6969L72.2234 183.757V182.996C72.2234 182.382 72.3713 181.776 72.6548 181.229C72.9384 180.681 73.3495 180.208 73.8545 179.848L76.1903 178.182V180.845L77.2031 181.011Z" fill="#1A1A47"/>
<path d="M80.9169 183.924H76.697L72.3092 182.291C72.2588 182.523 72.2303 182.759 72.2239 182.996V183.757L76.6974 185.422H80.9176C81.2086 185.422 81.4876 185.308 81.6934 185.105C81.8991 184.902 82.0147 184.627 82.0147 184.34V183.258L81.9619 183.101C81.9064 183.334 81.7733 183.542 81.5838 183.691C81.3943 183.84 81.1594 183.922 80.9169 183.924V183.924Z" fill="#878787"/>
<path d="M102.106 182.291H107.086V178.182H102.106V182.291Z" fill="#FFCEBD"/>
<path d="M104.929 112.979C104.929 112.979 105.992 120.123 106.82 127.025C106.999 128.521 107.088 130.027 107.088 131.534V179.264H102.108C102.108 179.264 98.2602 162.637 97.4837 151.553C97.2484 148.615 96.7905 145.698 96.1138 142.827L90.8828 119.61V113.929L104.929 112.979Z" fill="#4D5068"/>
<path d="M78.3085 114.803C78.3085 114.803 77.1913 120.966 76.3565 127.929C76.2502 128.808 76.1965 129.692 76.1956 130.577V179.264L81.1699 179.351C81.1699 179.351 85.43 163.384 85.9546 151.2C86.0778 149.265 86.3652 147.344 86.8139 145.456L92.3995 126.707V113.929L78.3085 114.803Z" fill="#4D5068"/>
<path d="M106.073 181.011H102.022L101.263 183.258V184.34C101.263 184.627 101.378 184.902 101.584 185.105C101.79 185.308 102.069 185.422 102.36 185.422H106.58L111.053 183.757V182.996C111.053 182.382 110.905 181.776 110.622 181.229C110.338 180.681 109.927 180.208 109.422 179.848L107.086 178.182V180.845L106.073 181.011Z" fill="#1A1A47"/>
<path d="M102.36 183.924H106.58L110.968 182.291C111.018 182.523 111.047 182.759 111.053 182.996V183.757L106.58 185.422H102.36C102.069 185.422 101.79 185.308 101.584 185.105C101.378 184.902 101.263 184.627 101.263 184.34V183.258L101.316 183.101C101.371 183.334 101.504 183.541 101.693 183.691C101.883 183.84 102.117 183.922 102.36 183.924Z" fill="#878787"/>
<path d="M86.9991 67.1733L81.4231 68.8818C79.3848 69.5064 77.5555 70.6625 76.1288 72.2279L67.4963 81.7006L75.7805 86.4791L78.7283 82.2351C78.7283 82.2351 79.3192 107.699 77.9253 116.52C77.9253 116.52 94.9319 123.343 106.157 116.52C106.157 116.52 101.938 94.0514 105.398 82.9008L114.26 69.0038L108.813 63.5118L100.335 67.8383L98.3939 67.1726H86.9991V67.1733Z" fill="#536DFE"/>
<path d="M121.934 44.4472L122.559 41.5538C122.602 41.3518 122.589 41.1419 122.519 40.947C122.45 40.7521 122.328 40.5797 122.166 40.4486L120.652 39.2218H119.499C119.499 39.2218 120.096 36.0974 119.863 34.249H119.499L117.489 40.8838V44.7003L118.151 46.0858H121.336L121.934 44.4472Z" fill="#FFCEBD"/>
<path d="M98.3939 67.1733C98.3939 67.1733 96.0307 65.4249 96.0307 62.7627H88.8557C88.8557 62.7627 88.7152 66.4245 86.999 67.1733H98.3939Z" fill="#FFCEBD"/>
<path d="M85.6828 56.3017C85.8002 55.5297 85.5928 54.7512 85.5258 53.9723C85.4175 52.8685 85.6323 51.7572 86.1448 50.7701C86.528 49.9538 87.0654 49.2169 87.7285 48.5991C89.0575 47.4577 90.9426 47.2053 92.7049 47.2261C93.2427 47.2062 93.7794 47.2869 94.2868 47.4639C94.6773 47.6226 95.0229 47.8836 95.4261 48.0079C95.6938 48.0907 95.9768 48.1099 96.2495 48.1729C96.6191 48.272 96.9731 48.4208 97.3015 48.6153C97.662 48.7887 97.9788 49.0391 98.229 49.3483C98.3595 49.513 98.437 49.7125 98.4515 49.921C98.466 50.1296 98.4168 50.3377 98.3103 50.5184C98.0667 50.8753 97.7639 50.8061 97.4039 50.9192C96.6949 51.1419 95.5807 51.7439 95.4351 52.5357C95.324 53.1397 95.746 53.7005 96.1428 54.1736C96.5396 54.6466 96.9615 55.2068 96.8515 55.8111C96.8407 55.9085 96.7949 55.9989 96.7223 56.0658C96.5707 56.1846 96.3479 56.1011 96.1565 56.1318C96.0377 56.1611 95.9304 56.2243 95.848 56.3136C95.7656 56.4029 95.7118 56.5142 95.6934 56.6336C95.5241 57.4632 95.7229 58.2932 95.6245 59.1124C95.5188 59.9915 95.0222 60.8294 94.613 61.6037C94.3808 62.1097 94.0626 62.5729 93.6722 62.9734C93.2899 63.2952 92.8507 63.5447 92.3766 63.7094C91.0735 64.2191 89.6879 64.4934 88.2862 64.5192C85.7768 64.5644 86.3205 62.3037 85.5382 60.7018C85.3242 60.354 85.1386 59.9899 84.9831 59.6131C84.6516 58.5162 85.5105 57.4345 85.6828 56.3017Z" fill="#8C4200"/>
<path d="M126.56 164.202V174.461L126.565 174.467L133.908 181.726C134.875 180.777 135.642 179.65 136.167 178.409C136.691 177.167 136.962 175.836 136.964 174.491C136.964 174.481 136.964 174.471 136.964 174.461C136.964 171.74 135.868 169.131 133.917 167.207C131.966 165.283 129.319 164.202 126.56 164.202V164.202Z" fill="#B2B8FA"/>
<path d="M118.707 167.198C117.738 168.147 116.97 169.276 116.445 170.519C115.92 171.763 115.65 173.096 115.649 174.443L126.055 174.467V164.202C124.691 164.2 123.339 164.464 122.078 164.978C120.817 165.492 119.671 166.246 118.707 167.198V167.198Z" fill="#536DFE"/>
<path d="M126.059 174.966H126.054L115.648 174.941C115.648 174.948 115.648 174.954 115.648 174.96C115.648 176.989 116.257 178.971 117.4 180.658C118.542 182.345 120.166 183.66 122.066 184.437C123.965 185.215 126.057 185.419 128.074 185.026C130.092 184.632 131.947 183.657 133.403 182.225L126.059 174.966Z" fill="#B2B8FA"/>
<path d="M46.7515 98.7222V122.042C46.7515 122.702 47.1911 123.236 47.7332 123.236H52.212C52.7544 123.236 53.1937 122.701 53.1937 122.042V98.7222C53.1937 98.0624 52.7541 97.5287 52.212 97.5287H47.7335C47.1911 97.5284 46.7515 98.0631 46.7515 98.7222Z" fill="#F3F4F9"/>
<path d="M237.48 72.96C241.059 72.96 243.96 70.0588 243.96 66.48C243.96 62.9012 241.059 60 237.48 60C233.901 60 231 62.9012 231 66.48C231 70.0588 233.901 72.96 237.48 72.96Z" fill="#5F4DEE"/>
<path d="M236.623 69.106L234.372 66.855L235.658 65.569L236.623 66.534L239.301 63.854L240.587 65.14L236.623 69.106Z" fill="white"/>
</g>
<path d="M43.554 147.083H44.629C44.7333 147.083 44.8333 147.041 44.907 146.967C44.9806 146.893 45.022 146.793 45.022 146.689V145.318C45.0217 145.214 44.9801 145.114 44.9062 145.04C44.8324 144.966 44.7323 144.925 44.628 144.925H43.79C43.7223 144.924 43.6565 144.903 43.6014 144.863C43.5464 144.824 43.5047 144.769 43.482 144.705C43.452 144.626 43.4187 144.549 43.382 144.473C43.352 144.411 43.3422 144.341 43.3538 144.273C43.3655 144.205 43.398 144.143 43.447 144.094L44.041 143.499C44.1148 143.425 44.1563 143.325 44.1563 143.221C44.1563 143.116 44.1148 143.016 44.041 142.942L43.071 141.973C42.9971 141.899 42.8969 141.858 42.7925 141.858C42.6881 141.858 42.5879 141.899 42.514 141.973L41.914 142.573C41.868 142.619 41.8091 142.65 41.7451 142.663C41.6811 142.675 41.6149 142.668 41.555 142.642C41.469 142.605 41.377 142.568 41.298 142.542C41.2376 142.518 41.1856 142.477 41.1489 142.424C41.1122 142.37 41.0923 142.307 41.092 142.242V141.394C41.092 141.342 41.0818 141.291 41.062 141.243C41.0422 141.195 41.0132 141.152 40.9766 141.115C40.94 141.079 40.8966 141.05 40.8488 141.03C40.801 141.01 40.7497 141 40.698 141H39.328C39.2763 141 39.225 141.01 39.1772 141.03C39.1294 141.05 39.086 141.079 39.0494 141.115C39.0128 141.152 38.9838 141.195 38.964 141.243C38.9442 141.291 38.934 141.342 38.934 141.394V142.235C38.9332 142.303 38.9117 142.368 38.8724 142.424C38.833 142.479 38.7778 142.52 38.714 142.543C38.632 142.574 38.5507 142.607 38.47 142.643C38.409 142.673 38.3404 142.683 38.2735 142.672C38.2066 142.661 38.1446 142.63 38.096 142.583L37.496 141.99C37.4221 141.916 37.3219 141.875 37.2175 141.875C37.1131 141.875 37.0129 141.916 36.939 141.99L35.973 142.962C35.8992 143.036 35.8577 143.136 35.8577 143.241C35.8577 143.345 35.8992 143.445 35.973 143.519L36.573 144.119C36.6193 144.165 36.6508 144.224 36.6633 144.288C36.6758 144.352 36.6687 144.418 36.643 144.478C36.607 144.564 36.57 144.656 36.543 144.736C36.5195 144.797 36.4784 144.849 36.4249 144.886C36.3714 144.923 36.308 144.943 36.243 144.943H35.393C35.3413 144.943 35.29 144.953 35.2423 144.973C35.1945 144.993 35.1512 145.022 35.1147 145.059C35.0782 145.096 35.0493 145.139 35.0296 145.187C35.0099 145.235 34.9999 145.286 35 145.338V146.709C35.0001 146.761 35.0105 146.812 35.0304 146.86C35.0503 146.907 35.0794 146.951 35.1161 146.987C35.1528 147.024 35.1963 147.053 35.2441 147.072C35.292 147.092 35.3433 147.102 35.395 147.102H36.236C36.3036 147.103 36.3694 147.124 36.4244 147.164C36.4795 147.203 36.5212 147.258 36.544 147.322C36.574 147.401 36.6073 147.478 36.644 147.554C36.6733 147.615 36.6832 147.684 36.6723 147.751C36.6614 147.817 36.6302 147.879 36.583 147.928L35.989 148.528C35.9152 148.602 35.8737 148.702 35.8737 148.807C35.8737 148.911 35.9152 149.011 35.989 149.085L36.96 150.052C37.0339 150.126 37.134 150.167 37.2385 150.167C37.3429 150.167 37.4431 150.126 37.517 150.052L38.117 149.452C38.163 149.406 38.2219 149.375 38.2859 149.362C38.3499 149.35 38.4161 149.357 38.476 149.383C38.561 149.419 38.654 149.456 38.733 149.483C38.7936 149.506 38.8458 149.548 38.8827 149.601C38.9196 149.655 38.9396 149.718 38.94 149.783V150.633C38.9401 150.685 38.9504 150.736 38.9704 150.784C38.9903 150.831 39.0194 150.875 39.0561 150.911C39.0928 150.948 39.1363 150.977 39.1841 150.996C39.232 151.016 39.2833 151.026 39.335 151.026H40.705C40.8093 151.026 40.9093 150.984 40.9829 150.91C41.0566 150.836 41.098 150.736 41.098 150.632V149.782C41.0988 149.714 41.1203 149.649 41.1596 149.593C41.199 149.538 41.2542 149.497 41.318 149.474C41.3967 149.445 41.474 149.411 41.55 149.374C41.6111 149.345 41.6797 149.335 41.7466 149.346C41.8135 149.357 41.8754 149.388 41.924 149.435L42.524 150.029C42.5979 150.103 42.6981 150.144 42.8025 150.144C42.9069 150.144 43.0071 150.103 43.081 150.029L44.049 149.059C44.1228 148.985 44.1643 148.885 44.1643 148.781C44.1643 148.676 44.1228 148.576 44.049 148.502L43.449 147.902C43.4029 147.856 43.3717 147.797 43.3594 147.733C43.3471 147.669 43.3543 147.603 43.38 147.543C43.464 147.342 43.554 147.094 43.554 147.083ZM38.104 145.657C38.1758 145.264 38.3673 144.902 38.6522 144.622C38.9371 144.342 39.3015 144.156 39.6958 144.09C40.0901 144.025 40.4951 144.083 40.8553 144.256C41.2156 144.429 41.5137 144.709 41.709 145.058C41.9042 145.406 41.987 145.807 41.9462 146.205C41.9054 146.602 41.7428 146.977 41.4807 147.279C41.2187 147.581 40.8699 147.795 40.4819 147.891C40.0939 147.987 39.6857 147.961 39.313 147.817C38.8917 147.654 38.5404 147.349 38.3198 146.955C38.0991 146.56 38.0228 146.101 38.104 145.657Z" fill="#5F4DEE"/>
</g>
<defs>
<linearGradient id="paint0_linear" x1="17.3491" y1="212.572" x2="264.348" y2="52.573" gradientUnits="userSpaceOnUse">
<stop stop-color="#DFE1FD"/>
<stop offset="0.454" stop-color="#EBECFE"/>
<stop offset="1" stop-color="#F4F5FE"/>
</linearGradient>
<clipPath id="clip0">
<rect width="299.209" height="188.417" fill="white"/>
</clipPath>
<clipPath id="clip1">
<rect width="210" height="158" fill="white" transform="translate(45 30)"/>
</clipPath>
</defs>
</svg>
