<svg width="298" height="190" viewBox="0 0 298 190" fill="none" xmlns="http://www.w3.org/2000/svg">
<g clip-path="url(#clip0)">
<path d="M292.227 131.746C297.727 140.527 300.433 151.479 294.855 159.809C290.055 166.983 280.528 169.857 275.718 177.027C273.288 180.648 272.009 185.385 268.218 187.534C265.888 188.854 263.073 188.889 260.396 188.889L18.243 188.913C15.537 188.913 12.725 188.891 10.285 187.719C7.35796 186.314 5.40596 183.459 3.95796 180.552C0.67044 173.687 -0.602118 166.03 0.288063 158.47C1.17824 150.911 4.19464 143.759 8.98696 137.845C14.907 130.765 23.316 125.762 27.887 117.745C31.86 110.759 32.4 102.426 33.71 94.5C35.376 84.448 39.5 74.2 49.178 69.88C60.778 64.696 72.42 60.32 81.43 50.908C91.16 40.742 96.647 26.276 108.745 19.088C120.345 12.198 135.092 13.863 148.012 17.735C160.932 21.607 173.454 27.493 186.9 28.5C203.391 29.731 220.443 23.54 236.227 28.476C241.633 30.2139 246.566 33.1725 250.645 37.1227C254.724 41.0729 257.84 45.9087 259.75 51.256C265.03 66.434 259.974 83.946 266.181 98.769C270.827 109.869 280.962 117.511 288.636 126.775C289.941 128.351 291.141 130.012 292.227 131.746V131.746Z" fill="url(#paint0_linear)"/>
<path d="M234.828 114.758H177.683C175.838 114.758 174.343 116.253 174.343 118.098V186.226C174.343 188.071 175.838 189.566 177.683 189.566H234.828C236.673 189.566 238.168 188.071 238.168 186.226V118.098C238.168 116.253 236.673 114.758 234.828 114.758Z" fill="#E0E3FD"/>
<path d="M231.276 120.566H181.235C180.234 120.566 179.422 121.378 179.422 122.379V136.086C179.422 137.087 180.234 137.899 181.235 137.899H231.276C232.277 137.899 233.089 137.087 233.089 136.086V122.379C233.089 121.378 232.277 120.566 231.276 120.566Z" fill="#D1D4FC"/>
<path d="M231.276 143.399H181.235C180.234 143.399 179.422 144.211 179.422 145.212V158.919C179.422 159.92 180.234 160.732 181.235 160.732H231.276C232.277 160.732 233.089 159.92 233.089 158.919V145.212C233.089 144.211 232.277 143.399 231.276 143.399Z" fill="#D1D4FC"/>
<path d="M231.276 166.233H181.235C180.234 166.233 179.422 167.045 179.422 168.046V181.753C179.422 182.754 180.234 183.566 181.235 183.566H231.276C232.277 183.566 233.089 182.754 233.089 181.753V168.046C233.089 167.045 232.277 166.233 231.276 166.233Z" fill="#D1D4FC"/>
<path d="M206.256 131.066C207.268 131.066 208.089 130.245 208.089 129.233C208.089 128.221 207.268 127.4 206.256 127.4C205.244 127.4 204.423 128.221 204.423 129.233C204.423 130.245 205.244 131.066 206.256 131.066Z" fill="#E0E3FD"/>
<path d="M206.256 153.995C207.268 153.995 208.089 153.174 208.089 152.162C208.089 151.15 207.268 150.329 206.256 150.329C205.244 150.329 204.423 151.15 204.423 152.162C204.423 153.174 205.244 153.995 206.256 153.995Z" fill="#E0E3FD"/>
<path d="M206.256 176.924C207.268 176.924 208.089 176.103 208.089 175.091C208.089 174.079 207.268 173.258 206.256 173.258C205.244 173.258 204.423 174.079 204.423 175.091C204.423 176.103 205.244 176.924 206.256 176.924Z" fill="#E0E3FD"/>
<path d="M273.255 141.31C273.255 139.806 272.954 138.318 272.37 136.932C270.024 139.819 268.386 143.215 267.585 146.848C266.785 150.481 266.845 154.25 267.76 157.856L269.153 159.15C271.382 156.875 272.798 153.927 273.182 150.765C273.553 147.626 273.578 144.455 273.255 141.31V141.31Z" fill="#E0E3FD"/>
<path d="M43.7694 1.00403H193.23C195.025 1.00403 196.747 1.77362 198.016 3.1435C199.286 4.51339 199.999 6.37135 199.999 8.30866V168.318H37V8.31378C36.9994 7.35409 37.174 6.40368 37.5139 5.51685C37.8538 4.63002 38.3524 3.82415 38.981 3.14531C39.6097 2.46647 40.3562 1.92796 41.1778 1.56055C41.9994 1.19314 42.8801 1.00403 43.7694 1.00403V1.00403Z" fill="#FAFAFF"/>
<path d="M200 23.3841V7.0947C200 5.47829 199.405 3.92807 198.346 2.7851C197.286 1.64212 195.85 1 194.352 1H42.6482C41.1502 1 39.7135 1.64212 38.6543 2.7851C37.5951 3.92807 37 5.47829 37 7.0947V23.3841H200Z" fill="#4D5068"/>
<path d="M49.3514 14.1124C50.3335 14.1124 51.1297 13.2533 51.1297 12.1935C51.1297 11.1338 50.3335 10.2747 49.3514 10.2747C48.3693 10.2747 47.5731 11.1338 47.5731 12.1935C47.5731 13.2533 48.3693 14.1124 49.3514 14.1124Z" fill="white"/>
<path d="M57.331 14.1124C58.3131 14.1124 59.1093 13.2533 59.1093 12.1935C59.1093 11.1338 58.3131 10.2747 57.331 10.2747C56.3489 10.2747 55.5527 11.1338 55.5527 12.1935C55.5527 13.2533 56.3489 14.1124 57.331 14.1124Z" fill="white"/>
<path d="M65.3103 14.1124C66.2924 14.1124 67.0885 13.2533 67.0885 12.1935C67.0885 11.1338 66.2924 10.2747 65.3103 10.2747C64.3281 10.2747 63.532 11.1338 63.532 12.1935C63.532 13.2533 64.3281 14.1124 65.3103 14.1124Z" fill="white"/>
<path d="M87.285 39H77.277V42.042C77.277 44.2047 78.0897 46.2884 79.554 47.88V49.4H85.005V47.882C86.4692 46.2904 87.2819 44.2067 87.282 42.044V39H87.285Z" fill="#E0E3FD"/>
<path d="M85.224 39V42.042C85.224 44.2047 84.4113 46.2884 82.947 47.88V47.88V49.4H84.123V47.882C85.5873 46.2904 86.4 44.2067 86.4 42.044V39H85.224Z" fill="#F3F4FE"/>
<path d="M78.36 45.329H76.714C75.9942 45.329 75.3039 45.0431 74.7949 44.5341C74.2859 44.0251 74 43.3348 74 42.615C74 41.8952 74.2859 41.2049 74.7949 40.6959C75.3039 40.1869 75.9942 39.901 76.714 39.901H77.772V41.051H76.714C76.2992 41.051 75.9014 41.2158 75.6081 41.5091C75.3148 41.8024 75.15 42.2002 75.15 42.615C75.15 43.0298 75.3148 43.4276 75.6081 43.7209C75.9014 44.0142 76.2992 44.179 76.714 44.179H78.36V45.329V45.329Z" fill="#E0E3FD"/>
<path d="M78.799 39.0239V41.6239C78.799 41.8237 78.8783 42.0152 79.0195 42.1564C79.1608 42.2976 79.3523 42.3769 79.552 42.3769V42.3769C79.7517 42.3769 79.9432 42.2976 80.0844 42.1564C80.2257 42.0152 80.305 41.8237 80.305 41.6239V41.5239C80.305 41.3541 80.3724 41.1912 80.4924 41.071C80.6124 40.9509 80.7752 40.8832 80.945 40.8829V40.8829C81.0291 40.8829 81.1124 40.8995 81.1901 40.9318C81.2679 40.964 81.3385 41.0112 81.3979 41.0708C81.4573 41.1303 81.5045 41.201 81.5366 41.2787C81.5687 41.3565 81.5851 41.4398 81.585 41.5239V45.771C81.585 45.9661 81.6625 46.1534 81.8006 46.2914C81.9386 46.4294 82.1258 46.507 82.321 46.507C82.5162 46.507 82.7034 46.4294 82.8414 46.2914C82.9795 46.1534 83.057 45.9661 83.057 45.771V44.0079C83.057 43.8165 83.1331 43.6328 83.2685 43.4974C83.4039 43.362 83.5875 43.2859 83.779 43.2859V43.2859C83.9779 43.2859 84.1687 43.2069 84.3093 43.0663C84.45 42.9256 84.529 42.7349 84.529 42.5359V39.0229H78.797L78.799 39.0239Z" fill="#D1D4FC"/>
<path d="M285.959 149.429C285.847 149.325 285.704 149.258 285.552 149.239C283.998 148.891 282.385 148.898 280.833 149.257C279.282 149.617 277.831 150.321 276.588 151.317C275.345 152.314 274.343 153.576 273.654 155.013C272.965 156.449 272.608 158.021 272.609 159.614L273.548 160.748C275.529 161.288 277.599 160.279 279.243 159.048C282.262 156.779 284.588 153.712 285.957 150.192C286.025 150.076 286.061 149.945 286.061 149.811C286.061 149.677 286.026 149.545 285.959 149.429V149.429Z" fill="#E0E3FD"/>
<path d="M255.209 149.258C253.103 147.547 250.652 145.874 247.943 146.039C247.8 146.028 247.656 146.054 247.525 146.113C247.394 146.172 247.28 146.263 247.193 146.378C246.893 146.939 247.845 147.362 248.029 147.969C248.071 148.337 248.023 148.71 247.889 149.055C247.806 149.731 247.92 150.416 248.217 151.029C249.532 154.118 251.814 156.696 254.719 158.378C257.625 160.059 260.998 160.752 264.331 160.353L265.155 159.059C262.16 155.482 258.829 152.2 255.209 149.258V149.258Z" fill="#E0E3FD"/>
<path d="M262.972 159.452C267.697 163.939 268.304 170.596 267.489 176.739C267.312 178.076 269.416 178.063 269.589 176.739C270.477 170.048 269.563 162.815 264.456 157.966C264.257 157.779 263.993 157.677 263.719 157.681C263.446 157.686 263.186 157.796 262.992 157.989C262.799 158.182 262.689 158.443 262.684 158.716C262.68 158.99 262.782 159.254 262.969 159.453V159.453L262.972 159.452Z" fill="#E0E3FD"/>
<path d="M267.587 157.32C268.587 163.226 267.312 169.192 267.943 175.126C268.085 176.458 270.189 176.472 270.043 175.126C269.391 168.997 270.643 162.869 269.612 156.761C269.387 155.43 267.36 155.994 267.584 157.32H267.587Z" fill="#E0E3FD"/>
<path d="M273.749 156.9C271.867 159.481 270.415 162.349 269.449 165.394C268.569 168.705 268.821 172.429 268.669 175.83C268.685 176.097 268.803 176.348 268.998 176.532C269.193 176.715 269.451 176.817 269.719 176.817C269.987 176.817 270.244 176.715 270.44 176.532C270.635 176.348 270.752 176.097 270.769 175.83C270.912 172.625 270.68 169.068 271.474 165.953C272.388 163.083 273.768 160.383 275.559 157.961C276.311 156.832 274.491 155.778 273.743 156.9H273.749Z" fill="#E0E3FD"/>
<path d="M276.118 189.073H264.382C264.147 189.073 263.92 188.995 263.734 188.852C263.548 188.709 263.415 188.509 263.355 188.282L259.355 173.2C259.313 173.043 259.308 172.878 259.34 172.718C259.373 172.559 259.441 172.409 259.54 172.28C259.639 172.151 259.767 172.046 259.913 171.974C260.059 171.903 260.219 171.865 260.382 171.865H280.11C280.273 171.865 280.433 171.903 280.579 171.974C280.725 172.046 280.853 172.151 280.952 172.28C281.051 172.409 281.119 172.559 281.151 172.718C281.184 172.878 281.179 173.043 281.137 173.2L277.137 188.282C277.077 188.507 276.945 188.707 276.761 188.85C276.577 188.993 276.351 189.071 276.118 189.073Z" fill="#B2B8FA"/>
<path d="M271.836 139.2C270.273 145.091 270.26 151.234 268.836 157.152C268.826 157.191 268.831 157.232 268.851 157.267C268.871 157.302 268.904 157.327 268.942 157.338C268.981 157.349 269.022 157.344 269.057 157.324C269.092 157.304 269.118 157.272 269.129 157.233C270.552 151.315 270.565 145.171 272.129 139.281C272.139 139.242 272.134 139.201 272.114 139.166C272.094 139.131 272.061 139.106 272.023 139.095C271.984 139.085 271.943 139.09 271.908 139.109C271.873 139.129 271.847 139.161 271.836 139.2Z" fill="#C1C6FB"/>
<path d="M273.768 158.927C276.206 155.078 279.879 152.172 284.185 150.684C284.368 150.62 284.285 150.326 284.104 150.391C279.722 151.902 275.984 154.858 273.504 158.774C273.487 158.809 273.483 158.848 273.494 158.886C273.505 158.923 273.53 158.954 273.563 158.974C273.597 158.993 273.636 158.999 273.674 158.99C273.711 158.982 273.744 158.959 273.766 158.927V158.927H273.768Z" fill="#C1C6FB"/>
<path d="M248.645 147.92C249.617 150.183 251.252 152.098 253.335 153.413C256.335 155.513 260.188 156.548 262.935 158.903C263.108 159.052 263.362 158.803 263.187 158.651C261.276 157.012 258.841 156.336 256.677 155.101C253.57 153.328 250.363 151.281 248.988 147.826C248.904 147.615 248.559 147.707 248.644 147.921L248.645 147.92Z" fill="#C1C6FB"/>
<path d="M198.609 41.0006H153.807C152.809 41.0006 152.001 41.8093 152.001 42.8068V97.5038C152.001 98.5013 152.809 99.31 153.807 99.31H198.609C199.607 99.31 200.416 98.5013 200.416 97.5038V42.8068C200.416 41.8093 199.607 41.0006 198.609 41.0006Z" fill="white"/>
<path d="M200.416 47.1613V42.6773C200.416 42.2325 200.239 41.8058 199.924 41.4913C199.61 41.1767 199.183 41 198.738 41H153.677C153.232 41 152.806 41.1767 152.491 41.4913C152.177 41.8058 152 42.2325 152 42.6773V47.16H200.415L200.416 47.1613Z" fill="#4D5068"/>
<path d="M155.669 44.6093C155.961 44.6093 156.198 44.3728 156.198 44.081C156.198 43.7892 155.961 43.5526 155.669 43.5526C155.378 43.5526 155.141 43.7892 155.141 44.081C155.141 44.3728 155.378 44.6093 155.669 44.6093Z" fill="white"/>
<path d="M158.039 44.6093C158.331 44.6093 158.568 44.3728 158.568 44.081C158.568 43.7892 158.331 43.5526 158.039 43.5526C157.748 43.5526 157.511 43.7892 157.511 44.081C157.511 44.3728 157.748 44.6093 158.039 44.6093Z" fill="white"/>
<path d="M160.409 44.6093C160.701 44.6093 160.938 44.3728 160.938 44.081C160.938 43.7892 160.701 43.5526 160.409 43.5526C160.117 43.5526 159.881 43.7892 159.881 44.081C159.881 44.3728 160.117 44.6093 160.409 44.6093Z" fill="white"/>
<path d="M161.636 79.7593C164.021 79.7593 165.954 77.8259 165.954 75.441C165.954 73.056 164.021 71.1226 161.636 71.1226C159.251 71.1226 157.318 73.056 157.318 75.441C157.318 77.8259 159.251 79.7593 161.636 79.7593Z" fill="#E0E3FD"/>
<path d="M161.636 91.546C164.021 91.546 165.954 89.6126 165.954 87.2276C165.954 84.8426 164.021 82.9092 161.636 82.9092C159.251 82.9092 157.318 84.8426 157.318 87.2276C157.318 89.6126 159.251 91.546 161.636 91.546Z" fill="#E0E3FD"/>
<path d="M195.018 72.6494H170.995V73.5449H195.018V72.6494Z" fill="#F0F1FE"/>
<path d="M184.267 76.1779H170.995V77.0734H184.267V76.1779Z" fill="#F0F1FE"/>
<path d="M195.018 84.5518H170.995V85.4473H195.018V84.5518Z" fill="#F0F1FE"/>
<path d="M184.267 88.0808H170.995V88.9763H184.267V88.0808Z" fill="#F0F1FE"/>
<path d="M232.153 131H187.147C184.304 131 182 133.304 182 136.147V174.109C182 176.952 184.304 179.256 187.147 179.256H232.153C234.996 179.256 237.3 176.952 237.3 174.109V136.147C237.3 133.304 234.996 131 232.153 131Z" fill="white"/>
<path d="M232.695 131H186.605C186.001 131 185.403 131.119 184.845 131.35C184.287 131.581 183.779 131.92 183.352 132.347C182.925 132.774 182.586 133.282 182.355 133.84C182.124 134.398 182.005 134.996 182.005 135.6V140.843H237.305V135.605C237.306 135 237.187 134.4 236.955 133.841C236.724 133.281 236.384 132.773 235.956 132.346C235.528 131.918 235.019 131.579 234.46 131.348C233.9 131.117 233.3 130.999 232.695 131Z" fill="#4D5068"/>
<path d="M188.219 136.768C188.685 136.768 189.063 136.39 189.063 135.924C189.063 135.458 188.685 135.08 188.219 135.08C187.753 135.08 187.375 135.458 187.375 135.924C187.375 136.39 187.753 136.768 188.219 136.768Z" fill="white"/>
<path d="M191.883 136.768C192.349 136.768 192.727 136.39 192.727 135.924C192.727 135.458 192.349 135.08 191.883 135.08C191.417 135.08 191.039 135.458 191.039 135.924C191.039 136.39 191.417 136.768 191.883 136.768Z" fill="white"/>
<path d="M191.883 136.768C192.349 136.768 192.727 136.39 192.727 135.924C192.727 135.458 192.349 135.08 191.883 135.08C191.417 135.08 191.039 135.458 191.039 135.924C191.039 136.39 191.417 136.768 191.883 136.768Z" fill="white"/>
<path d="M195.548 136.768C196.014 136.768 196.392 136.39 196.392 135.924C196.392 135.458 196.014 135.08 195.548 135.08C195.082 135.08 194.704 135.458 194.704 135.924C194.704 136.39 195.082 136.768 195.548 136.768Z" fill="white"/>
<path d="M192.727 160.353C196.37 160.353 199.323 157.4 199.323 153.757C199.323 150.114 196.37 147.161 192.727 147.161C189.084 147.161 186.131 150.114 186.131 153.757C186.131 157.4 189.084 160.353 192.727 160.353Z" fill="#D1D4FC"/>
<path d="M233.081 150.204H202.877V151.981H233.081V150.204Z" fill="#F0F1FE"/>
<path d="M233.081 155.377H202.877V157.154H233.081V155.377Z" fill="#F0F1FE"/>
<path d="M214.203 160.55H202.877V162.327H214.203V160.55Z" fill="#FFDFD6"/>
<path d="M111.597 61.6484H64.3978C61.4167 61.6484 59 64.0651 59 67.0463V106.858C59 109.839 61.4167 112.256 64.3978 112.256H111.597C114.578 112.256 116.995 109.839 116.995 106.858V67.0463C116.995 64.0651 114.578 61.6484 111.597 61.6484Z" fill="white"/>
<path d="M112.165 61.6484H63.8294C63.1959 61.6484 62.5686 61.7732 61.9833 62.0157C61.398 62.2581 60.8662 62.6134 60.4182 63.0614C59.9702 63.5094 59.6149 64.0412 59.3725 64.6265C59.13 65.2118 59.0052 65.8391 59.0052 66.4726V71.9711H117V66.4778C117.001 65.843 116.876 65.2143 116.633 64.6277C116.39 64.0411 116.034 63.5082 115.585 63.0595C115.136 62.6109 114.603 62.2553 114.016 62.0132C113.429 61.771 112.8 61.6471 112.165 61.6484Z" fill="#4D5068"/>
<path d="M65.5221 67.6975C66.0109 67.6975 66.4072 67.3012 66.4072 66.8124C66.4072 66.3235 66.0109 65.9272 65.5221 65.9272C65.0332 65.9272 64.637 66.3235 64.637 66.8124C64.637 67.3012 65.0332 67.6975 65.5221 67.6975Z" fill="white"/>
<path d="M69.3646 67.6975C69.8535 67.6975 70.2498 67.3012 70.2498 66.8124C70.2498 66.3235 69.8535 65.9272 69.3646 65.9272C68.8758 65.9272 68.4795 66.3235 68.4795 66.8124C68.4795 67.3012 68.8758 67.6975 69.3646 67.6975Z" fill="white"/>
<path d="M69.3646 67.6975C69.8535 67.6975 70.2498 67.3012 70.2498 66.8124C70.2498 66.3235 69.8535 65.9272 69.3646 65.9272C68.8758 65.9272 68.4795 66.3235 68.4795 66.8124C68.4795 67.3012 68.8758 67.6975 69.3646 67.6975Z" fill="white"/>
<path d="M73.2081 67.6975C73.697 67.6975 74.0933 67.3012 74.0933 66.8124C74.0933 66.3235 73.697 65.9272 73.2081 65.9272C72.7193 65.9272 72.323 66.3235 72.323 66.8124C72.323 67.3012 72.7193 67.6975 73.2081 67.6975Z" fill="white"/>
<path d="M70.2497 92.4318C74.0701 92.4318 77.1671 89.3347 77.1671 85.5143C77.1671 81.694 74.0701 78.5969 70.2497 78.5969C66.4293 78.5969 63.3323 81.694 63.3323 85.5143C63.3323 89.3347 66.4293 92.4318 70.2497 92.4318Z" fill="#D1D4FC"/>
<path d="M112.57 81.7882H80.8944V83.6518H112.57V81.7882Z" fill="#F0F1FE"/>
<path d="M112.57 87.2133H80.8944V89.0769H112.57V87.2133Z" fill="#F0F1FE"/>
<path d="M92.7723 92.6384H80.8944V94.502H92.7723V92.6384Z" fill="#FFDFD6"/>
<path d="M178.597 69.6484H131.398C128.417 69.6484 126 72.0651 126 75.0463V114.858C126 117.839 128.417 120.256 131.398 120.256H178.597C181.578 120.256 183.995 117.839 183.995 114.858V75.0463C183.995 72.0651 181.578 69.6484 178.597 69.6484Z" fill="white"/>
<path d="M179.165 69.6484H130.829C130.196 69.6484 129.569 69.7732 128.983 70.0157C128.398 70.2581 127.866 70.6134 127.418 71.0614C126.97 71.5094 126.615 72.0412 126.372 72.6265C126.13 73.2118 126.005 73.8391 126.005 74.4726V79.9711H184V74.4778C184.001 73.843 183.876 73.2143 183.633 72.6277C183.39 72.0411 183.034 71.5082 182.585 71.0595C182.136 70.6109 181.603 70.2553 181.016 70.0132C180.429 69.771 179.8 69.6471 179.165 69.6484Z" fill="#4D5068"/>
<path d="M132.522 75.6975C133.011 75.6975 133.407 75.3012 133.407 74.8124C133.407 74.3235 133.011 73.9272 132.522 73.9272C132.033 73.9272 131.637 74.3235 131.637 74.8124C131.637 75.3012 132.033 75.6975 132.522 75.6975Z" fill="white"/>
<path d="M136.365 75.6975C136.853 75.6975 137.25 75.3012 137.25 74.8124C137.25 74.3235 136.853 73.9272 136.365 73.9272C135.876 73.9272 135.479 74.3235 135.479 74.8124C135.479 75.3012 135.876 75.6975 136.365 75.6975Z" fill="white"/>
<path d="M136.365 75.6975C136.853 75.6975 137.25 75.3012 137.25 74.8124C137.25 74.3235 136.853 73.9272 136.365 73.9272C135.876 73.9272 135.479 74.3235 135.479 74.8124C135.479 75.3012 135.876 75.6975 136.365 75.6975Z" fill="white"/>
<path d="M140.208 75.6975C140.697 75.6975 141.093 75.3012 141.093 74.8124C141.093 74.3235 140.697 73.9272 140.208 73.9272C139.719 73.9272 139.323 74.3235 139.323 74.8124C139.323 75.3012 139.719 75.6975 140.208 75.6975Z" fill="white"/>
<path d="M137.25 100.432C141.07 100.432 144.167 97.3347 144.167 93.5143C144.167 89.694 141.07 86.5969 137.25 86.5969C133.429 86.5969 130.332 89.694 130.332 93.5143C130.332 97.3347 133.429 100.432 137.25 100.432Z" fill="#D1D4FC"/>
<path d="M179.57 89.7882H147.894V91.6518H179.57V89.7882Z" fill="#F0F1FE"/>
<path d="M179.57 95.2133H147.894V97.0769H179.57V95.2133Z" fill="#F0F1FE"/>
<path d="M159.772 100.638H147.894V102.502H159.772V100.638Z" fill="#FFDFD6"/>
<path opacity="0.805" d="M146.254 40.4919H124.318V65.7439H146.254C147.033 65.7439 147.78 65.4344 148.331 64.8834C148.882 64.3324 149.192 63.5851 149.192 62.8059V43.4299C149.192 42.6507 148.882 41.9034 148.331 41.3525C147.78 40.8015 147.033 40.4919 146.254 40.4919V40.4919Z" fill="#C1C6FB"/>
<path opacity="0.829" d="M146.116 40.4919H124.316V65.5849H146.116C146.89 65.5849 147.633 65.2774 148.18 64.73C148.728 64.1826 149.035 63.4401 149.035 62.6659V43.4109C149.035 42.6368 148.728 41.8943 148.18 41.3469C147.633 40.7995 146.89 40.4919 146.116 40.4919V40.4919Z" fill="#BFC4FB"/>
<path opacity="0.854" d="M145.977 40.4919H124.318V65.4249H145.977C146.746 65.4249 147.484 65.1194 148.028 64.5756C148.571 64.0317 148.877 63.2941 148.877 62.5249V43.3929C148.877 43.012 148.802 42.6348 148.657 42.2829C148.511 41.9309 148.297 41.6111 148.028 41.3417C147.759 41.0723 147.439 40.8586 147.087 40.7128C146.735 40.567 146.358 40.4919 145.977 40.4919V40.4919Z" fill="#BDC2FB"/>
<path opacity="0.878" d="M145.839 40.4919H124.318V65.2659H145.839C146.603 65.2659 147.336 64.9623 147.877 64.4218C148.417 63.8813 148.721 63.1483 148.721 62.3839V43.3739C148.721 42.6096 148.417 41.8765 147.877 41.3361C147.336 40.7956 146.603 40.4919 145.839 40.4919Z" fill="#BBC1FB"/>
<path opacity="0.902" d="M145.7 40.4919H124.318V65.1069H145.7C146.459 65.1059 147.186 64.8037 147.723 64.2667C148.259 63.7297 148.56 63.0018 148.56 62.2429V43.3559C148.56 42.5971 148.259 41.8692 147.723 41.3322C147.186 40.7952 146.459 40.493 145.7 40.4919V40.4919Z" fill="#BABFFA"/>
<path opacity="0.927" d="M145.56 40.4919H124.318V64.9469H145.56C146.315 64.9469 147.038 64.6472 147.572 64.1137C148.105 63.5801 148.405 62.8565 148.405 62.1019V43.3359C148.405 42.5816 148.105 41.8582 147.571 41.3249C147.038 40.7915 146.314 40.4919 145.56 40.4919V40.4919Z" fill="#B8BDFA"/>
<path opacity="0.951" d="M145.423 40.4919H124.318V64.7919H145.423C146.173 64.7919 146.892 64.4941 147.422 63.9639C147.952 63.4338 148.25 62.7147 148.25 61.9649V43.3189C148.25 42.5692 147.952 41.8501 147.422 41.32C146.892 40.7898 146.173 40.4919 145.423 40.4919V40.4919Z" fill="#B6BBFA"/>
<path opacity="0.976" d="M145.285 40.4919H124.318V64.6279H145.285C146.03 64.6279 146.744 64.3321 147.271 63.8055C147.797 63.2789 148.093 62.5647 148.093 61.8199V43.2999C148.093 42.5552 147.797 41.841 147.271 41.3144C146.744 40.7878 146.03 40.4919 145.285 40.4919V40.4919Z" fill="#B4BAFA"/>
<path d="M145.146 40.4919H124.318V64.4689H145.146C145.512 64.4689 145.875 64.3968 146.214 64.2566C146.552 64.1164 146.86 63.9108 147.119 63.6518C147.378 63.3927 147.583 63.0851 147.724 62.7466C147.864 62.4081 147.936 62.0453 147.936 61.6789V43.2789C147.935 42.5395 147.641 41.8306 147.118 41.3081C146.595 40.7855 145.885 40.4919 145.146 40.4919Z" fill="#B2B8FA"/>
<path d="M146.172 36H102.463C100.55 36 99 37.5504 99 39.463V62.3C99 64.2126 100.55 65.763 102.463 65.763H146.172C148.085 65.763 149.635 64.2126 149.635 62.3V39.463C149.635 37.5504 148.085 36 146.172 36Z" fill="white"/>
<path d="M112.101 59.075C116.626 59.075 120.295 55.4064 120.295 50.881C120.295 46.3556 116.626 42.687 112.101 42.687C107.576 42.687 103.907 46.3556 103.907 50.881C103.907 55.4064 107.576 59.075 112.101 59.075Z" fill="#E55151"/>
<path d="M115.123 51.3439L109.85 54.3879C109.769 54.4345 109.677 54.459 109.583 54.4589C109.49 54.4588 109.398 54.4341 109.317 54.3873C109.236 54.3406 109.169 54.2733 109.122 54.1923C109.075 54.1114 109.05 54.0195 109.05 53.9259V47.8359C109.05 47.7424 109.075 47.6505 109.122 47.5696C109.169 47.4886 109.236 47.4213 109.317 47.3746C109.398 47.3278 109.49 47.3031 109.583 47.303C109.677 47.3029 109.769 47.3273 109.85 47.3739L115.123 50.4179C115.204 50.4647 115.272 50.5322 115.319 50.6135C115.366 50.6948 115.391 50.787 115.391 50.8809C115.391 50.9749 115.366 51.0671 115.319 51.1484C115.272 51.2297 115.204 51.2972 115.123 51.3439Z" fill="white"/>
<path d="M145.757 44.302H123.293V46.302H145.757V44.302Z" fill="#F0F1FE"/>
<path d="M145.757 49.881H123.293V51.881H145.757V49.881Z" fill="#F0F1FE"/>
<path d="M134.525 55.46H123.293V57.46H134.525V55.46Z" fill="#5F4DEE"/>
<path d="M187.51 49H159V66.779H187.51V49Z" fill="#E0E3FD"/>
<path d="M163.408 55.54L159.022 61.873L159 66.779H170.291L163.408 55.54Z" fill="#B2B8FA"/>
<path d="M164.102 58.839L164.496 59.491L165.192 58.487L163.408 55.54L161.387 58.459L162.011 59.491L162.489 58.801L163.254 60.064L164.102 58.839Z" fill="white"/>
<path d="M168.76 64.335L172.096 59.364L176.688 66.779H170.279L168.76 64.335Z" fill="#B2B8FA"/>
<path d="M179.091 58.1849C180.82 58.1849 182.221 56.7836 182.221 55.0549C182.221 53.3263 180.82 51.9249 179.091 51.9249C177.362 51.9249 175.961 53.3263 175.961 55.0549C175.961 56.7836 177.362 58.1849 179.091 58.1849Z" fill="#D1D4FC"/>
<path d="M172.83 62.663L173.225 63.315L173.92 62.311L172.096 59.364L170.115 62.282L170.739 63.315L171.217 62.624L171.982 63.888L172.83 62.663Z" fill="white"/>
<path d="M66.43 122.9C67.7042 122.9 68.737 121.867 68.737 120.593C68.737 119.319 67.7042 118.286 66.43 118.286C65.1559 118.286 64.123 119.319 64.123 120.593C64.123 121.867 65.1559 122.9 66.43 122.9Z" fill="#E55151"/>
<path d="M67.059 120.593L65.8 121.32V119.866L67.059 120.593Z" fill="white"/>
<path d="M57.554 47.083H58.629C58.7333 47.0827 58.8333 47.0411 58.907 46.9672C58.9806 46.8934 59.022 46.7933 59.022 46.689V45.318C59.0217 45.2137 58.9801 45.1137 58.9062 45.04C58.8324 44.9664 58.7323 44.925 58.628 44.925H57.79C57.7223 44.9242 57.6565 44.9027 57.6014 44.8634C57.5464 44.824 57.5047 44.7688 57.482 44.705C57.452 44.6263 57.4187 44.549 57.382 44.473C57.352 44.4109 57.3422 44.341 57.3538 44.2731C57.3655 44.2051 57.398 44.1425 57.447 44.094L58.041 43.499C58.1148 43.4251 58.1563 43.325 58.1563 43.2205C58.1563 43.1161 58.1148 43.0159 58.041 42.942L57.071 41.973C56.9971 41.8992 56.8969 41.8577 56.7925 41.8577C56.6881 41.8577 56.5879 41.8992 56.514 41.973L55.914 42.573C55.868 42.6192 55.8091 42.6505 55.7451 42.6628C55.6811 42.6751 55.6149 42.6678 55.555 42.642C55.469 42.605 55.377 42.568 55.298 42.542C55.2376 42.5184 55.1856 42.4771 55.1489 42.4237C55.1122 42.3702 55.0923 42.3069 55.092 42.242V41.394C55.092 41.3423 55.0818 41.291 55.062 41.2432C55.0422 41.1954 55.0132 41.152 54.9766 41.1154C54.94 41.0788 54.8966 41.0498 54.8488 41.03C54.801 41.0102 54.7497 41 54.698 41H53.328C53.2763 41 53.225 41.0102 53.1772 41.03C53.1294 41.0498 53.086 41.0788 53.0494 41.1154C53.0128 41.152 52.9838 41.1954 52.964 41.2432C52.9442 41.291 52.934 41.3423 52.934 41.394V42.235C52.9332 42.3027 52.9117 42.3685 52.8724 42.4236C52.833 42.4786 52.7778 42.5203 52.714 42.543C52.632 42.5737 52.5507 42.607 52.47 42.643C52.409 42.6726 52.3404 42.6827 52.2735 42.672C52.2066 42.6613 52.1446 42.6302 52.096 42.583L51.496 41.99C51.4221 41.9162 51.3219 41.8747 51.2175 41.8747C51.1131 41.8747 51.0129 41.9162 50.939 41.99L49.973 42.962C49.8992 43.0359 49.8577 43.1361 49.8577 43.2405C49.8577 43.3449 49.8992 43.4451 49.973 43.519L50.573 44.119C50.6193 44.1649 50.6508 44.2237 50.6633 44.2877C50.6758 44.3517 50.6687 44.4181 50.643 44.478C50.607 44.564 50.57 44.656 50.543 44.736C50.5195 44.7966 50.4784 44.8488 50.4249 44.8857C50.3714 44.9226 50.308 44.9426 50.243 44.943H49.393C49.3413 44.9431 49.29 44.9535 49.2423 44.9734C49.1945 44.9933 49.1512 45.0224 49.1147 45.0591C49.0782 45.0958 49.0493 45.1393 49.0296 45.1871C49.0099 45.235 48.9999 45.2863 49 45.338V46.709C49.0001 46.7607 49.0105 46.812 49.0304 46.8597C49.0503 46.9075 49.0794 46.9508 49.1161 46.9873C49.1528 47.0238 49.1963 47.0527 49.2441 47.0724C49.292 47.0921 49.3433 47.1021 49.395 47.102H50.236C50.3036 47.1029 50.3694 47.1245 50.4244 47.1638C50.4795 47.2031 50.5212 47.2583 50.544 47.322C50.574 47.4007 50.6073 47.478 50.644 47.554C50.6733 47.6151 50.6832 47.6837 50.6723 47.7506C50.6614 47.8175 50.6302 47.8794 50.583 47.928L49.989 48.528C49.9152 48.6019 49.8737 48.7021 49.8737 48.8065C49.8737 48.9109 49.9152 49.0111 49.989 49.085L50.96 50.052C51.0339 50.1258 51.134 50.1673 51.2385 50.1673C51.3429 50.1673 51.4431 50.1258 51.517 50.052L52.117 49.452C52.163 49.4058 52.2219 49.3745 52.2859 49.3622C52.3499 49.3499 52.4161 49.3572 52.476 49.383C52.561 49.419 52.654 49.456 52.733 49.483C52.7936 49.5065 52.8458 49.5476 52.8827 49.6011C52.9196 49.6546 52.9396 49.718 52.94 49.783V50.633C52.9401 50.6847 52.9504 50.736 52.9704 50.7837C52.9903 50.8315 53.0194 50.8748 53.0561 50.9113C53.0928 50.9478 53.1363 50.9767 53.1841 50.9964C53.232 51.0161 53.2833 51.0261 53.335 51.026H54.705C54.8093 51.0257 54.9093 50.9841 54.9829 50.9102C55.0566 50.8364 55.098 50.7363 55.098 50.632V49.782C55.0988 49.7143 55.1203 49.6485 55.1596 49.5935C55.199 49.5384 55.2542 49.4967 55.318 49.474C55.3967 49.4447 55.474 49.4113 55.55 49.374C55.6111 49.3447 55.6797 49.3348 55.7466 49.3457C55.8135 49.3566 55.8754 49.3878 55.924 49.435L56.524 50.029C56.5979 50.1028 56.6981 50.1443 56.8025 50.1443C56.9069 50.1443 57.0071 50.1028 57.081 50.029L58.049 49.059C58.1228 48.9851 58.1643 48.8849 58.1643 48.7805C58.1643 48.6761 58.1228 48.5759 58.049 48.502L57.449 47.902C57.4029 47.8559 57.3717 47.7971 57.3594 47.7331C57.3471 47.6691 57.3543 47.6029 57.38 47.543C57.464 47.342 57.554 47.094 57.554 47.083ZM52.104 45.657C52.1758 45.2638 52.3673 44.9023 52.6522 44.622C52.9371 44.3416 53.3015 44.1559 53.6958 44.0904C54.0901 44.0248 54.4951 44.0825 54.8553 44.2556C55.2156 44.4287 55.5137 44.7088 55.709 45.0576C55.9042 45.4064 55.987 45.8069 55.9462 46.2045C55.9054 46.6022 55.7428 46.9775 55.4807 47.2793C55.2187 47.5811 54.8699 47.7947 54.4819 47.891C54.0939 47.9872 53.6857 47.9614 53.313 47.817C52.8917 47.6538 52.5404 47.3488 52.3198 46.9546C52.0991 46.5603 52.0228 46.1015 52.104 45.657Z" fill="#5F4DEE"/>
<path d="M154.302 134H76.055C73.8155 134 72 135.815 72 138.055V158.103C72 160.343 73.8155 162.158 76.055 162.158H154.302C156.542 162.158 158.357 160.343 158.357 158.103V138.055C158.357 135.815 156.542 134 154.302 134Z" fill="white"/>
<path d="M154.302 134H76.055C75.5225 134 74.9952 134.105 74.5032 134.309C74.0112 134.512 73.5642 134.811 73.1877 135.188C72.8111 135.564 72.5124 136.011 72.3087 136.503C72.1049 136.995 72 137.522 72 138.055V140.655H158.362V138.055C158.362 137.522 158.257 136.994 158.053 136.502C157.849 136.01 157.55 135.563 157.173 135.186C156.795 134.809 156.348 134.511 155.855 134.307C155.363 134.104 154.835 133.999 154.302 134V134Z" fill="#4D5068"/>
<path d="M84.7709 158.351C88.4138 158.351 91.3669 155.398 91.3669 151.755C91.3669 148.112 88.4138 145.159 84.7709 145.159C81.1281 145.159 78.1749 148.112 78.1749 151.755C78.1749 155.398 81.1281 158.351 84.7709 158.351Z" fill="#D1D4FC"/>
<path d="M151.094 145.702H94.921V147.479H151.094V145.702Z" fill="#F0F1FE"/>
<path d="M151.094 150.875H94.921V152.652H151.094V150.875Z" fill="#F0F1FE"/>
<path d="M115.986 156.048H94.921V157.825H115.986V156.048Z" fill="#FFDFD6"/>
<path d="M79.018 138.173C79.4841 138.173 79.862 137.795 79.862 137.329C79.862 136.863 79.4841 136.485 79.018 136.485C78.5518 136.485 78.174 136.863 78.174 137.329C78.174 137.795 78.5518 138.173 79.018 138.173Z" fill="white"/>
<path d="M82.683 138.173C83.1491 138.173 83.527 137.795 83.527 137.329C83.527 136.863 83.1491 136.485 82.683 136.485C82.2169 136.485 81.839 136.863 81.839 137.329C81.839 137.795 82.2169 138.173 82.683 138.173Z" fill="white"/>
<path d="M86.3469 138.173C86.8131 138.173 87.1909 137.795 87.1909 137.329C87.1909 136.863 86.8131 136.485 86.3469 136.485C85.8808 136.485 85.5029 136.863 85.5029 137.329C85.5029 137.795 85.8808 138.173 86.3469 138.173Z" fill="white"/>
<path d="M181.795 135.584H174.638C173.195 135.584 172.026 136.753 172.026 138.196V145.353C172.026 146.796 173.195 147.965 174.638 147.965H181.795C183.238 147.965 184.407 146.796 184.407 145.353V138.196C184.407 136.753 183.238 135.584 181.795 135.584Z" fill="#5F4DEE"/>
<path d="M174.973 142.143V142.161L176.65 142.711V143.644L173.962 142.55V141.742L176.647 140.648V141.577L174.973 142.143Z" fill="white"/>
<path d="M177.944 144.176H176.908L178.418 139.376H179.454L177.944 144.176Z" fill="white"/>
<path d="M181.462 142.155V142.137L179.8 141.584V140.654L182.47 141.748V142.556L179.8 143.65V142.72L181.462 142.155Z" fill="white"/>
<path d="M145.288 120.847L144.033 120.011C143.948 119.954 143.847 119.923 143.744 119.923C143.641 119.923 143.54 119.954 143.454 120.011L142.199 120.847C142.163 120.862 142.123 120.867 142.083 120.863C142.044 120.859 142.006 120.845 141.973 120.823C141.94 120.801 141.913 120.771 141.895 120.736C141.876 120.701 141.866 120.662 141.866 120.623V115.123H145.625V120.623C145.626 120.663 145.616 120.703 145.597 120.738C145.578 120.773 145.551 120.804 145.517 120.826C145.484 120.848 145.445 120.862 145.405 120.865C145.366 120.869 145.325 120.863 145.288 120.847V120.847Z" fill="#5F4DEE"/>
<path d="M147.653 117.673L143.882 115.752C143.846 115.733 143.806 115.723 143.765 115.723C143.725 115.723 143.684 115.733 143.648 115.752L139.928 117.77C139.887 117.792 139.84 117.803 139.794 117.8C139.747 117.797 139.702 117.781 139.663 117.754C139.625 117.727 139.595 117.69 139.577 117.647C139.559 117.604 139.553 117.556 139.56 117.51L140.221 113.33C140.228 113.29 140.224 113.249 140.211 113.21C140.198 113.172 140.176 113.137 140.146 113.109L137.078 110.195C137.044 110.163 137.02 110.122 137.008 110.076C136.996 110.031 136.997 109.983 137.011 109.938C137.025 109.894 137.051 109.854 137.086 109.823C137.122 109.792 137.165 109.772 137.211 109.765L141.391 109.102C141.432 109.095 141.47 109.079 141.502 109.055C141.535 109.03 141.561 108.999 141.578 108.962L143.401 105.143C143.421 105.101 143.453 105.065 143.493 105.04C143.532 105.014 143.578 105.001 143.624 105C143.671 104.999 143.717 105.012 143.757 105.036C143.797 105.06 143.83 105.095 143.851 105.137L145.773 108.907C145.792 108.943 145.819 108.974 145.852 108.998C145.885 109.021 145.924 109.036 145.964 109.042L150.164 109.596C150.211 109.602 150.255 109.621 150.291 109.65C150.328 109.68 150.355 109.72 150.37 109.764C150.385 109.809 150.387 109.856 150.377 109.902C150.366 109.948 150.343 109.99 150.309 110.023L147.317 113.016C147.289 113.045 147.267 113.08 147.255 113.119C147.243 113.158 147.241 113.199 147.248 113.239L148.017 117.401C148.027 117.447 148.023 117.496 148.006 117.541C147.989 117.585 147.96 117.624 147.922 117.652C147.884 117.681 147.838 117.698 147.79 117.702C147.743 117.705 147.695 117.695 147.653 117.673V117.673Z" fill="#E55151"/>
<path d="M58.48 137.96C62.0588 137.96 64.96 135.059 64.96 131.48C64.96 127.901 62.0588 125 58.48 125C54.9012 125 52 127.901 52 131.48C52 135.059 54.9012 137.96 58.48 137.96Z" fill="#5F4DEE"/>
<path d="M57.6231 134.106L55.3721 131.855L56.6581 130.569L57.6231 131.534L60.3011 128.854L61.5871 130.14L57.6231 134.106Z" fill="white"/>
<path d="M102.823 106.271L101.108 104H104.538L102.823 106.271Z" fill="#E55151"/>
<path d="M99.411 106.271L97.697 104H101.126L99.411 106.271Z" fill="#E55151"/>
<path d="M101.117 112.067L96 106.247H106.235L101.117 112.067Z" fill="#E55151"/>
<path d="M101.117 112.067L99.411 106.247H102.841L101.117 112.067Z" fill="#EF6767"/>
<path d="M97.697 104L96 106.247H99.394L97.697 104Z" fill="#EF6767"/>
<path d="M101.108 104L99.411 106.247H102.805L101.108 104Z" fill="#EF6767"/>
<path d="M104.538 104L102.841 106.247H106.235L104.538 104Z" fill="#EF6767"/>
<path d="M58.5 80.66C44.143 89.55 48.61 110.338 48.8 124.706C49.0134 140.547 49.2267 156.389 49.44 172.23C49.4302 172.42 49.3478 172.599 49.2099 172.73C49.072 172.86 48.8892 172.933 48.699 172.933C48.5089 172.933 48.326 172.86 48.1881 172.73C48.0503 172.599 47.9679 172.42 47.958 172.23C47.7027 153.297 47.4477 134.363 47.193 115.43C47.013 102.062 44.726 87.441 57.749 79.377C57.9181 79.288 58.115 79.2677 58.2987 79.3203C58.4824 79.3729 58.6388 79.4943 58.7352 79.6593C58.8316 79.8242 58.8606 80.02 58.8163 80.2059C58.7719 80.3918 58.6576 80.5533 58.497 80.657L58.5 80.66Z" fill="#D1D4FC"/>
<path d="M50.525 87.8911C51.1278 86.4872 51.906 85.1654 52.841 83.9571C54.446 82.2619 56.3459 80.8726 58.448 79.8571L58.748 80.0171C60.0206 83.0526 60.4263 86.3817 59.92 89.6341C59.6512 91.2519 59.0134 92.7861 58.0562 94.1178C57.0989 95.4494 55.8478 96.5428 54.4 97.3131C52.237 98.3531 49.681 98.4891 47.663 99.7871C47.091 95.6871 48.751 91.6311 50.525 87.8911Z" fill="#D1D4FC"/>
<path d="M35.486 62.676C49.745 68.332 46.676 89.962 47.251 102.151C48.225 122.822 48.751 143.492 48.617 164.188C48.6071 164.378 48.5248 164.557 48.3869 164.688C48.249 164.819 48.0661 164.891 47.876 164.891C47.6859 164.891 47.503 164.819 47.3651 164.688C47.2272 164.557 47.1449 164.378 47.135 164.188C47.2477 146.981 46.9507 129.778 46.244 112.581C45.918 104.812 45.528 97.045 45.16 89.281C44.734 80.263 45.149 68.097 35.092 64.108C34.216 63.76 34.598 62.326 35.486 62.679V62.676Z" fill="#D1D4FC"/>
<path d="M45.2469 87.554C45.2729 87.483 45.2909 87.409 45.3159 87.337C45.5414 87.6819 45.7345 88.0467 45.8929 88.427L45.2469 87.554Z" fill="#D1D4FC"/>
<path d="M34.674 63.935C34.6963 63.8201 34.7458 63.7122 34.8184 63.6204C34.891 63.5286 34.9846 63.4555 35.0912 63.4073C35.1979 63.3591 35.3146 63.3372 35.4315 63.3434C35.5483 63.3497 35.662 63.3838 35.763 63.443C38.0667 64.2058 40.1604 65.4964 41.877 67.2117C43.5935 68.9271 44.8856 71.0198 45.65 73.323C47.1108 77.8999 46.9936 82.8347 45.317 87.337C43.545 84.537 39.945 83.137 37.424 80.818C32.949 76.7 32.262 69.519 34.674 63.935Z" fill="#D1D4FC"/>
<path d="M54.079 188.995H41.149C40.3844 188.995 39.6274 188.844 38.921 188.552C38.2147 188.259 37.5728 187.83 37.0322 187.29C36.4916 186.749 36.0628 186.107 35.7702 185.401C35.4776 184.695 35.327 183.938 35.327 183.173V164.202H59.901V183.174C59.9007 184.718 59.2872 186.199 58.1954 187.29C57.1036 188.382 55.6229 188.995 54.079 188.995V188.995Z" fill="#4D5068"/>
<path d="M46.968 134.774C47.191 129.046 47.451 122.262 43.197 117.774C39.876 114.274 31.359 111.854 26.585 111.73C26.3951 111.72 26.2163 111.638 26.0854 111.5C25.9545 111.362 25.8815 111.179 25.8815 110.989C25.8815 110.799 25.9545 110.616 26.0854 110.478C26.2163 110.34 26.3951 110.258 26.585 110.248C30.226 110.342 34.024 111.786 37.453 112.948C39.976 113.804 42.363 114.748 44.245 116.724C48.815 121.512 48.689 128.624 48.45 134.774C48.4401 134.964 48.3577 135.143 48.2198 135.274C48.082 135.405 47.8991 135.478 47.709 135.478C47.5188 135.478 47.336 135.405 47.1981 135.274C47.0602 135.143 46.9778 134.964 46.968 134.774V134.774Z" fill="#D1D4FC"/>
<path d="M24.986 109.65C25.0361 109.609 25.0943 109.579 25.1569 109.561C25.2194 109.544 25.2848 109.54 25.349 109.55L30.725 109.596C32.2777 109.546 33.8306 109.686 35.349 110.015C38.379 110.803 40.833 113.042 42.749 115.515L43.307 115.6C40.507 116.492 37.765 117.663 34.845 117.967C31.925 118.271 28.69 117.531 26.861 115.235C25.7902 113.692 25.1277 111.903 24.935 110.035C24.915 109.971 24.9093 109.903 24.9181 109.837C24.9269 109.77 24.95 109.707 24.986 109.65Z" fill="#D1D4FC"/>
<path d="M249.159 180.131H241.853V187.437H249.159V180.131Z" fill="#FFCEBD"/>
<path d="M258.03 180.131H250.724V187.437H258.03V180.131Z" fill="#FFCEBD"/>
<path d="M239.548 105.293V146.194L241.514 184.958H249.463V107.897L239.548 105.293Z" fill="#5F4DEE"/>
<path opacity="0.3" d="M239.548 105.293V105.873L245.114 114.682L246.668 154.37L249.143 184.958H249.463V107.897L239.548 105.293Z" fill="#191C3C"/>
<path d="M264.423 103.206V112.406C264.423 116.36 263.537 117.654 261.831 121.221L261.379 122.165L260.079 154.374L259.122 184.961H250.713L248.238 154.374L245.637 113.64L239.549 105.295V100.84L264.423 103.206Z" fill="#5F4DEE"/>
<path d="M219 62.5367L222.433 57.2727L241.514 78.9177L233.722 78.5247L219 62.5367Z" fill="#DFE1E8"/>
<path d="M265.979 44.8726C264.684 41.7889 264.545 38.3413 265.589 35.1636L265.557 34.9216L264.235 39.3146C264.043 40.0512 263.769 40.7639 263.418 41.4396C263.056 42.0776 262.562 42.6296 262.168 43.2476C261.286 44.645 260.947 46.3173 261.216 47.9476C261.293 48.5062 261.49 49.0415 261.794 49.5166C262.389 50.2475 263.173 50.8009 264.061 51.1166C266.153 52.0494 268.33 52.781 270.561 53.3016C269.491 50.2836 267.232 47.8216 265.979 44.8726Z" fill="#393939"/>
<path d="M224.909 69.5897L228.262 71.2691L227.5 72.7891L225.375 71.7246C225.049 71.5615 224.802 71.2758 224.687 70.9302C224.572 70.5847 224.599 70.2077 224.762 69.8821L224.909 69.5897Z" fill="#FFCEBD"/>
<path d="M241.514 78.9177L250.246 49.7107L244.681 51.6007C243.982 51.9725 243.451 52.5969 243.196 53.3467L236.112 72.7897L241.514 78.9177Z" fill="#4D5068"/>
<path d="M229.713 70.5686L227.613 71.4976L226.301 73.0906C226.152 73.2714 226.065 73.4955 226.053 73.7297C226.041 73.9638 226.105 74.1956 226.235 74.3906L226.699 75.0906L227.547 76.7216L228.525 77.7656L229.634 78.5866L232.098 79.3306L235.114 76.3096L232.924 74.2426L230.824 70.9136C230.711 70.7322 230.537 70.5975 230.333 70.5341C230.129 70.4708 229.909 70.483 229.713 70.5686V70.5686Z" fill="#FFCEBD"/>
<path d="M250.246 50.4937L241.058 65.7397C239.414 68.2626 238.761 71.3044 239.225 74.2797L240.725 83.8867L237.811 105.287H266.742L264.425 82.3197L265.844 49.3197L252.668 50.9287L250.246 50.4937Z" fill="#4D5068"/>
<path d="M231.316 191.466H252.616V187.966L250.695 185.518H240.744L233.615 186.971C232.966 187.102 232.383 187.454 231.963 187.966C231.544 188.479 231.315 189.121 231.315 189.783V191.462L231.316 191.466Z" fill="#4D5068"/>
<path opacity="0.3" d="M258.233 189.905V187.97L256.021 185.522H244.568L236.361 186.975C235.66 187.058 235.011 187.385 234.527 187.899C234.044 188.414 233.757 189.082 233.718 189.787V189.905H233.027V191.466H259.084V189.905H258.235H258.233Z" fill="#191C3C"/>
<path d="M239.023 191.466H260.323V187.966L258.402 185.518H248.451L241.322 186.971C240.673 187.102 240.09 187.454 239.67 187.966C239.251 188.479 239.022 189.121 239.022 189.783V191.462L239.023 191.466Z" fill="#4D5068"/>
<path opacity="0.22" d="M250.246 77.3077C250.263 77.3166 250.28 77.3269 250.295 77.3387C250.168 77.2987 250.135 77.2827 250.246 77.3077ZM261.032 84.6707C261.165 84.6295 261.282 84.5468 261.365 84.4345C261.448 84.3222 261.493 84.1863 261.493 84.0467C261.493 83.9071 261.448 83.7712 261.365 83.6589C261.282 83.5466 261.165 83.4638 261.032 83.4227C260.175 82.7477 261.405 82.0737 260.547 81.3987C260.668 81.3624 260.775 81.292 260.857 81.196C260.939 81.0999 260.991 80.9823 261.007 80.8573C261.024 80.7323 261.003 80.6053 260.949 80.4914C260.895 80.3776 260.809 80.2818 260.702 80.2157C260.441 80.0843 260.195 79.9247 259.968 79.7397C262.908 79.2677 260.129 78.5167 260.663 73.7007C260.707 73.3067 260.033 72.7487 260.1 72.4897C260.128 72.3797 260.5 73.0167 260.806 72.0977C261.73 69.3037 263.576 66.6357 264.447 63.6527C264.484 63.4902 264.456 63.3199 264.371 63.1771C264.285 63.0342 264.148 62.9299 263.987 62.8856C263.826 62.8413 263.655 62.8606 263.508 62.9394C263.362 63.0182 263.251 63.1504 263.199 63.3087C262.369 66.1547 261.566 70.6427 258.561 72.0187C258.129 72.2187 257.137 73.5497 257.551 73.7527C257.361 73.6597 259.471 76.9067 258.963 77.5887C258.172 78.6497 257.025 78.5737 255.886 78.7007C253.994 78.3709 252.126 77.9173 250.294 77.3427C250.738 77.6427 254.352 80.8147 256.608 80.4667C256.266 80.5957 255.008 81.1667 256.294 81.3797C257.743 81.6147 257.93 83.3697 259.004 83.9587C258.922 84.0073 258.852 84.074 258.799 84.1539C258.747 84.2337 258.713 84.3245 258.701 84.4193C258.689 84.5141 258.699 84.6103 258.73 84.7007C258.761 84.7911 258.812 84.8732 258.88 84.9407C259.847 85.7717 259.804 87.1237 260.611 87.9007C261.496 88.7477 259.785 85.0247 261.033 84.6707H261.032Z" fill="#191C3C"/>
<path opacity="0.22" d="M242.933 82.7847C243.381 81.2597 242.501 81.0347 242.253 79.4587C242.229 79.3379 242.197 79.2187 242.158 79.1017C243.351 78.7507 241.709 78.3717 243.882 78.0287C244.682 77.9017 246.582 76.8367 245.726 76.8697C243.817 76.9613 241.912 76.6088 240.162 75.8397C240.146 75.8327 240.131 75.8397 240.115 75.8297C239.938 75.5445 239.795 75.2398 239.688 74.9217C239.659 74.8202 239.605 74.7281 239.529 74.6545C239.454 74.581 239.36 74.5286 239.258 74.5027L239.787 77.9027L239.849 77.9207C239.833 77.9792 239.823 78.0392 239.818 78.0997L239.91 78.6927C239.975 78.8329 240.066 78.9598 240.178 79.0667C240.326 79.2036 240.511 79.2946 240.71 79.3287C241.168 80.7872 241.168 82.3512 240.71 83.8097L240.724 83.8977C240.724 83.8977 242.737 83.4537 242.933 82.7847Z" fill="#191C3C"/>
<path opacity="0.1" d="M260.234 76.2346L259.118 81.1346L242.546 80.5026L239.985 79.1666L240.722 83.8946L240.568 85.0056L240.72 84.9356L259.701 88.9956C260.613 89.1899 261.557 89.1844 262.467 88.9795C263.377 88.7746 264.232 88.3752 264.973 87.8086L264.42 82.3266L264.62 77.6756L260.234 76.2346Z" fill="#191C3C"/>
<path d="M260.234 75.1906L259.118 80.0906L242.546 79.4586L236.939 76.5326L233.677 74.2396V74.8396C233.677 75.2958 233.779 75.7461 233.977 76.1573C234.174 76.5685 234.461 76.9302 234.817 77.2156L235.117 77.4526L233.682 78.5786L232.888 79.1596C232.525 79.4249 232.267 79.8093 232.159 80.2456C232.05 80.6818 232.098 81.1423 232.295 81.5466L232.841 82.6716C233.133 83.272 233.587 83.778 234.153 84.1317C234.719 84.4855 235.374 84.6726 236.041 84.6716H239.036L240.736 83.8886L259.717 87.9486C261.226 88.271 262.801 88.0441 264.157 87.3087C265.514 86.5734 266.563 85.378 267.117 83.9376L269.333 78.1716L260.234 75.1906Z" fill="#FFCEBD"/>
<path opacity="0.3" d="M259.902 76.6467L268.786 79.5647L269.321 78.1747L260.234 75.1907L259.902 76.6467Z" fill="#191C3C"/>
<path d="M264.774 48.3396L271.504 54.5596C272.655 55.6241 273.504 56.9737 273.966 58.472C274.428 59.9702 274.486 61.5638 274.134 63.0916L270.559 78.5856L259.118 74.8236L261.875 63.4516L261.125 52.1796L264.774 48.3396Z" fill="#4D5068"/>
<path d="M253.899 41.1627C253.918 39.7847 253.748 38.4357 253.699 37.0837C253.649 35.6707 253.97 34.2277 253.917 32.7947C253.816 30.0343 253.241 27.3119 252.217 24.7467C252.152 24.5286 252.024 24.3345 251.849 24.1887C251.646 24.0781 251.415 24.0294 251.184 24.0487C250.14 23.9258 249.084 24.1541 248.184 24.6977C247.504 25.343 247.031 26.1764 246.826 27.0917C246.237 28.9007 245.053 31.2497 245.014 33.1557C244.978 34.9457 245.914 36.8467 246.286 38.5797C246.872 41.3257 246.535 44.1847 246.871 46.9727C247.149 48.3599 247.222 49.7802 247.089 51.1887C246.688 52.4352 245.938 53.5404 244.927 54.3727C244.87 54.4374 244.802 54.4924 244.727 54.5357C244.613 54.5828 244.491 54.6082 244.368 54.6107C243.987 54.6558 243.623 54.7913 243.305 55.0057C242.987 55.2202 242.725 55.5075 242.54 55.8437C242.733 56.0305 242.978 56.1536 243.243 56.196C243.508 56.2384 243.78 56.1981 244.021 56.0807C244.502 55.8368 245.046 55.7464 245.58 55.8217C245.58 56.2087 245.034 56.4767 245.129 56.8517C245.182 56.9639 245.268 57.0577 245.375 57.1212C245.482 57.1848 245.605 57.2152 245.729 57.2087C247.306 57.3517 247.485 56.6647 248.051 55.5037C248.878 53.8097 248.545 56.7727 248.464 57.2437C248.894 57.1314 249.263 56.8564 249.494 56.4767C249.742 56.1137 249.909 55.7027 250.126 55.3207C250.644 54.4117 251.44 53.6847 251.947 52.7707C253.118 50.715 253.75 48.3963 253.784 46.0307C253.84 44.408 253.878 42.7853 253.899 41.1627Z" fill="#E55151"/>
<path d="M252.669 40.4906H260.824V51.5476C260.824 52.5838 260.412 53.5776 259.68 54.3103C258.947 55.043 257.953 55.4546 256.917 55.4546H256.576C256.063 55.4546 255.555 55.3535 255.081 55.1572C254.607 54.9609 254.176 54.6731 253.813 54.3103C253.45 53.9475 253.163 53.5168 252.966 53.0427C252.77 52.5687 252.669 52.0607 252.669 51.5476V40.4906V40.4906Z" fill="#FFCEBD"/>
<path opacity="0.3" d="M260.824 46.4926L252.669 49.1016V40.4906H260.824V46.4926Z" fill="#191C3C"/>
<path d="M247.127 33.3597V38.1687C247.127 38.7792 247.284 39.3793 247.583 39.9117L251.283 46.5037C251.444 46.7907 251.678 47.0296 251.962 47.1959C252.246 47.3621 252.569 47.4498 252.898 47.4497H254.829C255.295 47.4498 255.744 47.2741 256.086 46.9577L260.312 43.0467C260.649 42.7348 260.918 42.3566 261.102 41.9359C261.286 41.5151 261.381 41.0609 261.381 40.6017V30.0537C261.381 30.0537 257.447 25.8847 251.814 27.3047C250.471 27.6491 249.281 28.4315 248.432 29.5281C247.583 30.6247 247.124 31.973 247.127 33.3597V33.3597Z" fill="#FFCEBD"/>
<path d="M250.246 42.1886H255.899C255.899 42.1886 253.368 45.9546 250.246 42.1886Z" fill="white"/>
<path d="M250.303 23.4176C251.134 23.1441 251.997 22.9794 252.87 22.9276C253.845 22.7436 254.749 22.2806 255.721 22.0786C256.886 21.9031 258.077 22.0225 259.184 22.4259C260.291 22.8293 261.279 23.5037 262.058 24.3876C263.597 26.1764 264.674 28.3162 265.192 30.6186C266.302 34.7483 266.548 39.0626 265.914 43.2916C265.632 45.1726 264.86 47.0226 264.707 48.9046C264.616 50.408 263.976 51.8254 262.907 52.8866L260.797 55.3916C260.284 56.0586 259.683 56.6528 259.01 57.1576C258.417 57.4197 257.842 57.7203 257.288 58.0576C257.109 57.819 256.994 57.5389 256.952 57.2435C256.911 56.9482 256.945 56.6472 257.052 56.3686C257.267 55.8143 257.419 55.2377 257.505 54.6496C257.325 54.973 257.069 55.2475 256.758 55.449C256.448 55.6505 256.093 55.773 255.724 55.8056C255.48 55.8226 254.837 55.8886 254.77 55.5456C254.686 55.1196 255.17 55.2086 255.339 55.0186C255.383 54.9544 255.401 54.8755 255.388 54.7986L255.36 54.0586C254.699 54.3471 253.963 54.4171 253.26 54.2586L256.993 51.3716C258.724 50.0336 259.64 47.2906 260.133 45.2236C260.613 43.2089 260.917 41.1561 261.04 39.0886C261.094 38.1484 261.039 37.2051 260.876 36.2776C260.704 35.2856 260.813 34.2886 260.601 33.3116C260.546 33.0013 260.426 32.706 260.25 32.4446C259.863 32.0166 259.358 31.7126 258.799 31.5706C257.044 30.87 255.22 30.3568 253.358 30.0396C252.468 29.9674 251.583 29.8442 250.707 29.6706C249.823 29.4912 249.036 28.9898 248.501 28.2636C247.468 26.6756 248.743 24.1666 250.303 23.4176Z" fill="#E55151"/>
<path d="M246.527 6.351V21.006C246.527 21.8947 246.174 22.7471 245.546 23.3755C244.917 24.0039 244.065 24.357 243.176 24.357H241.632V32.312C241.632 32.3897 241.608 32.4655 241.564 32.5292C241.519 32.5928 241.456 32.6412 241.383 32.6678C241.31 32.6943 241.231 32.6977 241.156 32.6776C241.081 32.6574 241.014 32.6146 240.964 32.555L232.47 24.355H214.981C214.092 24.355 213.24 24.0019 212.611 23.3735C211.983 22.7451 211.63 21.8927 211.63 21.004V6.351C211.63 5.46226 211.983 4.60992 212.611 3.98149C213.24 3.35305 214.092 3 214.981 3H243.181C244.069 3.00132 244.92 3.35496 245.547 3.98325C246.175 4.61154 246.527 5.46313 246.527 6.351V6.351Z" fill="#007BF8"/>
<path opacity="0.3" d="M226.04 7.21106H208.56V21.0111C208.56 21.8998 208.913 22.7521 209.542 23.3806C210.17 24.009 211.022 24.3621 211.911 24.3621H229.391V10.5621C229.391 9.67332 229.038 8.82098 228.41 8.19254C227.781 7.56411 226.929 7.21106 226.04 7.21106V7.21106Z" fill="#231F20"/>
<path d="M201 10.5621V25.2171C201 26.1058 201.353 26.9581 201.981 27.5866C202.61 28.215 203.462 28.5681 204.351 28.5681H205.895V36.5231C205.895 36.6007 205.919 36.6766 205.963 36.7402C206.008 36.8039 206.071 36.8523 206.144 36.8788C206.217 36.9054 206.296 36.9088 206.371 36.8886C206.446 36.8685 206.513 36.8257 206.563 36.7661L215.057 28.5661H225.069C225.958 28.5661 226.81 28.213 227.439 27.5846C228.067 26.9561 228.42 26.1038 228.42 25.2151V10.5621C228.42 9.67332 228.067 8.82098 227.439 8.19255C226.81 7.56411 225.958 7.21106 225.069 7.21106H204.353C203.913 7.2108 203.477 7.29728 203.07 7.46557C202.663 7.63385 202.294 7.88064 201.982 8.19184C201.671 8.50303 201.424 8.87253 201.255 9.27923C201.087 9.68592 201 10.1218 201 10.5621V10.5621Z" fill="white"/>
<path d="M218.381 18.035C218.392 18.7848 218.183 19.5214 217.781 20.154C217.393 20.7722 216.831 21.2617 216.165 21.561C216.241 21.679 216.347 21.7744 216.473 21.837C216.607 21.9108 216.758 21.9496 216.911 21.95C217.062 21.9506 217.212 21.927 217.355 21.88C217.478 21.8441 217.595 21.7877 217.7 21.713C217.86 21.5916 217.996 21.441 218.1 21.269L218.975 22.318C218.68 22.6379 218.319 22.8911 217.919 23.0607C217.518 23.2304 217.085 23.3127 216.65 23.302C216.201 23.2978 215.76 23.1746 215.374 22.945C214.961 22.7125 214.626 22.3628 214.411 21.94C213.889 21.9524 213.371 21.8596 212.886 21.6672C212.401 21.4748 211.96 21.1867 211.589 20.82C211.215 20.4608 210.92 20.0276 210.723 19.5482C210.525 19.0687 210.43 18.5534 210.443 18.035C210.43 17.5167 210.525 17.0014 210.723 16.5219C210.92 16.0424 211.215 15.6093 211.589 15.25C212.353 14.531 213.362 14.1306 214.411 14.1306C215.46 14.1306 216.47 14.531 217.234 15.25C217.608 15.6092 217.903 16.0423 218.101 16.5218C218.298 17.0013 218.394 17.5166 218.381 18.035ZM216.661 18.04C216.676 17.403 216.443 16.7849 216.013 16.315C215.812 16.0906 215.566 15.911 215.291 15.7881C215.016 15.6652 214.718 15.6017 214.417 15.6017C214.116 15.6017 213.818 15.6652 213.543 15.7881C213.268 15.911 213.022 16.0906 212.821 16.315C212.403 16.7917 212.173 17.4038 212.173 18.0375C212.173 18.6713 212.403 19.2834 212.821 19.76C213.023 19.983 213.269 20.1611 213.544 20.2831C213.819 20.405 214.116 20.468 214.417 20.468C214.718 20.468 215.015 20.405 215.29 20.2831C215.565 20.1611 215.811 19.983 216.013 19.76C216.444 19.2925 216.676 18.6757 216.661 18.04Z" fill="#00BED7"/>
<path d="M237.598 17.991H236.181V14.323C235.535 15.2481 234.76 16.0768 233.881 16.784C233.592 16.4249 233.284 16.0817 232.958 15.756V17.461C233.245 17.7269 233.582 17.9347 233.948 18.073C234.288 18.2062 234.645 18.2933 235.008 18.332C235.34 18.363 235.949 18.379 236.831 18.379C237.936 18.379 239.259 18.351 240.798 18.295C240.616 18.7776 240.445 19.2603 240.284 19.743C237.562 19.7536 235.703 19.7326 234.706 19.68C234.249 19.6706 233.799 19.5702 233.382 19.3846C232.965 19.1989 232.589 18.9318 232.276 18.599C232.003 18.893 231.58 19.3616 231.006 20.005L230.345 18.441L231.552 17.341V14.706H230.503V13.321H232.959V15.593C234.402 14.5495 235.513 13.1121 236.159 11.453H233.572V10.162H240.472V11.453H237.691C237.51 11.9331 237.301 12.4026 237.066 12.859H237.607V13.641L238.3 13.069C239.105 13.8316 239.955 14.6816 240.85 15.619L239.675 16.658C238.842 15.64 238.153 14.8266 237.607 14.218V17.991H237.598ZM231.836 9.75195C232.347 10.396 232.843 11.0536 233.326 11.725L232.026 12.575C231.62 11.8896 231.165 11.183 230.662 10.455L231.836 9.75195Z" fill="white"/>
</g>
<defs>
<linearGradient id="paint0_linear" x1="16.066" y1="214.99" x2="263.065" y2="54.9909" gradientUnits="userSpaceOnUse">
<stop stop-color="#DFE1FD"/>
<stop offset="0.454" stop-color="#EBECFE"/>
<stop offset="1" stop-color="#F4F5FE"/>
</linearGradient>
<clipPath id="clip0">
<rect width="297.926" height="189.688" fill="white"/>
</clipPath>
</defs>
</svg>
