<svg width="280" height="198" viewBox="0 0 280 198" fill="none" xmlns="http://www.w3.org/2000/svg">
<g clip-path="url(#clip0)">
<path d="M7.5 0H270.241C272.363 0 274.398 0.842855 275.898 2.34315C277.398 3.84344 278.241 5.87827 278.241 8V187.2C278.241 189.322 277.398 191.357 275.898 192.857C274.398 194.357 272.363 195.2 270.241 195.2H8C5.87827 195.2 3.84344 194.357 2.34315 192.857C0.842855 191.357 0 189.322 0 187.2V7.5C0 5.51088 0.790176 3.60322 2.1967 2.1967C3.60322 0.790177 5.51088 0 7.5 0V0Z" fill="white"/>
<path d="M272.687 2.31757e-05H6.563C4.84794 -0.0250947 3.19312 0.631943 1.96239 1.82666C0.731668 3.02139 0.0258005 4.65598 0 6.37102L0 16.024H279.25V6.37102C279.224 4.65598 278.518 3.02139 277.288 1.82666C276.057 0.631943 274.402 -0.0250947 272.687 2.31757e-05V2.31757e-05Z" fill="#101010"/>
<path d="M21.758 11.516C23.2812 11.516 24.516 10.2812 24.516 8.758C24.516 7.2348 23.2812 6 21.758 6C20.2348 6 19 7.2348 19 8.758C19 10.2812 20.2348 11.516 21.758 11.516Z" fill="white"/>
<path d="M8.758 11.516C10.2812 11.516 11.516 10.2812 11.516 8.758C11.516 7.2348 10.2812 6 8.758 6C7.23479 6 6 7.2348 6 8.758C6 10.2812 7.23479 11.516 8.758 11.516Z" fill="white"/>
<path d="M32.937 8H38.973C39.2213 8.00079 39.4591 8.09976 39.6347 8.27531C39.8102 8.45086 39.9092 8.68873 39.91 8.937V8.937C39.9092 9.18526 39.8102 9.42313 39.6347 9.59868C39.4591 9.77423 39.2213 9.87321 38.973 9.874H32.937C32.6887 9.87321 32.4509 9.77423 32.2753 9.59868C32.0998 9.42313 32.0008 9.18526 32 8.937V8.937C32.0008 8.68873 32.0998 8.45086 32.2753 8.27531C32.4509 8.09976 32.6887 8.00079 32.937 8V8Z" fill="white"/>
<rect y="16" width="279" height="13" fill="#2F2F2F"/>
<path d="M271.5 27C273.985 27 276 24.9853 276 22.5C276 20.0147 273.985 18 271.5 18C269.015 18 267 20.0147 267 22.5C267 24.9853 269.015 27 271.5 27Z" fill="white"/>
<path d="M260.5 27C262.985 27 265 24.9853 265 22.5C265 20.0147 262.985 18 260.5 18C258.015 18 256 20.0147 256 22.5C256 24.9853 258.015 27 260.5 27Z" fill="white"/>
<path d="M249.5 27C251.985 27 254 24.9853 254 22.5C254 20.0147 251.985 18 249.5 18C247.015 18 245 20.0147 245 22.5C245 24.9853 247.015 27 249.5 27Z" fill="white"/>
<path d="M271.5 27C273.985 27 276 24.9853 276 22.5C276 20.0147 273.985 18 271.5 18C269.015 18 267 20.0147 267 22.5C267 24.9853 269.015 27 271.5 27Z" fill="white"/>
<path d="M249.897 44.9998H45.1034C44.2939 45.0068 43.5132 44.8004 42.9317 44.4257C42.3503 44.051 42.0153 43.5384 42 43V43C42.0153 42.4616 42.3503 41.949 42.9317 41.5743C43.5132 41.1996 44.2939 40.9932 45.1034 41.0002H249.897C250.706 40.9932 251.487 41.1996 252.068 41.5743C252.65 41.949 252.985 42.4616 253 43C252.985 43.5384 252.65 44.051 252.068 44.4257C251.487 44.8004 250.706 45.0068 249.897 44.9998V44.9998Z" fill="#0984E3"/>
<path d="M249.897 88.9998H45.1034C44.2939 89.0068 43.5132 88.8004 42.9317 88.4257C42.3503 88.051 42.0153 87.5384 42 87V87C42.0153 86.4616 42.3503 85.949 42.9317 85.5743C43.5132 85.1996 44.2939 84.9932 45.1034 85.0002H249.897C250.706 84.9932 251.487 85.1996 252.068 85.5743C252.65 85.949 252.985 86.4616 253 87C252.985 87.5384 252.65 88.051 252.068 88.4257C251.487 88.8004 250.706 89.0068 249.897 88.9998V88.9998Z" fill="#0984E3"/>
<path d="M17.0933 35.9821C17.0933 35.2123 17.9266 34.7311 18.5933 35.116L31.3433 42.4772C32.0099 42.8621 32.0099 43.8244 31.3433 44.2093L18.5933 51.5705C17.9266 51.9554 17.0933 51.4743 17.0933 50.7045L17.0933 35.9821Z" fill="#0984E3"/>
<rect x="9" y="58" width="252" height="19" fill="#E5E7FD"/>
<rect x="9" y="95" width="252" height="23" fill="#E5E7FD"/>
<rect x="9" y="126" width="252" height="60" fill="#E5E7FD"/>
<rect x="17" y="62" width="12" height="10" rx="2" fill="white"/>
<rect x="17" y="62" width="12" height="10" rx="2" fill="white"/>
<rect x="17" y="62" width="12" height="10" rx="2" fill="white"/>
<rect x="33" y="62" width="12" height="10" rx="2" fill="white"/>
<rect x="33" y="62" width="12" height="10" rx="2" fill="white"/>
<rect x="33" y="62" width="12" height="10" rx="2" fill="white"/>
<rect x="49" y="62" width="12" height="10" rx="2" fill="white"/>
<rect x="49" y="62" width="12" height="10" rx="2" fill="white"/>
<rect x="49" y="62" width="12" height="10" rx="2" fill="white"/>
<rect x="65" y="62" width="12" height="10" rx="2" fill="white"/>
<rect x="65" y="62" width="12" height="10" rx="2" fill="white"/>
<rect x="65" y="62" width="12" height="10" rx="2" fill="white"/>
<rect x="81" y="62" width="12" height="10" rx="2" fill="white"/>
<rect x="81" y="62" width="12" height="10" rx="2" fill="white"/>
<rect x="81" y="62" width="12" height="10" rx="2" fill="white"/>
<rect x="97" y="62" width="12" height="10" rx="2" fill="white"/>
<rect x="97" y="62" width="12" height="10" rx="2" fill="white"/>
<rect x="97" y="62" width="12" height="10" rx="2" fill="white"/>
<rect x="113" y="62" width="12" height="10" rx="2" fill="white"/>
<rect x="113" y="62" width="12" height="10" rx="2" fill="white"/>
<rect x="113" y="62" width="12" height="10" rx="2" fill="white"/>
<rect x="129" y="62" width="12" height="10" rx="2" fill="white"/>
<rect x="129" y="62" width="12" height="10" rx="2" fill="white"/>
<rect x="129" y="62" width="12" height="10" rx="2" fill="white"/>
<rect x="145" y="62" width="12" height="10" rx="2" fill="white"/>
<rect x="145" y="62" width="12" height="10" rx="2" fill="white"/>
<rect x="145" y="62" width="12" height="10" rx="2" fill="white"/>
<rect x="161" y="62" width="12" height="10" rx="2" fill="white"/>
<rect x="161" y="62" width="12" height="10" rx="2" fill="white"/>
<rect x="161" y="62" width="12" height="10" rx="2" fill="white"/>
<rect x="177" y="62" width="12" height="10" rx="2" fill="white"/>
<rect x="177" y="62" width="12" height="10" rx="2" fill="white"/>
<rect x="177" y="62" width="12" height="10" rx="2" fill="white"/>
<rect x="193" y="62" width="12" height="10" rx="2" fill="white"/>
<rect x="193" y="62" width="12" height="10" rx="2" fill="white"/>
<rect x="193" y="62" width="12" height="10" rx="2" fill="white"/>
<rect x="209" y="62" width="12" height="10" rx="2" fill="white"/>
<rect x="209" y="62" width="12" height="10" rx="2" fill="white"/>
<rect x="209" y="62" width="12" height="10" rx="2" fill="white"/>
<rect x="225" y="62" width="12" height="10" rx="2" fill="white"/>
<rect x="225" y="62" width="12" height="10" rx="2" fill="white"/>
<rect x="225" y="62" width="12" height="10" rx="2" fill="white"/>
<rect x="241" y="62" width="12" height="10" rx="2" fill="white"/>
<rect x="241" y="62" width="12" height="10" rx="2" fill="white"/>
<rect x="241" y="62" width="12" height="10" rx="2" fill="white"/>
<path d="M66 45C67.1046 45 68 44.1046 68 43C68 41.8954 67.1046 41 66 41C64.8954 41 64 41.8954 64 43C64 44.1046 64.8954 45 66 45Z" fill="white"/>
<path d="M142 89C143.105 89 144 88.1046 144 87C144 85.8954 143.105 85 142 85C140.895 85 140 85.8954 140 87C140 88.1046 140.895 89 142 89Z" fill="white"/>
</g>
<defs>
<clipPath id="clip0">
<rect width="279.25" height="197.959" fill="white"/>
</clipPath>
</defs>
</svg>
